<svg xmlns="http://www.w3.org/2000/svg" width="1200" height="600" viewBox="0 0 1200 600" preserveAspectRatio="xMidYMid slice">
  <defs>
    <linearGradient id="bg4" x1="0" y1="0" x2="0" y2="1">
      <stop offset="0%" stop-color="#0f1730"/>
      <stop offset="100%" stop-color="#0b1327"/>
    </linearGradient>
    <linearGradient id="accent4" x1="0" y1="0" x2="1" y2="1">
      <stop offset="0%" stop-color="#00f5a0"/>
      <stop offset="100%" stop-color="#00c8ff"/>
    </linearGradient>
  </defs>
  <rect width="1200" height="600" fill="url(#bg4)"/>
  <!-- Sword and flask icons -->
  <g transform="translate(250,300)">
    <!-- Sword -->
    <rect x="-20" y="-140" width="12" height="180" fill="#cfe7ff"/>
    <polygon points="-24,-140 2,-180 28,-140" fill="#cfe7ff"/>
    <rect x="-40" y="-20" width="60" height="12" fill="#9b5de5"/>
    <!-- Flask -->
    <path d="M160 -120 L180 -60 C200 -20 170 20 140 20 C110 20 80 -20 100 -60 L120 -120 Z" fill="#00f5a0" opacity="0.8"/>
    <circle cx="150" cy="-20" r="10" fill="#00c8ff"/>
  </g>
  <!-- Grid accents -->
  <g stroke="#00c8ff" stroke-width="1" opacity="0.12">
    <path d="M0 520 H1200"/>
    <path d="M0 560 H1200"/>
    <path d="M0 480 H1200"/>
    <path d="M0 440 H1200"/>
  </g>
  <!-- Title -->
  <text x="80" y="420" fill="#d6fff3" font-size="44" font-weight="700">假设检验：英雄平衡与农业评估</text>
  <text x="80" y="468" fill="#9cf7d6" font-size="22">比例检验 • 显著性 • 实验设计</text>
  <rect x="20" y="20" width="1160" height="560" rx="18" ry="18" fill="none" stroke="url(#accent4)" stroke-width="2" opacity="0.5"/>
</svg>