<?xml version="1.0" encoding="utf-8" standalone="no"?>
<!DOCTYPE svg PUBLIC "-//W3C//DTD SVG 1.1//EN"
  "http://www.w3.org/Graphics/SVG/1.1/DTD/svg11.dtd">
<svg xmlns:xlink="http://www.w3.org/1999/xlink" width="907.2pt" height="513.36pt" viewBox="0 0 907.2 513.36" xmlns="http://www.w3.org/2000/svg" version="1.1">
 <metadata>
  <rdf:RDF xmlns:dc="http://purl.org/dc/elements/1.1/" xmlns:cc="http://creativecommons.org/ns#" xmlns:rdf="http://www.w3.org/1999/02/22-rdf-syntax-ns#">
   <cc:Work>
    <dc:type rdf:resource="http://purl.org/dc/dcmitype/StillImage"/>
    <dc:date>2025-11-04T16:06:02.986795</dc:date>
    <dc:format>image/svg+xml</dc:format>
    <dc:creator>
     <cc:Agent>
      <dc:title>Matplotlib v3.10.3, https://matplotlib.org/</dc:title>
     </cc:Agent>
    </dc:creator>
   </cc:Work>
  </rdf:RDF>
 </metadata>
 <defs>
  <style type="text/css">*{stroke-linejoin: round; stroke-linecap: butt}</style>
 </defs>
 <g id="figure_1">
  <g id="patch_1">
   <path d="M 0 513.36 
L 907.2 513.36 
L 907.2 -0 
L 0 -0 
z
" style="fill: #0b1221"/>
  </g>
  <g id="axes_1">
   <g id="text_1">
    <!-- 设计洪水位（分位数） -->
    <g style="fill: #00f3ff" transform="translate(253.6 108.028425) scale(0.4 -0.4)">
     <defs>
      <path id="MicrosoftYaHei-8bbe" d="M 2231 2116 
L 2231 2547 
L 5638 2547 
L 5638 2116 
Q 5144 1031 4419 416 
Q 5216 -109 6338 -316 
Q 6119 -597 5956 -822 
Q 4841 -500 4013 113 
Q 3163 -463 1863 -872 
Q 1700 -641 1538 -422 
Q 2778 -88 3613 431 
Q 2888 1131 2559 2116 
L 2231 2116 
z
M 4856 4553 
L 3294 4553 
L 3294 4372 
Q 3294 3222 2244 2659 
Q 2075 2866 1881 3047 
Q 2806 3522 2806 4359 
L 2806 5016 
L 5344 5016 
L 5344 3741 
Q 5344 3459 5631 3459 
L 6319 3459 
Q 6288 3203 6269 2997 
L 5444 2997 
Q 4856 2997 4856 3647 
L 4856 4553 
z
M 2250 1028 
Q 2263 734 2294 472 
Q 1438 -84 1019 -422 
L 719 -9 
Q 931 197 931 553 
L 931 2778 
L 138 2778 
L 138 3228 
L 1406 3228 
L 1406 453 
Q 1813 722 2250 1028 
z
M 988 5128 
Q 1469 4653 1906 4166 
L 1469 3803 
Q 1013 4391 613 4803 
L 988 5128 
z
M 3031 2116 
Q 3347 1319 4022 713 
Q 4684 1225 5081 2116 
L 3031 2116 
z
" transform="scale(0.015625)"/>
      <path id="MicrosoftYaHei-8ba1" d="M 2100 3153 
L 3919 3153 
L 3919 5303 
L 4456 5303 
L 4456 3153 
L 6288 3153 
L 6288 2703 
L 4456 2703 
L 4456 -822 
L 3919 -822 
L 3919 2703 
L 2100 2703 
L 2100 3153 
z
M 2675 903 
Q 2694 578 2719 359 
Q 1719 -266 1069 -728 
L 769 -303 
Q 988 -116 988 266 
L 988 2741 
L 100 2741 
L 100 3191 
L 1488 3191 
L 1488 153 
Q 2031 484 2675 903 
z
M 738 5222 
Q 1419 4522 1725 4184 
L 1288 3816 
Q 894 4334 356 4891 
L 738 5222 
z
" transform="scale(0.015625)"/>
      <path id="MicrosoftYaHei-6d2a" d="M 1650 1741 
L 2675 1741 
L 2675 3616 
L 1894 3616 
L 1894 4091 
L 2675 4091 
L 2675 5278 
L 3175 5278 
L 3175 4091 
L 4675 4091 
L 4675 5303 
L 5175 5303 
L 5175 4091 
L 6013 4091 
L 6013 3616 
L 5175 3616 
L 5175 1741 
L 6263 1741 
L 6263 1266 
L 1650 1266 
L 1650 1741 
z
M 3175 1741 
L 4675 1741 
L 4675 3616 
L 3175 3616 
L 3175 1741 
z
M 938 1809 
Q 1181 1703 1431 1603 
Q 1100 528 725 -766 
L 194 -578 
Q 644 709 938 1809 
z
M 3050 1003 
L 3463 716 
Q 2781 -122 1944 -809 
Q 1769 -616 1569 -441 
Q 2419 178 3050 1003 
z
M 4413 697 
L 4750 997 
Q 5456 397 6244 -372 
L 5825 -747 
Q 5169 -3 4413 697 
z
M 406 3603 
Q 956 3222 1506 2778 
Q 1275 2503 1138 2359 
Q 594 2859 100 3253 
L 406 3603 
z
M 663 5203 
Q 1250 4741 1713 4328 
Q 1500 4097 1344 3928 
Q 719 4534 325 4872 
L 663 5203 
z
" transform="scale(0.015625)"/>
      <path id="MicrosoftYaHei-6c34" d="M 2925 5297 
L 3431 5297 
L 3431 4294 
Q 3700 3563 4047 2934 
Q 4738 3509 5425 4309 
L 5844 3934 
Q 5113 3169 4300 2506 
Q 5125 1200 6319 384 
Q 6056 122 5894 -84 
Q 4250 1209 3431 3119 
L 3431 197 
Q 3431 -734 2538 -734 
Q 2263 -734 1725 -728 
Q 1694 -497 1625 -166 
Q 2125 -216 2438 -216 
Q 2925 -216 2925 253 
L 2925 5297 
z
M 256 3297 
L 256 3772 
L 2413 3772 
L 2413 3316 
Q 1881 1266 475 -197 
Q 263 47 94 184 
Q 1506 1672 1913 3297 
L 256 3297 
z
" transform="scale(0.015625)"/>
      <path id="MicrosoftYaHei-4f4d" d="M 1788 -59 
L 4228 -59 
Q 4678 1144 5269 3372 
L 5831 3203 
Q 5453 2044 4756 -59 
L 6319 -59 
L 6319 -522 
L 1788 -522 
L 1788 -59 
z
M 81 2291 
Q 975 3641 1431 5322 
L 1963 5191 
Q 1703 4397 1406 3709 
L 1406 -853 
L 938 -853 
L 938 2731 
Q 644 2181 319 1716 
Q 231 1953 81 2291 
z
M 1919 4191 
L 4122 4191 
Q 3844 4659 3506 5059 
L 3931 5353 
Q 4206 5034 4613 4497 
L 4150 4191 
L 6206 4191 
L 6206 3728 
L 1919 3728 
L 1919 4191 
z
M 2769 3309 
Q 3181 2184 3669 584 
L 3150 434 
Q 2725 1966 2294 3147 
L 2769 3309 
z
" transform="scale(0.015625)"/>
      <path id="MicrosoftYaHei-ff08" d="M 5288 -1100 
Q 4172 119 4172 1850 
Q 4172 3603 5288 4838 
L 5825 4838 
Q 4716 3572 4716 1856 
Q 4716 166 5819 -1100 
L 5288 -1100 
z
" transform="scale(0.015625)"/>
      <path id="MicrosoftYaHei-5206" d="M 900 2559 
L 5056 2559 
Q 5025 1497 4963 484 
Q 4888 -684 3856 -678 
Q 3350 -684 2788 -647 
Q 2750 -384 2700 -116 
Q 3181 -184 3775 -191 
Q 4400 -203 4463 541 
Q 4513 1216 4538 2097 
L 2616 2097 
Q 2541 1053 2181 416 
Q 1706 -422 588 -878 
Q 425 -666 231 -459 
Q 1269 -72 1725 666 
Q 2053 1225 2103 2097 
L 900 2097 
L 900 2559 
z
M 3488 5159 
L 3938 5353 
Q 4625 3678 6350 2847 
Q 6069 2553 5944 2372 
Q 4225 3366 3488 5159 
z
M 50 2766 
Q 1338 3678 2250 5253 
L 2694 5009 
Q 1744 3347 413 2341 
Q 281 2534 50 2766 
z
" transform="scale(0.015625)"/>
      <path id="MicrosoftYaHei-6570" d="M 4175 5303 
L 4675 5228 
Q 4544 4622 4369 4097 
L 6281 4097 
L 6281 3672 
L 5888 3672 
Q 5731 1834 5088 753 
Q 5594 66 6375 -372 
Q 6175 -647 6038 -866 
Q 5275 -372 4769 309 
Q 4194 -403 3400 -928 
Q 3263 -747 3044 -534 
Q 3919 41 4463 772 
Q 3956 1647 3794 2791 
Q 3663 2559 3519 2359 
Q 3394 2541 3206 2759 
Q 3931 3803 4175 5303 
z
M 150 1697 
L 1100 1697 
Q 1238 1934 1369 2184 
L 1819 2041 
Q 1719 1866 1619 1697 
L 3150 1697 
L 3150 1291 
Q 2913 678 2431 216 
Q 2775 53 3131 -109 
L 2856 -541 
Q 2469 -322 2050 -103 
Q 1344 -609 269 -903 
Q 169 -703 56 -466 
Q 969 -259 1600 128 
Q 1063 403 475 691 
Q 675 978 863 1284 
L 150 1284 
L 150 1697 
z
M 219 3847 
L 1656 3847 
L 1656 5247 
L 2119 5247 
L 2119 3847 
L 3319 3847 
L 3319 3434 
L 2119 3434 
L 2119 3053 
L 2306 3266 
Q 2888 2841 3281 2516 
L 2981 2166 
Q 2638 2491 2119 2897 
L 2119 2184 
L 1656 2184 
L 1656 3059 
Q 1088 2466 331 2016 
Q 213 2197 63 2397 
Q 850 2822 1506 3434 
L 219 3434 
L 219 3847 
z
M 5388 3672 
L 4219 3672 
Q 4188 3591 4150 3516 
Q 4263 2191 4775 1247 
Q 5275 2159 5388 3672 
z
M 1088 834 
Q 1531 634 2000 416 
Q 2431 784 2675 1284 
L 1375 1284 
Q 1231 1053 1088 834 
z
M 3038 5091 
L 3425 4834 
Q 3081 4384 2738 4003 
Q 2594 4128 2400 4266 
Q 2725 4647 3038 5091 
z
M 381 4816 
L 738 5059 
Q 1019 4716 1319 4322 
L 931 4047 
Q 656 4453 381 4816 
z
" transform="scale(0.015625)"/>
      <path id="MicrosoftYaHei-ff09" d="M 1113 -1100 
L 575 -1100 
Q 1684 163 1684 1888 
Q 1684 3581 581 4838 
L 1113 4838 
Q 2222 3628 2222 1888 
Q 2222 128 1113 -1100 
z
" transform="scale(0.015625)"/>
     </defs>
     <use xlink:href="#MicrosoftYaHei-8bbe"/>
     <use xlink:href="#MicrosoftYaHei-8ba1" transform="translate(100 0)"/>
     <use xlink:href="#MicrosoftYaHei-6d2a" transform="translate(200 0)"/>
     <use xlink:href="#MicrosoftYaHei-6c34" transform="translate(300 0)"/>
     <use xlink:href="#MicrosoftYaHei-4f4d" transform="translate(400 0)"/>
     <use xlink:href="#MicrosoftYaHei-ff08" transform="translate(500 0)"/>
     <use xlink:href="#MicrosoftYaHei-5206" transform="translate(600 0)"/>
     <use xlink:href="#MicrosoftYaHei-4f4d" transform="translate(700 0)"/>
     <use xlink:href="#MicrosoftYaHei-6570" transform="translate(800 0)"/>
     <use xlink:href="#MicrosoftYaHei-ff09" transform="translate(900 0)"/>
    </g>
   </g>
   <g id="text_2">
    <!-- $x_T^{\text{Gumbel}}=\mu-\beta\,\ln(-\ln(1-1/T))$ -->
    <g style="fill: #93c5fd" transform="translate(245.25 196.1256) scale(0.3 -0.3)">
     <defs>
      <path id="Cmmi10-78" d="M 500 184 
Q 613 97 819 97 
Q 1019 97 1172 289 
Q 1325 481 1381 709 
L 1672 1844 
Q 1741 2153 1741 2266 
Q 1741 2425 1652 2544 
Q 1563 2663 1403 2663 
Q 1200 2663 1022 2536 
Q 844 2409 722 2214 
Q 600 2019 550 1819 
Q 538 1778 500 1778 
L 422 1778 
Q 372 1778 372 1838 
L 372 1856 
Q 434 2094 584 2320 
Q 734 2547 951 2687 
Q 1169 2828 1416 2828 
Q 1650 2828 1839 2703 
Q 2028 2578 2106 2363 
Q 2216 2559 2386 2693 
Q 2556 2828 2759 2828 
Q 2897 2828 3040 2779 
Q 3184 2731 3275 2631 
Q 3366 2531 3366 2381 
Q 3366 2219 3261 2101 
Q 3156 1984 2994 1984 
Q 2891 1984 2822 2050 
Q 2753 2116 2753 2216 
Q 2753 2350 2845 2451 
Q 2938 2553 3066 2572 
Q 2950 2663 2747 2663 
Q 2541 2663 2389 2472 
Q 2238 2281 2175 2047 
L 1894 916 
Q 1825 659 1825 494 
Q 1825 331 1917 214 
Q 2009 97 2163 97 
Q 2463 97 2698 361 
Q 2934 625 3009 941 
Q 3022 978 3059 978 
L 3138 978 
Q 3163 978 3178 961 
Q 3194 944 3194 922 
Q 3194 916 3188 903 
Q 3097 522 2806 225 
Q 2516 -72 2150 -72 
Q 1916 -72 1727 54 
Q 1538 181 1459 397 
Q 1359 209 1182 68 
Q 1006 -72 806 -72 
Q 669 -72 523 -23 
Q 378 25 287 125 
Q 197 225 197 378 
Q 197 528 301 651 
Q 406 775 563 775 
Q 669 775 741 711 
Q 813 647 813 544 
Q 813 409 723 309 
Q 634 209 500 184 
z
" transform="scale(0.015625)"/>
      <path id="Cmr10-47" d="M 1472 684 
Q 1703 403 2036 243 
Q 2369 84 2731 84 
Q 3088 84 3378 265 
Q 3669 447 3669 781 
L 3669 1319 
Q 3669 1522 2869 1522 
L 2869 1747 
L 4703 1747 
L 4703 1522 
Q 4500 1522 4381 1487 
Q 4263 1453 4263 1319 
L 4263 56 
Q 4263 34 4245 17 
Q 4228 0 4206 0 
Q 4147 0 4008 140 
Q 3869 281 3788 391 
Q 3631 122 3297 -9 
Q 2963 -141 2597 -141 
Q 1975 -141 1464 179 
Q 953 500 656 1036 
Q 359 1572 359 2188 
Q 359 2641 531 3069 
Q 703 3497 1011 3822 
Q 1319 4147 1728 4330 
Q 2138 4513 2597 4513 
Q 2928 4513 3223 4370 
Q 3519 4228 3750 3969 
L 4122 4494 
Q 4159 4513 4166 4513 
L 4213 4513 
Q 4231 4513 4247 4497 
Q 4263 4481 4263 4459 
L 4263 2731 
Q 4263 2675 4213 2675 
L 4097 2675 
Q 4038 2675 4038 2731 
Q 4038 2916 3964 3144 
Q 3891 3372 3777 3576 
Q 3663 3781 3513 3938 
Q 3153 4288 2688 4288 
Q 2331 4288 2006 4128 
Q 1681 3969 1459 3688 
Q 1225 3388 1134 3005 
Q 1044 2622 1044 2188 
Q 1044 1206 1472 684 
z
" transform="scale(0.015625)"/>
      <path id="Cmr10-75" d="M 691 763 
L 691 2175 
Q 691 2347 639 2423 
Q 588 2500 491 2517 
Q 394 2534 191 2534 
L 191 2759 
L 1159 2828 
L 1159 763 
Q 1159 513 1195 373 
Q 1231 234 1348 165 
Q 1466 97 1722 97 
Q 2066 97 2269 384 
Q 2472 672 2472 1038 
L 2472 2175 
Q 2472 2347 2419 2423 
Q 2366 2500 2270 2517 
Q 2175 2534 1972 2534 
L 1972 2759 
L 2938 2828 
L 2938 581 
Q 2938 413 2989 336 
Q 3041 259 3137 242 
Q 3234 225 3438 225 
L 3438 0 
L 2491 -72 
L 2491 469 
Q 2372 228 2159 78 
Q 1947 -72 1691 -72 
Q 1231 -72 961 123 
Q 691 319 691 763 
z
" transform="scale(0.015625)"/>
      <path id="Cmr10-6d" d="M 191 0 
L 191 225 
Q 409 225 550 259 
Q 691 294 691 428 
L 691 2175 
Q 691 2347 639 2423 
Q 588 2500 491 2517 
Q 394 2534 191 2534 
L 191 2759 
L 1119 2828 
L 1119 2203 
Q 1247 2478 1498 2653 
Q 1750 2828 2047 2828 
Q 2784 2828 2913 2228 
Q 3041 2497 3287 2662 
Q 3534 2828 3828 2828 
Q 4119 2828 4317 2734 
Q 4516 2641 4616 2448 
Q 4716 2256 4716 1966 
L 4716 428 
Q 4716 294 4858 259 
Q 5000 225 5216 225 
L 5216 0 
L 3750 0 
L 3750 225 
Q 3969 225 4109 259 
Q 4250 294 4250 428 
L 4250 1947 
Q 4250 2269 4159 2466 
Q 4069 2663 3788 2663 
Q 3419 2663 3178 2366 
Q 2938 2069 2938 1691 
L 2938 428 
Q 2938 294 3078 259 
Q 3219 225 3438 225 
L 3438 0 
L 1972 0 
L 1972 225 
Q 2191 225 2331 259 
Q 2472 294 2472 428 
L 2472 1947 
Q 2472 2259 2381 2461 
Q 2291 2663 2009 2663 
Q 1638 2663 1398 2366 
Q 1159 2069 1159 1691 
L 1159 428 
Q 1159 294 1300 259 
Q 1441 225 1656 225 
L 1656 0 
L 191 0 
z
" transform="scale(0.015625)"/>
      <path id="Cmr10-62" d="M 666 0 
L 666 3788 
Q 666 3959 614 4036 
Q 563 4113 466 4130 
Q 369 4147 166 4147 
L 166 4372 
L 1113 4441 
L 1113 2438 
Q 1219 2556 1361 2645 
Q 1503 2734 1665 2781 
Q 1828 2828 1997 2828 
Q 2284 2828 2529 2712 
Q 2775 2597 2956 2394 
Q 3138 2191 3239 1927 
Q 3341 1663 3341 1381 
Q 3341 994 3152 659 
Q 2963 325 2636 126 
Q 2309 -72 1919 -72 
Q 1675 -72 1447 53 
Q 1219 178 1069 384 
L 850 0 
L 666 0 
z
M 1131 628 
Q 1238 394 1438 245 
Q 1638 97 1881 97 
Q 2213 97 2417 287 
Q 2622 478 2703 768 
Q 2784 1059 2784 1381 
Q 2784 1922 2644 2203 
Q 2581 2328 2473 2434 
Q 2366 2541 2233 2602 
Q 2100 2663 1953 2663 
Q 1697 2663 1478 2527 
Q 1259 2391 1131 2163 
L 1131 628 
z
" transform="scale(0.015625)"/>
      <path id="Cmr10-65" d="M 1594 -72 
Q 1203 -72 876 133 
Q 550 338 364 680 
Q 178 1022 178 1403 
Q 178 1778 348 2115 
Q 519 2453 823 2661 
Q 1128 2869 1503 2869 
Q 1797 2869 2014 2770 
Q 2231 2672 2372 2497 
Q 2513 2322 2584 2084 
Q 2656 1847 2656 1563 
Q 2656 1478 2591 1478 
L 738 1478 
L 738 1409 
Q 738 878 952 497 
Q 1166 116 1650 116 
Q 1847 116 2014 203 
Q 2181 291 2304 447 
Q 2428 603 2472 781 
Q 2478 803 2495 820 
Q 2513 838 2534 838 
L 2591 838 
Q 2656 838 2656 756 
Q 2566 394 2266 161 
Q 1966 -72 1594 -72 
z
M 744 1638 
L 2203 1638 
Q 2203 1878 2136 2125 
Q 2069 2372 1912 2536 
Q 1756 2700 1503 2700 
Q 1141 2700 942 2361 
Q 744 2022 744 1638 
z
" transform="scale(0.015625)"/>
      <path id="Cmr10-6c" d="M 197 0 
L 197 225 
Q 416 225 556 259 
Q 697 294 697 428 
L 697 3788 
Q 697 3959 645 4036 
Q 594 4113 497 4130 
Q 400 4147 197 4147 
L 197 4372 
L 1147 4441 
L 1147 428 
Q 1147 294 1287 259 
Q 1428 225 1644 225 
L 1644 0 
L 197 0 
z
" transform="scale(0.015625)"/>
      <path id="Cmmi10-54" d="M 294 84 
Q 297 100 308 140 
Q 319 181 336 203 
Q 353 225 384 225 
Q 934 225 1113 256 
Q 1284 300 1319 441 
L 2194 3956 
Q 2222 4034 2222 4097 
Q 2222 4147 1997 4147 
L 1625 4147 
Q 1197 4147 964 4015 
Q 731 3884 622 3668 
Q 513 3453 341 2963 
Q 319 2906 275 2906 
L 219 2906 
Q 153 2906 153 2988 
L 609 4313 
Q 622 4372 672 4372 
L 4453 4372 
Q 4519 4372 4519 4288 
L 4306 2963 
Q 4306 2944 4284 2925 
Q 4263 2906 4244 2906 
L 4184 2906 
Q 4122 2906 4122 2988 
Q 4191 3441 4191 3628 
Q 4191 3853 4097 3968 
Q 4003 4084 3853 4115 
Q 3703 4147 3463 4147 
L 3084 4147 
Q 2913 4147 2853 4115 
Q 2794 4084 2753 3928 
L 1875 416 
Q 1872 403 1870 390 
Q 1869 378 1863 359 
Q 1863 278 1959 256 
Q 2125 225 2669 225 
Q 2731 225 2731 141 
Q 2709 50 2696 25 
Q 2684 0 2625 0 
L 359 0 
Q 294 0 294 84 
z
" transform="scale(0.015625)"/>
      <path id="Cmr10-3d" d="M 481 850 
Q 428 850 393 890 
Q 359 931 359 978 
Q 359 1031 393 1068 
Q 428 1106 481 1106 
L 4500 1106 
Q 4547 1106 4581 1068 
Q 4616 1031 4616 978 
Q 4616 931 4581 890 
Q 4547 850 4500 850 
L 481 850 
z
M 481 2094 
Q 428 2094 393 2131 
Q 359 2169 359 2222 
Q 359 2269 393 2309 
Q 428 2350 481 2350 
L 4500 2350 
Q 4547 2350 4581 2309 
Q 4616 2269 4616 2222 
Q 4616 2169 4581 2131 
Q 4547 2094 4500 2094 
L 481 2094 
z
" transform="scale(0.015625)"/>
      <path id="Cmmi10-b9" d="M 178 -1203 
Q 178 -1166 184 -1153 
L 1125 2625 
Q 1153 2716 1226 2772 
Q 1300 2828 1394 2828 
Q 1475 2828 1531 2779 
Q 1588 2731 1588 2650 
Q 1588 2631 1586 2620 
Q 1584 2609 1581 2597 
L 1203 1100 
Q 1141 834 1141 641 
Q 1141 403 1253 250 
Q 1366 97 1594 97 
Q 2059 97 2413 678 
Q 2416 684 2417 687 
Q 2419 691 2419 697 
L 2881 2553 
Q 2903 2638 2981 2698 
Q 3059 2759 3150 2759 
Q 3225 2759 3283 2709 
Q 3341 2659 3341 2578 
Q 3341 2541 3334 2528 
L 2875 684 
Q 2828 503 2828 372 
Q 2828 97 3016 97 
Q 3216 97 3317 344 
Q 3419 591 3494 941 
Q 3506 978 3547 978 
L 3622 978 
Q 3647 978 3664 958 
Q 3681 938 3681 916 
Q 3569 469 3436 198 
Q 3303 -72 3003 -72 
Q 2791 -72 2627 50 
Q 2463 172 2413 378 
Q 2253 178 2039 53 
Q 1825 -72 1588 -72 
Q 1188 -72 959 116 
L 634 -1178 
Q 616 -1269 541 -1325 
Q 466 -1381 372 -1381 
Q 294 -1381 236 -1332 
Q 178 -1284 178 -1203 
z
" transform="scale(0.015625)"/>
      <path id="Cmsy10-a1" d="M 653 1472 
Q 600 1472 565 1512 
Q 531 1553 531 1600 
Q 531 1647 565 1687 
Q 600 1728 653 1728 
L 4325 1728 
Q 4375 1728 4408 1687 
Q 4441 1647 4441 1600 
Q 4441 1553 4408 1512 
Q 4375 1472 4325 1472 
L 653 1472 
z
" transform="scale(0.015625)"/>
      <path id="Cmmi10-af" d="M 172 -1241 
Q 153 -1241 137 -1219 
Q 122 -1197 122 -1178 
L 1106 2778 
Q 1191 3097 1353 3397 
Q 1516 3697 1761 3955 
Q 2006 4213 2300 4363 
Q 2594 4513 2925 4513 
Q 3163 4513 3355 4408 
Q 3547 4303 3658 4114 
Q 3769 3925 3769 3688 
Q 3769 3459 3681 3251 
Q 3594 3044 3437 2864 
Q 3281 2684 3103 2572 
Q 3206 2506 3287 2404 
Q 3369 2303 3419 2192 
Q 3469 2081 3497 1945 
Q 3525 1809 3525 1691 
Q 3525 1363 3384 1044 
Q 3244 725 3001 465 
Q 2759 206 2446 54 
Q 2134 -97 1806 -97 
Q 1447 -97 1159 100 
Q 872 297 763 634 
L 300 -1203 
Q 300 -1241 250 -1241 
L 172 -1241 
z
M 1819 78 
Q 2106 78 2339 267 
Q 2572 456 2723 742 
Q 2875 1028 2954 1348 
Q 3034 1669 3034 1931 
Q 3034 2256 2847 2444 
Q 2628 2363 2419 2363 
Q 1913 2363 1913 2534 
Q 1913 2759 2491 2759 
Q 2697 2759 2869 2694 
Q 3006 2800 3118 3006 
Q 3231 3213 3289 3438 
Q 3347 3663 3347 3859 
Q 3347 4069 3236 4208 
Q 3125 4347 2913 4347 
Q 2522 4347 2186 4106 
Q 1850 3866 1619 3498 
Q 1388 3131 1288 2741 
L 934 1325 
Q 900 1178 891 997 
Q 891 597 1153 337 
Q 1416 78 1819 78 
z
M 2106 2553 
Q 2203 2528 2425 2528 
Q 2534 2528 2644 2566 
Q 2638 2572 2619 2572 
Q 2550 2591 2472 2591 
Q 2181 2591 2106 2553 
z
" transform="scale(0.015625)"/>
      <path id="Cmr10-6e" d="M 191 0 
L 191 225 
Q 409 225 550 259 
Q 691 294 691 428 
L 691 2175 
Q 691 2347 639 2423 
Q 588 2500 491 2517 
Q 394 2534 191 2534 
L 191 2759 
L 1119 2828 
L 1119 2203 
Q 1247 2478 1498 2653 
Q 1750 2828 2047 2828 
Q 2491 2828 2714 2615 
Q 2938 2403 2938 1966 
L 2938 428 
Q 2938 294 3078 259 
Q 3219 225 3438 225 
L 3438 0 
L 1972 0 
L 1972 225 
Q 2191 225 2331 259 
Q 2472 294 2472 428 
L 2472 1947 
Q 2472 2259 2381 2461 
Q 2291 2663 2009 2663 
Q 1638 2663 1398 2366 
Q 1159 2069 1159 1691 
L 1159 428 
Q 1159 294 1300 259 
Q 1441 225 1656 225 
L 1656 0 
L 191 0 
z
" transform="scale(0.015625)"/>
      <path id="Cmr10-28" d="M 1984 -1588 
Q 1628 -1306 1370 -942 
Q 1113 -578 948 -165 
Q 784 247 703 697 
Q 622 1147 622 1600 
Q 622 2059 703 2509 
Q 784 2959 951 3375 
Q 1119 3791 1378 4153 
Q 1638 4516 1984 4788 
Q 1984 4800 2016 4800 
L 2075 4800 
Q 2094 4800 2109 4783 
Q 2125 4766 2125 4744 
Q 2125 4716 2113 4703 
Q 1800 4397 1592 4047 
Q 1384 3697 1257 3301 
Q 1131 2906 1075 2482 
Q 1019 2059 1019 1600 
Q 1019 -434 2106 -1491 
Q 2125 -1509 2125 -1544 
Q 2125 -1559 2108 -1579 
Q 2091 -1600 2075 -1600 
L 2016 -1600 
Q 1984 -1600 1984 -1588 
z
" transform="scale(0.015625)"/>
      <path id="Cmr10-31" d="M 594 0 
L 594 225 
Q 1394 225 1394 428 
L 1394 3788 
Q 1063 3628 556 3628 
L 556 3853 
Q 1341 3853 1741 4263 
L 1831 4263 
Q 1853 4263 1873 4245 
Q 1894 4228 1894 4206 
L 1894 428 
Q 1894 225 2694 225 
L 2694 0 
L 594 0 
z
" transform="scale(0.015625)"/>
      <path id="Cmmi10-3d" d="M 359 -1472 
Q 359 -1453 366 -1447 
L 2591 4722 
Q 2603 4759 2634 4779 
Q 2666 4800 2706 4800 
Q 2763 4800 2798 4765 
Q 2834 4731 2834 4672 
L 2834 4647 
L 609 -1522 
Q 572 -1600 488 -1600 
Q 434 -1600 396 -1562 
Q 359 -1525 359 -1472 
z
" transform="scale(0.015625)"/>
      <path id="Cmr10-29" d="M 416 -1600 
Q 359 -1600 359 -1544 
Q 359 -1516 372 -1503 
Q 1466 -434 1466 1600 
Q 1466 3634 384 4691 
Q 359 4706 359 4744 
Q 359 4766 376 4783 
Q 394 4800 416 4800 
L 475 4800 
Q 494 4800 506 4788 
Q 966 4425 1272 3906 
Q 1578 3388 1720 2800 
Q 1863 2213 1863 1600 
Q 1863 1147 1786 708 
Q 1709 269 1542 -157 
Q 1375 -584 1119 -945 
Q 863 -1306 506 -1588 
Q 494 -1600 475 -1600 
L 416 -1600 
z
" transform="scale(0.015625)"/>
     </defs>
     <use xlink:href="#Cmmi10-78" transform="translate(0 0.375)"/>
     <use xlink:href="#Cmr10-47" transform="translate(63.383359 38.639063) scale(0.7)"/>
     <use xlink:href="#Cmr10-75" transform="translate(118.275937 38.639063) scale(0.7)"/>
     <use xlink:href="#Cmr10-6d" transform="translate(157.138242 38.639063) scale(0.7)"/>
     <use xlink:href="#Cmr10-62" transform="translate(215.448789 38.639063) scale(0.7)"/>
     <use xlink:href="#Cmr10-65" transform="translate(254.311094 38.639063) scale(0.7)"/>
     <use xlink:href="#Cmr10-6c" transform="translate(285.38043 38.639063) scale(0.7)"/>
     <use xlink:href="#Cmmi10-54" transform="translate(57.080078 -25.134375) scale(0.7)"/>
     <use xlink:href="#Cmr10-3d" transform="translate(328.69625 0.375)"/>
     <use xlink:href="#Cmmi10-b9" transform="translate(423.940391 0.375)"/>
     <use xlink:href="#Cmsy10-a1" transform="translate(501.704062 0.375)"/>
     <use xlink:href="#Cmmi10-af" transform="translate(596.948203 0.375)"/>
     <use xlink:href="#Cmr10-6c" transform="translate(668.074798 0.375)"/>
     <use xlink:href="#Cmr10-6e" transform="translate(695.760345 0.375)"/>
     <use xlink:href="#Cmr10-28" transform="translate(751.277923 0.375)"/>
     <use xlink:href="#Cmsy10-a1" transform="translate(790.096282 0.375)"/>
     <use xlink:href="#Cmr10-6c" transform="translate(867.781829 0.375)"/>
     <use xlink:href="#Cmr10-6e" transform="translate(895.467376 0.375)"/>
     <use xlink:href="#Cmr10-28" transform="translate(950.984954 0.375)"/>
     <use xlink:href="#Cmr10-31" transform="translate(989.803313 0.375)"/>
     <use xlink:href="#Cmsy10-a1" transform="translate(1057.361907 0.375)"/>
     <use xlink:href="#Cmr10-31" transform="translate(1152.606048 0.375)"/>
     <use xlink:href="#Cmmi10-3d" transform="translate(1202.606048 0.375)"/>
     <use xlink:href="#Cmmi10-54" transform="translate(1252.606048 0.375)"/>
     <use xlink:href="#Cmr10-29" transform="translate(1311.004485 0.375)"/>
     <use xlink:href="#Cmr10-29" transform="translate(1349.822845 0.375)"/>
    </g>
   </g>
   <g id="text_3">
    <!-- $x_T^{\text{GEV}}=\mu+\frac{\sigma}{\xi}(( -\ln(1-1/T) )^{-\xi}-1)$ -->
    <g style="fill: #93c5fd" transform="translate(223.05 271.1592) scale(0.3 -0.3)">
     <defs>
      <path id="Cmr10-45" d="M 197 0 
L 197 225 
Q 856 225 856 428 
L 856 3944 
Q 856 4147 197 4147 
L 197 4372 
L 3816 4372 
L 3994 2906 
L 3809 2906 
Q 3741 3459 3617 3709 
Q 3494 3959 3222 4053 
Q 2950 4147 2406 4147 
L 1778 4147 
Q 1663 4147 1598 4137 
Q 1534 4128 1493 4083 
Q 1453 4038 1453 3944 
L 1453 2381 
L 1925 2381 
Q 2250 2381 2411 2436 
Q 2572 2491 2633 2645 
Q 2694 2800 2694 3128 
L 2881 3128 
L 2881 1409 
L 2694 1409 
Q 2694 1734 2633 1890 
Q 2572 2047 2411 2101 
Q 2250 2156 1925 2156 
L 1453 2156 
L 1453 428 
Q 1453 291 1531 258 
Q 1609 225 1778 225 
L 2456 225 
Q 2900 225 3173 295 
Q 3447 366 3598 530 
Q 3750 694 3833 955 
Q 3916 1216 3988 1678 
L 4172 1678 
L 3903 0 
L 197 0 
z
" transform="scale(0.015625)"/>
      <path id="Cmr10-56" d="M 2253 -72 
L 744 3944 
Q 688 4078 528 4112 
Q 369 4147 122 4147 
L 122 4372 
L 1881 4372 
L 1881 4147 
Q 1350 4147 1350 3981 
Q 1353 3972 1354 3964 
Q 1356 3956 1356 3944 
L 2584 678 
L 3744 3769 
Q 3756 3794 3756 3847 
Q 3756 4003 3612 4075 
Q 3469 4147 3291 4147 
L 3291 4372 
L 4672 4372 
L 4672 4147 
Q 4431 4147 4248 4058 
Q 4066 3969 3988 3769 
L 2541 -72 
Q 2522 -141 2438 -141 
L 2356 -141 
Q 2272 -141 2253 -72 
z
" transform="scale(0.015625)"/>
      <path id="Cmr10-2b" d="M 481 1472 
Q 428 1472 393 1512 
Q 359 1553 359 1600 
Q 359 1647 393 1687 
Q 428 1728 481 1728 
L 2363 1728 
L 2363 3616 
Q 2363 3666 2400 3698 
Q 2438 3731 2491 3731 
Q 2538 3731 2578 3698 
Q 2619 3666 2619 3616 
L 2619 1728 
L 4500 1728 
Q 4547 1728 4581 1687 
Q 4616 1647 4616 1600 
Q 4616 1553 4581 1512 
Q 4547 1472 4500 1472 
L 2619 1472 
L 2619 -416 
Q 2619 -466 2578 -498 
Q 2538 -531 2491 -531 
Q 2438 -531 2400 -498 
Q 2363 -466 2363 -416 
L 2363 1472 
L 481 1472 
z
" transform="scale(0.015625)"/>
      <path id="Cmmi10-be" d="M 1197 -72 
Q 913 -72 692 64 
Q 472 200 351 431 
Q 231 663 231 941 
Q 231 1238 365 1566 
Q 500 1894 733 2166 
Q 966 2438 1259 2598 
Q 1553 2759 1863 2759 
L 3475 2759 
Q 3541 2759 3587 2715 
Q 3634 2672 3634 2597 
Q 3634 2503 3567 2433 
Q 3500 2363 3406 2363 
L 2625 2363 
Q 2809 2088 2809 1697 
Q 2809 1375 2684 1062 
Q 2559 750 2337 492 
Q 2116 234 1820 81 
Q 1525 -72 1197 -72 
z
M 1203 97 
Q 1553 97 1823 370 
Q 2094 644 2237 1039 
Q 2381 1434 2381 1772 
Q 2381 2047 2229 2205 
Q 2078 2363 1806 2363 
Q 1434 2363 1173 2113 
Q 913 1863 783 1484 
Q 653 1106 653 756 
Q 653 481 798 289 
Q 944 97 1203 97 
z
" transform="scale(0.015625)"/>
      <path id="Cmmi10-bb" d="M 1044 -997 
Q 1053 -922 1131 -922 
Q 1138 -922 1252 -984 
Q 1366 -1047 1503 -1097 
Q 1641 -1147 1778 -1147 
Q 1897 -1147 1978 -1045 
Q 2059 -944 2059 -825 
Q 2059 -656 1881 -588 
L 794 -166 
Q 513 -56 330 161 
Q 147 378 147 653 
Q 147 900 278 1167 
Q 409 1434 615 1651 
Q 822 1869 1056 2003 
Q 869 2116 764 2292 
Q 659 2469 659 2681 
Q 659 2906 751 3100 
Q 844 3294 1003 3453 
Q 1163 3613 1359 3723 
Q 1556 3834 1759 3891 
Q 1728 4022 1728 4128 
Q 1728 4475 1863 4475 
Q 1897 4475 1922 4450 
Q 1947 4425 1947 4391 
Q 1947 4359 1930 4253 
Q 1913 4147 1913 4122 
Q 1913 4013 1941 3928 
Q 2106 3963 2259 3963 
Q 2847 3963 2847 3781 
Q 2847 3566 2194 3566 
Q 1994 3566 1869 3700 
Q 1684 3606 1528 3434 
Q 1372 3263 1284 3052 
Q 1197 2841 1197 2625 
Q 1197 2325 1369 2144 
Q 1597 2222 1825 2222 
Q 2413 2222 2413 2041 
Q 2413 1825 1759 1825 
Q 1494 1825 1259 1906 
Q 975 1753 737 1440 
Q 500 1128 500 838 
Q 500 650 636 508 
Q 772 366 972 281 
L 2106 -159 
Q 2253 -216 2345 -339 
Q 2438 -463 2438 -622 
Q 2438 -884 2236 -1098 
Q 2034 -1313 1772 -1313 
Q 1691 -1313 1506 -1269 
Q 1322 -1225 1183 -1153 
Q 1044 -1081 1044 -997 
z
M 1563 2022 
Q 1647 1991 1772 1991 
Q 2081 1991 2216 2028 
Q 2094 2053 1819 2053 
Q 1709 2053 1563 2022 
z
M 2053 3769 
Q 2109 3731 2209 3731 
Q 2516 3731 2650 3769 
L 2053 3769 
z
" transform="scale(0.015625)"/>
     </defs>
     <use xlink:href="#Cmmi10-78" transform="translate(0 0.375)"/>
     <use xlink:href="#Cmr10-47" transform="translate(63.383359 38.639063) scale(0.7)"/>
     <use xlink:href="#Cmr10-45" transform="translate(118.275937 38.639063) scale(0.7)"/>
     <use xlink:href="#Cmr10-56" transform="translate(165.888242 38.639063) scale(0.7)"/>
     <use xlink:href="#Cmmi10-54" transform="translate(57.080078 -25.134375) scale(0.7)"/>
     <use xlink:href="#Cmr10-3d" transform="translate(242.32418 0.375)"/>
     <use xlink:href="#Cmmi10-b9" transform="translate(337.56832 0.375)"/>
     <use xlink:href="#Cmr10-2b" transform="translate(415.331992 0.375)"/>
     <use xlink:href="#Cmmi10-be" transform="translate(510.576133 38.6625) scale(0.7)"/>
     <use xlink:href="#Cmmi10-bb" transform="translate(515.576133 -42.320312) scale(0.7)"/>
     <use xlink:href="#Cmr10-28" transform="translate(563.032187 0.375)"/>
     <use xlink:href="#Cmr10-28" transform="translate(601.850547 0.375)"/>
     <use xlink:href="#Cmsy10-a1" transform="translate(640.668906 0.375)"/>
     <use xlink:href="#Cmr10-6c" transform="translate(718.354453 0.375)"/>
     <use xlink:href="#Cmr10-6e" transform="translate(746.04 0.375)"/>
     <use xlink:href="#Cmr10-28" transform="translate(801.557578 0.375)"/>
     <use xlink:href="#Cmr10-31" transform="translate(840.375937 0.375)"/>
     <use xlink:href="#Cmsy10-a1" transform="translate(907.934531 0.375)"/>
     <use xlink:href="#Cmr10-31" transform="translate(1003.178672 0.375)"/>
     <use xlink:href="#Cmmi10-3d" transform="translate(1053.178672 0.375)"/>
     <use xlink:href="#Cmmi10-54" transform="translate(1103.178672 0.375)"/>
     <use xlink:href="#Cmr10-29" transform="translate(1161.577109 0.375)"/>
     <use xlink:href="#Cmr10-29" transform="translate(1200.395469 0.375)"/>
     <use xlink:href="#Cmsy10-a1" transform="translate(1243.677969 38.639063) scale(0.7)"/>
     <use xlink:href="#Cmmi10-bb" transform="translate(1298.057852 38.639063) scale(0.7)"/>
     <use xlink:href="#Cmsy10-a1" transform="translate(1352.584609 0.375)"/>
     <use xlink:href="#Cmr10-31" transform="translate(1447.82875 0.375)"/>
     <use xlink:href="#Cmr10-29" transform="translate(1497.82875 0.375)"/>
     <path d="M 510.576133 12.875 
L 510.576133 19.125 
L 550.532187 19.125 
L 550.532187 12.875 
L 510.576133 12.875 
z
"/>
    </g>
   </g>
   <g id="text_4">
    <!-- 示例：20年一遇 (T=20) 的防洪设计参考水位 -->
    <g style="fill: #d1d5db" transform="translate(234.473125 362.530594) scale(0.22 -0.22)">
     <defs>
      <path id="MicrosoftYaHei-793a" d="M 100 3072 
L 6300 3072 
L 6300 2603 
L 3619 2603 
L 3619 78 
Q 3619 -703 2800 -709 
Q 2366 -709 1825 -703 
Q 1788 -447 1731 -128 
Q 2225 -178 2663 -178 
Q 3088 -178 3088 241 
L 3088 2603 
L 100 2603 
L 100 3072 
z
M 675 4916 
L 5744 4916 
L 5744 4447 
L 675 4447 
L 675 4916 
z
M 4413 1847 
L 4831 2128 
Q 5600 1184 6319 159 
L 5863 -141 
Q 5088 991 4413 1847 
z
M 1481 2141 
L 1938 1884 
Q 1281 747 538 -278 
Q 344 -134 125 16 
Q 825 922 1481 2141 
z
" transform="scale(0.015625)"/>
      <path id="MicrosoftYaHei-4f8b" d="M 2381 1841 
L 2631 2191 
Q 2916 1997 3247 1738 
Q 3488 2378 3581 3128 
L 2703 3128 
Q 2350 1984 1831 1291 
Q 1700 1491 1531 1678 
Q 2238 2694 2578 4522 
L 1900 4522 
L 1900 4959 
L 4319 4959 
L 4319 4522 
L 3044 4522 
Q 2947 4009 2828 3559 
L 4044 3559 
L 4044 3128 
Q 3788 666 2038 -822 
Q 1900 -634 1694 -416 
Q 2578 297 3063 1303 
Q 2753 1556 2381 1841 
z
M 88 2291 
Q 894 3659 1281 5322 
L 1744 5234 
Q 1578 4534 1325 3853 
L 1325 -809 
L 900 -809 
L 900 2847 
Q 625 2275 288 1716 
Q 213 1966 88 2291 
z
M 5575 5303 
L 6031 5303 
L 6031 84 
Q 6031 -391 5881 -566 
Q 5750 -728 5356 -734 
Q 5088 -741 4488 -722 
Q 4463 -466 4400 -203 
Q 4881 -253 5188 -253 
Q 5431 -259 5500 -166 
Q 5575 -84 5575 234 
L 5575 5303 
z
M 4913 653 
L 4469 653 
L 4469 4322 
L 4913 4322 
L 4913 653 
z
" transform="scale(0.015625)"/>
      <path id="MicrosoftYaHei-ff1a" d="M 1606 3531 
Q 1772 3531 1890 3415 
Q 2009 3300 2009 3138 
Q 2009 2975 1893 2858 
Q 1778 2741 1606 2741 
Q 1434 2741 1318 2858 
Q 1203 2975 1203 3138 
Q 1203 3300 1322 3415 
Q 1441 3531 1606 3531 
z
M 1606 716 
Q 1772 716 1890 600 
Q 2009 484 2009 319 
Q 2009 150 1890 36 
Q 1772 -78 1606 -78 
Q 1441 -78 1322 36 
Q 1203 150 1203 319 
Q 1203 484 1322 600 
Q 1441 716 1606 716 
z
" transform="scale(0.015625)"/>
      <path id="MicrosoftYaHei-32" d="M 2666 3572 
Q 2666 3963 2419 4186 
Q 2172 4409 1747 4409 
Q 1447 4409 1140 4256 
Q 834 4103 569 3819 
L 569 4413 
Q 806 4659 1107 4790 
Q 1409 4922 1816 4922 
Q 2472 4922 2872 4570 
Q 3272 4219 3272 3619 
Q 3272 3084 3026 2693 
Q 2781 2303 2188 1894 
Q 1581 1475 1376 1294 
Q 1172 1113 1090 947 
Q 1009 781 1009 544 
L 3416 544 
L 3416 0 
L 372 0 
L 372 241 
Q 372 659 486 951 
Q 600 1244 862 1520 
Q 1125 1797 1681 2184 
Q 2250 2584 2458 2886 
Q 2666 3188 2666 3572 
z
" transform="scale(0.015625)"/>
      <path id="MicrosoftYaHei-30" d="M 284 2325 
Q 284 3606 709 4264 
Q 1134 4922 1941 4922 
Q 3478 4922 3478 2441 
Q 3478 1216 3045 567 
Q 2613 -81 1831 -81 
Q 1094 -81 689 534 
Q 284 1150 284 2325 
z
M 909 2353 
Q 909 425 1888 425 
Q 2850 425 2850 2384 
Q 2850 4413 1906 4413 
Q 909 4413 909 2353 
z
" transform="scale(0.015625)"/>
      <path id="MicrosoftYaHei-5e74" d="M 119 1278 
L 1125 1278 
L 1125 3066 
L 3338 3066 
L 3338 4178 
L 1500 4178 
Q 1078 3419 556 2778 
Q 394 2953 169 3128 
Q 1056 4128 1500 5372 
L 2013 5228 
Q 1881 4919 1738 4628 
L 6038 4628 
L 6038 4178 
L 3844 4178 
L 3844 3066 
L 5931 3066 
L 5931 2628 
L 3844 2628 
L 3844 1278 
L 6319 1278 
L 6319 828 
L 3844 828 
L 3844 -859 
L 3338 -859 
L 3338 828 
L 119 828 
L 119 1278 
z
M 1619 1278 
L 3338 1278 
L 3338 2628 
L 1619 2628 
L 1619 1278 
z
" transform="scale(0.015625)"/>
      <path id="MicrosoftYaHei-4e00" d="M 100 2703 
L 6313 2703 
L 6313 2153 
L 100 2153 
L 100 2703 
z
" transform="scale(0.015625)"/>
      <path id="MicrosoftYaHei-9047" d="M 4550 1659 
L 4913 1828 
Q 5194 1334 5425 866 
L 5025 678 
Q 4959 838 4888 997 
Q 3913 900 2675 747 
L 2613 1209 
Q 3147 1241 3719 1288 
L 3719 1959 
L 2381 1959 
L 2381 91 
L 1944 91 
L 1944 2359 
L 3719 2359 
L 3719 2841 
L 2619 2841 
L 2619 2647 
L 2194 2647 
L 2194 5059 
L 5688 5059 
L 5688 2647 
L 5263 2647 
L 5263 2841 
L 4156 2841 
L 4156 2359 
L 5994 2359 
L 5994 741 
Q 5994 34 5338 28 
Q 5013 22 4531 34 
Q 4506 241 4444 484 
Q 4894 447 5194 447 
Q 5556 447 5556 778 
L 5556 1959 
L 4156 1959 
L 4156 1328 
Q 4422 1353 4697 1381 
Q 4628 1522 4550 1659 
z
M 2656 -234 
L 4088 -266 
L 6300 -209 
Q 6231 -416 6125 -703 
L 3844 -709 
L 2606 -678 
Q 1525 -672 1088 66 
Q 825 -191 331 -816 
L 75 -297 
Q 644 272 888 513 
L 888 2653 
L 138 2653 
L 138 3091 
L 1350 3091 
L 1350 428 
Q 1725 -222 2656 -234 
z
M 856 5203 
Q 1288 4641 1731 4022 
L 1288 3709 
Q 875 4378 456 4934 
L 856 5203 
z
M 4156 3216 
L 5263 3216 
L 5263 3778 
L 4156 3778 
L 4156 3216 
z
M 2619 3216 
L 3719 3216 
L 3719 3778 
L 2619 3778 
L 2619 3216 
z
M 5263 4684 
L 4156 4684 
L 4156 4128 
L 5263 4128 
L 5263 4684 
z
M 2619 4128 
L 3719 4128 
L 3719 4684 
L 2619 4684 
L 2619 4128 
z
" transform="scale(0.015625)"/>
      <path id="MicrosoftYaHei-20" transform="scale(0.015625)"/>
      <path id="MicrosoftYaHei-28" d="M 1531 -1100 
Q 478 100 478 1847 
Q 478 3594 1531 4841 
L 2072 4841 
Q 1016 3544 1016 1853 
Q 1016 166 2066 -1100 
L 1531 -1100 
z
" transform="scale(0.015625)"/>
      <path id="MicrosoftYaHei-54" d="M 3550 4284 
L 2153 4284 
L 2153 0 
L 1525 0 
L 1525 4284 
L 134 4284 
L 134 4841 
L 3550 4841 
L 3550 4284 
z
" transform="scale(0.015625)"/>
      <path id="MicrosoftYaHei-3d" d="M 3972 2497 
L 788 2497 
L 788 2969 
L 3972 2969 
L 3972 2497 
z
M 3972 1053 
L 788 1053 
L 788 1525 
L 3972 1525 
L 3972 1053 
z
" transform="scale(0.015625)"/>
      <path id="MicrosoftYaHei-29" d="M 78 -1100 
Q 1131 163 1131 1853 
Q 1131 3547 72 4841 
L 616 4841 
Q 1672 3603 1672 1847 
Q 1672 91 616 -1100 
L 78 -1100 
z
" transform="scale(0.015625)"/>
      <path id="MicrosoftYaHei-7684" d="M 356 4284 
L 988 4284 
Q 1219 4853 1369 5322 
L 1894 5172 
Q 1697 4694 1513 4284 
L 2763 4284 
L 2763 -691 
L 2263 -691 
L 2263 -203 
L 856 -203 
L 856 -734 
L 356 -734 
L 356 4284 
z
M 2856 3003 
Q 3444 3934 3850 5322 
L 4375 5191 
Q 4216 4719 4050 4303 
L 6063 4303 
Q 5988 1091 5938 259 
Q 5894 -722 4906 -722 
Q 4338 -722 3750 -684 
Q 3713 -372 3650 -128 
L 3669 -128 
Q 4294 -216 4813 -216 
Q 5381 -216 5425 384 
Q 5494 1316 5525 3834 
L 3850 3834 
Q 3578 3231 3288 2772 
Q 3119 2891 2856 3003 
z
M 856 266 
L 2263 266 
L 2263 1847 
L 856 1847 
L 856 266 
z
M 2263 3816 
L 856 3816 
L 856 2297 
L 2263 2297 
L 2263 3816 
z
M 3406 2578 
L 3788 2859 
Q 4481 2041 4894 1441 
L 4431 1116 
Q 3988 1841 3406 2578 
z
" transform="scale(0.015625)"/>
      <path id="MicrosoftYaHei-9632" d="M 2300 4341 
L 4181 4341 
Q 3941 4716 3656 5103 
L 4063 5366 
Q 4369 4978 4675 4528 
L 4375 4341 
L 6325 4341 
L 6325 3878 
L 3744 3878 
Q 3744 3350 3725 2903 
L 5794 2903 
Q 5756 1316 5706 391 
Q 5681 -653 4706 -653 
Q 4244 -653 3763 -641 
Q 3725 -403 3663 -84 
Q 4231 -147 4600 -147 
Q 5194 -147 5219 472 
Q 5263 1116 5288 2441 
L 3697 2441 
Q 3600 141 2025 -872 
Q 1894 -691 1694 -441 
Q 2656 197 2956 1097 
Q 3247 1866 3238 3878 
L 2300 3878 
L 2300 4341 
z
M 2269 1628 
Q 2450 428 1675 278 
Q 1425 228 1056 266 
Q 1006 522 919 791 
Q 1250 709 1494 741 
Q 1938 816 1781 1634 
Q 1694 2134 1231 2734 
Q 1531 3716 1738 4516 
L 869 4516 
L 869 -816 
L 400 -816 
L 400 4953 
L 2250 4953 
L 2250 4522 
L 1725 2816 
Q 2200 2159 2269 1628 
z
" transform="scale(0.015625)"/>
      <path id="MicrosoftYaHei-53c2" d="M 256 3159 
L 2234 3159 
Q 2428 3391 2600 3641 
Q 2031 3609 1469 3578 
Q 1288 3566 988 3522 
L 825 4003 
Q 1144 4091 1400 4291 
Q 1944 4697 2606 5372 
L 3100 5109 
Q 2394 4497 1738 4034 
Q 2906 4066 4397 4122 
Q 4072 4388 3744 4628 
L 4050 4947 
Q 5006 4278 5606 3772 
L 5256 3397 
Q 5053 3575 4853 3747 
Q 3778 3700 2719 3647 
L 3069 3497 
Q 2944 3322 2813 3159 
L 6144 3159 
L 6144 2741 
L 4353 2741 
Q 5128 1941 6325 1578 
Q 6119 1297 6000 1109 
Q 4644 1697 3828 2741 
L 2453 2741 
Q 1550 1750 363 1116 
Q 231 1328 56 1509 
Q 1091 2009 1841 2741 
L 256 2741 
L 256 3159 
z
M 4969 1016 
L 5313 697 
Q 3525 -509 1019 -891 
Q 906 -666 781 -478 
Q 3331 -59 4969 1016 
z
M 4231 1703 
L 4525 1353 
Q 2813 391 1119 47 
Q 988 341 913 466 
Q 2694 828 4231 1703 
z
M 3556 2453 
L 3863 2128 
Q 2694 1397 1388 1009 
Q 1288 1216 1150 1422 
Q 2344 1734 3556 2453 
z
" transform="scale(0.015625)"/>
      <path id="MicrosoftYaHei-8003" d="M 225 3334 
L 2413 3334 
L 2413 4128 
L 738 4128 
L 738 4553 
L 2413 4553 
L 2413 5303 
L 2900 5303 
L 2900 4553 
L 4213 4553 
L 4213 4128 
L 2900 4128 
L 2900 3334 
L 3534 3334 
Q 4500 4041 5325 4884 
L 5706 4559 
Q 5000 3900 4278 3334 
L 6200 3334 
L 6200 2903 
L 3709 2903 
Q 3350 2641 2991 2403 
L 5769 2403 
L 5769 1978 
L 2859 1978 
L 2594 1428 
L 5100 1428 
Q 4975 366 4919 128 
Q 4775 -678 3931 -678 
Q 3300 -678 2563 -653 
Q 2519 -384 2431 -109 
Q 3181 -172 3838 -172 
Q 4325 -172 4431 253 
Q 4488 484 4556 1003 
L 2100 1003 
L 2100 1428 
L 2378 1978 
L 2316 1978 
Q 1353 1403 369 984 
Q 231 1222 69 1434 
Q 1606 2053 2906 2903 
L 225 2903 
L 225 3334 
z
" transform="scale(0.015625)"/>
     </defs>
     <use xlink:href="#MicrosoftYaHei-793a"/>
     <use xlink:href="#MicrosoftYaHei-4f8b" transform="translate(100 0)"/>
     <use xlink:href="#MicrosoftYaHei-ff1a" transform="translate(200 0)"/>
     <use xlink:href="#MicrosoftYaHei-32" transform="translate(300 0)"/>
     <use xlink:href="#MicrosoftYaHei-30" transform="translate(358.642578 0)"/>
     <use xlink:href="#MicrosoftYaHei-5e74" transform="translate(417.285156 0)"/>
     <use xlink:href="#MicrosoftYaHei-4e00" transform="translate(517.285156 0)"/>
     <use xlink:href="#MicrosoftYaHei-9047" transform="translate(617.285156 0)"/>
     <use xlink:href="#MicrosoftYaHei-20" transform="translate(717.285156 0)"/>
     <use xlink:href="#MicrosoftYaHei-28" transform="translate(746.875 0)"/>
     <use xlink:href="#MicrosoftYaHei-54" transform="translate(780.273438 0)"/>
     <use xlink:href="#MicrosoftYaHei-3d" transform="translate(837.597656 0)"/>
     <use xlink:href="#MicrosoftYaHei-32" transform="translate(911.767578 0)"/>
     <use xlink:href="#MicrosoftYaHei-30" transform="translate(970.410156 0)"/>
     <use xlink:href="#MicrosoftYaHei-29" transform="translate(1029.052734 0)"/>
     <use xlink:href="#MicrosoftYaHei-20" transform="translate(1062.451172 0)"/>
     <use xlink:href="#MicrosoftYaHei-7684" transform="translate(1092.041016 0)"/>
     <use xlink:href="#MicrosoftYaHei-9632" transform="translate(1192.041016 0)"/>
     <use xlink:href="#MicrosoftYaHei-6d2a" transform="translate(1292.041016 0)"/>
     <use xlink:href="#MicrosoftYaHei-8bbe" transform="translate(1392.041016 0)"/>
     <use xlink:href="#MicrosoftYaHei-8ba1" transform="translate(1492.041016 0)"/>
     <use xlink:href="#MicrosoftYaHei-53c2" transform="translate(1592.041016 0)"/>
     <use xlink:href="#MicrosoftYaHei-8003" transform="translate(1692.041016 0)"/>
     <use xlink:href="#MicrosoftYaHei-6c34" transform="translate(1792.041016 0)"/>
     <use xlink:href="#MicrosoftYaHei-4f4d" transform="translate(1892.041016 0)"/>
    </g>
   </g>
  </g>
 </g>
</svg>
