<?xml version="1.0" encoding="utf-8" standalone="no"?>
<!DOCTYPE svg PUBLIC "-//W3C//DTD SVG 1.1//EN"
  "http://www.w3.org/Graphics/SVG/1.1/DTD/svg11.dtd">
<svg xmlns:xlink="http://www.w3.org/1999/xlink" width="939.644687pt" height="539.223437pt" viewBox="0 0 939.644687 539.223437" xmlns="http://www.w3.org/2000/svg" version="1.1">
 <metadata>
  <rdf:RDF xmlns:dc="http://purl.org/dc/elements/1.1/" xmlns:cc="http://creativecommons.org/ns#" xmlns:rdf="http://www.w3.org/1999/02/22-rdf-syntax-ns#">
   <cc:Work>
    <dc:type rdf:resource="http://purl.org/dc/dcmitype/StillImage"/>
    <dc:date>2025-11-04T16:06:02.913161</dc:date>
    <dc:format>image/svg+xml</dc:format>
    <dc:creator>
     <cc:Agent>
      <dc:title>Matplotlib v3.10.3, https://matplotlib.org/</dc:title>
     </cc:Agent>
    </dc:creator>
   </cc:Work>
  </rdf:RDF>
 </metadata>
 <defs>
  <style type="text/css">*{stroke-linejoin: round; stroke-linecap: butt}</style>
 </defs>
 <g id="figure_1">
  <g id="patch_1">
   <path d="M 0 539.223437 
L 939.644687 539.223437 
L 939.644687 0 
L 0 0 
z
" style="fill: #0b1221"/>
  </g>
  <g id="axes_1">
   <g id="text_1">
    <!-- 广义极值分布（GEV） -->
    <g style="fill: #00f3ff" transform="translate(286.650937 97.595625) scale(0.4 -0.4)">
     <defs>
      <path id="MicrosoftYaHei-5e7f" d="M 975 4384 
L 3466 4384 
Q 3291 4684 3000 5097 
L 3456 5359 
Q 3763 4966 4000 4591 
L 3650 4384 
L 6213 4384 
L 6213 3878 
L 1531 3878 
L 1531 2328 
Q 1538 366 513 -797 
Q 369 -641 63 -403 
Q 975 591 975 2391 
L 975 4384 
z
" transform="scale(0.015625)"/>
      <path id="MicrosoftYaHei-4e49" d="M 4869 4891 
L 5406 4791 
Q 4991 2394 3603 966 
Q 4563 209 6325 -197 
Q 6056 -516 5888 -741 
Q 4113 -163 3203 594 
Q 2275 -166 444 -816 
Q 306 -584 100 -328 
Q 1938 216 2825 950 
Q 1553 2241 956 4703 
L 1444 4891 
Q 1981 2575 3213 1316 
Q 4588 2750 4869 4891 
z
M 2500 5128 
L 2956 5347 
Q 3431 4547 3750 3859 
L 3263 3597 
Q 2881 4441 2500 5128 
z
" transform="scale(0.015625)"/>
      <path id="MicrosoftYaHei-6781" d="M 3263 2528 
Q 3163 466 1994 -828 
Q 1813 -641 1613 -478 
Q 2406 391 2638 1409 
Q 2863 2284 2844 4472 
L 2288 4472 
L 2288 4916 
L 5406 4916 
L 5406 4447 
L 4800 3191 
L 5888 3191 
L 5888 2728 
Q 5531 1578 4881 709 
Q 5550 72 6331 -316 
Q 6131 -497 5913 -778 
Q 5169 -316 4556 309 
Q 3919 -391 3063 -872 
Q 2888 -641 2713 -472 
Q 3600 34 4213 691 
Q 3638 1403 3263 2528 
z
M 81 1359 
Q 731 2372 1000 3578 
L 125 3578 
L 125 3997 
L 1006 3997 
L 1006 5234 
L 1438 5234 
L 1438 3997 
L 2250 3997 
L 2250 3578 
L 1438 3578 
L 1438 2659 
L 1638 2859 
Q 2088 2466 2456 2097 
L 2131 1759 
Q 1825 2103 1438 2484 
L 1438 -834 
L 1006 -834 
L 1006 2384 
Q 700 1409 281 809 
Q 200 1078 81 1359 
z
M 4281 3203 
L 4881 4472 
L 3319 4472 
Q 3319 4016 3313 3616 
Q 3800 1978 4538 1084 
Q 5106 1828 5369 2747 
L 4281 2747 
L 4281 3203 
z
" transform="scale(0.015625)"/>
      <path id="MicrosoftYaHei-503c" d="M 1619 -216 
L 2250 -216 
L 2250 3653 
L 3725 3653 
L 3725 4222 
L 1913 4222 
L 1913 4647 
L 3725 4647 
L 3725 5309 
L 4200 5309 
L 4200 4647 
L 6169 4647 
L 6169 4222 
L 4200 4222 
L 4200 3653 
L 5713 3653 
L 5713 -216 
L 6306 -216 
L 6306 -641 
L 1619 -641 
L 1619 -216 
z
M 69 2247 
Q 906 3497 1369 5278 
L 1831 5141 
Q 1581 4334 1288 3628 
L 1288 -816 
L 831 -816 
L 831 2666 
Q 563 2166 263 1734 
Q 175 1997 69 2247 
z
M 2713 -216 
L 5250 -216 
L 5250 353 
L 2713 353 
L 2713 -216 
z
M 5250 3241 
L 2713 3241 
L 2713 2678 
L 5250 2678 
L 5250 3241 
z
M 2713 1716 
L 5250 1716 
L 5250 2278 
L 2713 2278 
L 2713 1716 
z
M 2713 753 
L 5250 753 
L 5250 1316 
L 2713 1316 
L 2713 753 
z
" transform="scale(0.015625)"/>
      <path id="MicrosoftYaHei-5206" d="M 900 2559 
L 5056 2559 
Q 5025 1497 4963 484 
Q 4888 -684 3856 -678 
Q 3350 -684 2788 -647 
Q 2750 -384 2700 -116 
Q 3181 -184 3775 -191 
Q 4400 -203 4463 541 
Q 4513 1216 4538 2097 
L 2616 2097 
Q 2541 1053 2181 416 
Q 1706 -422 588 -878 
Q 425 -666 231 -459 
Q 1269 -72 1725 666 
Q 2053 1225 2103 2097 
L 900 2097 
L 900 2559 
z
M 3488 5159 
L 3938 5353 
Q 4625 3678 6350 2847 
Q 6069 2553 5944 2372 
Q 4225 3366 3488 5159 
z
M 50 2766 
Q 1338 3678 2250 5253 
L 2694 5009 
Q 1744 3347 413 2341 
Q 281 2534 50 2766 
z
" transform="scale(0.015625)"/>
      <path id="MicrosoftYaHei-5e03" d="M 3250 3666 
L 3750 3666 
L 3750 2703 
L 5681 2703 
L 5681 541 
Q 5681 -197 5050 -197 
Q 4888 -197 4119 -191 
Q 4081 16 4019 316 
Q 4644 278 4769 278 
Q 5188 266 5188 666 
L 5188 2253 
L 3750 2253 
L 3750 -828 
L 3250 -828 
L 3250 2253 
L 1844 2253 
L 1844 -353 
L 1350 -353 
L 1350 2113 
Q 928 1553 450 1028 
Q 294 1253 94 1447 
Q 1241 2647 1969 3984 
L 200 3984 
L 200 4434 
L 2200 4434 
Q 2419 4884 2594 5353 
L 3088 5153 
Q 2934 4788 2766 4434 
L 6250 4434 
L 6250 3984 
L 2538 3984 
Q 2188 3325 1772 2703 
L 3250 2703 
L 3250 3666 
z
" transform="scale(0.015625)"/>
      <path id="MicrosoftYaHei-ff08" d="M 5288 -1100 
Q 4172 119 4172 1850 
Q 4172 3603 5288 4838 
L 5825 4838 
Q 4716 3572 4716 1856 
Q 4716 166 5819 -1100 
L 5288 -1100 
z
" transform="scale(0.015625)"/>
      <path id="MicrosoftYaHei-47" d="M 4284 331 
Q 3559 -81 2647 -81 
Q 1597 -81 955 583 
Q 313 1247 313 2356 
Q 313 3478 1022 4200 
Q 1731 4922 2841 4922 
Q 3625 4922 4169 4672 
L 4169 3997 
Q 3588 4363 2784 4363 
Q 1994 4363 1481 3822 
Q 969 3281 969 2397 
Q 969 1488 1441 981 
Q 1913 475 2716 475 
Q 3269 475 3656 688 
L 3656 1997 
L 2606 1997 
L 2606 2550 
L 4284 2550 
L 4284 331 
z
" transform="scale(0.015625)"/>
      <path id="MicrosoftYaHei-45" d="M 3228 0 
L 625 0 
L 625 4841 
L 3119 4841 
L 3119 4284 
L 1250 4284 
L 1250 2734 
L 2981 2734 
L 2981 2181 
L 1250 2181 
L 1250 553 
L 3228 553 
L 3228 0 
z
" transform="scale(0.015625)"/>
      <path id="MicrosoftYaHei-56" d="M 4272 4841 
L 2494 0 
L 1800 0 
L 56 4841 
L 750 4841 
L 2053 1056 
Q 2119 869 2150 622 
L 2166 622 
Q 2191 838 2275 1063 
L 3603 4841 
L 4272 4841 
z
" transform="scale(0.015625)"/>
      <path id="MicrosoftYaHei-ff09" d="M 1113 -1100 
L 575 -1100 
Q 1684 163 1684 1888 
Q 1684 3581 581 4838 
L 1113 4838 
Q 2222 3628 2222 1888 
Q 2222 128 1113 -1100 
z
" transform="scale(0.015625)"/>
     </defs>
     <use xlink:href="#MicrosoftYaHei-5e7f"/>
     <use xlink:href="#MicrosoftYaHei-4e49" transform="translate(100 0)"/>
     <use xlink:href="#MicrosoftYaHei-6781" transform="translate(200 0)"/>
     <use xlink:href="#MicrosoftYaHei-503c" transform="translate(300 0)"/>
     <use xlink:href="#MicrosoftYaHei-5206" transform="translate(400 0)"/>
     <use xlink:href="#MicrosoftYaHei-5e03" transform="translate(500 0)"/>
     <use xlink:href="#MicrosoftYaHei-ff08" transform="translate(600 0)"/>
     <use xlink:href="#MicrosoftYaHei-47" transform="translate(700 0)"/>
     <use xlink:href="#MicrosoftYaHei-45" transform="translate(774.365234 0)"/>
     <use xlink:href="#MicrosoftYaHei-56" transform="translate(829.345703 0)"/>
     <use xlink:href="#MicrosoftYaHei-ff09" transform="translate(896.972656 0)"/>
    </g>
   </g>
   <g id="text_2">
    <!-- $F(x)=\exp(-(1+\xi\frac{x-\mu}{\sigma})^{-1/\xi}),\; 1+\xi\frac{x-\mu}{\sigma}&gt;0$ -->
    <g style="fill: #93c5fd" transform="translate(263.324687 173.88) scale(0.24 -0.24)">
     <defs>
      <path id="Cmmi10-46" d="M 300 0 
Q 238 0 238 84 
Q 241 100 250 139 
Q 259 178 276 201 
Q 294 225 319 225 
Q 709 225 863 269 
Q 947 297 984 441 
L 1863 3956 
Q 1875 4019 1875 4044 
Q 1875 4113 1797 4122 
Q 1678 4147 1338 4147 
Q 1275 4147 1275 4231 
Q 1278 4247 1287 4286 
Q 1297 4325 1314 4348 
Q 1331 4372 1356 4372 
L 4738 4372 
Q 4800 4372 4800 4288 
L 4647 2963 
Q 4647 2944 4625 2925 
Q 4603 2906 4581 2906 
L 4525 2906 
Q 4459 2906 4459 2988 
Q 4500 3278 4500 3463 
Q 4500 3781 4362 3931 
Q 4225 4081 4015 4114 
Q 3806 4147 3438 4147 
L 2753 4147 
Q 2578 4147 2522 4117 
Q 2466 4088 2419 3928 
L 2009 2297 
L 2491 2297 
Q 2728 2297 2875 2322 
Q 3022 2347 3119 2419 
Q 3216 2491 3280 2627 
Q 3344 2763 3397 2988 
Q 3416 3047 3463 3047 
L 3519 3047 
Q 3584 3047 3584 2963 
L 3194 1381 
Q 3166 1325 3128 1325 
L 3072 1325 
Q 3009 1325 3009 1409 
Q 3025 1475 3034 1519 
Q 3044 1563 3058 1645 
Q 3072 1728 3072 1791 
Q 3072 1975 2909 2025 
Q 2747 2075 2484 2075 
L 1959 2075 
L 1544 416 
Q 1528 353 1528 353 
Q 1528 278 1575 269 
Q 1741 225 2228 225 
Q 2291 225 2291 141 
Q 2269 50 2256 25 
Q 2244 0 2181 0 
L 300 0 
z
" transform="scale(0.015625)"/>
      <path id="Cmr10-28" d="M 1984 -1588 
Q 1628 -1306 1370 -942 
Q 1113 -578 948 -165 
Q 784 247 703 697 
Q 622 1147 622 1600 
Q 622 2059 703 2509 
Q 784 2959 951 3375 
Q 1119 3791 1378 4153 
Q 1638 4516 1984 4788 
Q 1984 4800 2016 4800 
L 2075 4800 
Q 2094 4800 2109 4783 
Q 2125 4766 2125 4744 
Q 2125 4716 2113 4703 
Q 1800 4397 1592 4047 
Q 1384 3697 1257 3301 
Q 1131 2906 1075 2482 
Q 1019 2059 1019 1600 
Q 1019 -434 2106 -1491 
Q 2125 -1509 2125 -1544 
Q 2125 -1559 2108 -1579 
Q 2091 -1600 2075 -1600 
L 2016 -1600 
Q 1984 -1600 1984 -1588 
z
" transform="scale(0.015625)"/>
      <path id="Cmmi10-78" d="M 500 184 
Q 613 97 819 97 
Q 1019 97 1172 289 
Q 1325 481 1381 709 
L 1672 1844 
Q 1741 2153 1741 2266 
Q 1741 2425 1652 2544 
Q 1563 2663 1403 2663 
Q 1200 2663 1022 2536 
Q 844 2409 722 2214 
Q 600 2019 550 1819 
Q 538 1778 500 1778 
L 422 1778 
Q 372 1778 372 1838 
L 372 1856 
Q 434 2094 584 2320 
Q 734 2547 951 2687 
Q 1169 2828 1416 2828 
Q 1650 2828 1839 2703 
Q 2028 2578 2106 2363 
Q 2216 2559 2386 2693 
Q 2556 2828 2759 2828 
Q 2897 2828 3040 2779 
Q 3184 2731 3275 2631 
Q 3366 2531 3366 2381 
Q 3366 2219 3261 2101 
Q 3156 1984 2994 1984 
Q 2891 1984 2822 2050 
Q 2753 2116 2753 2216 
Q 2753 2350 2845 2451 
Q 2938 2553 3066 2572 
Q 2950 2663 2747 2663 
Q 2541 2663 2389 2472 
Q 2238 2281 2175 2047 
L 1894 916 
Q 1825 659 1825 494 
Q 1825 331 1917 214 
Q 2009 97 2163 97 
Q 2463 97 2698 361 
Q 2934 625 3009 941 
Q 3022 978 3059 978 
L 3138 978 
Q 3163 978 3178 961 
Q 3194 944 3194 922 
Q 3194 916 3188 903 
Q 3097 522 2806 225 
Q 2516 -72 2150 -72 
Q 1916 -72 1727 54 
Q 1538 181 1459 397 
Q 1359 209 1182 68 
Q 1006 -72 806 -72 
Q 669 -72 523 -23 
Q 378 25 287 125 
Q 197 225 197 378 
Q 197 528 301 651 
Q 406 775 563 775 
Q 669 775 741 711 
Q 813 647 813 544 
Q 813 409 723 309 
Q 634 209 500 184 
z
" transform="scale(0.015625)"/>
      <path id="Cmr10-29" d="M 416 -1600 
Q 359 -1600 359 -1544 
Q 359 -1516 372 -1503 
Q 1466 -434 1466 1600 
Q 1466 3634 384 4691 
Q 359 4706 359 4744 
Q 359 4766 376 4783 
Q 394 4800 416 4800 
L 475 4800 
Q 494 4800 506 4788 
Q 966 4425 1272 3906 
Q 1578 3388 1720 2800 
Q 1863 2213 1863 1600 
Q 1863 1147 1786 708 
Q 1709 269 1542 -157 
Q 1375 -584 1119 -945 
Q 863 -1306 506 -1588 
Q 494 -1600 475 -1600 
L 416 -1600 
z
" transform="scale(0.015625)"/>
      <path id="Cmr10-3d" d="M 481 850 
Q 428 850 393 890 
Q 359 931 359 978 
Q 359 1031 393 1068 
Q 428 1106 481 1106 
L 4500 1106 
Q 4547 1106 4581 1068 
Q 4616 1031 4616 978 
Q 4616 931 4581 890 
Q 4547 850 4500 850 
L 481 850 
z
M 481 2094 
Q 428 2094 393 2131 
Q 359 2169 359 2222 
Q 359 2269 393 2309 
Q 428 2350 481 2350 
L 4500 2350 
Q 4547 2350 4581 2309 
Q 4616 2269 4616 2222 
Q 4616 2169 4581 2131 
Q 4547 2094 4500 2094 
L 481 2094 
z
" transform="scale(0.015625)"/>
      <path id="Cmr10-65" d="M 1594 -72 
Q 1203 -72 876 133 
Q 550 338 364 680 
Q 178 1022 178 1403 
Q 178 1778 348 2115 
Q 519 2453 823 2661 
Q 1128 2869 1503 2869 
Q 1797 2869 2014 2770 
Q 2231 2672 2372 2497 
Q 2513 2322 2584 2084 
Q 2656 1847 2656 1563 
Q 2656 1478 2591 1478 
L 738 1478 
L 738 1409 
Q 738 878 952 497 
Q 1166 116 1650 116 
Q 1847 116 2014 203 
Q 2181 291 2304 447 
Q 2428 603 2472 781 
Q 2478 803 2495 820 
Q 2513 838 2534 838 
L 2591 838 
Q 2656 838 2656 756 
Q 2566 394 2266 161 
Q 1966 -72 1594 -72 
z
M 744 1638 
L 2203 1638 
Q 2203 1878 2136 2125 
Q 2069 2372 1912 2536 
Q 1756 2700 1503 2700 
Q 1141 2700 942 2361 
Q 744 2022 744 1638 
z
" transform="scale(0.015625)"/>
      <path id="Cmr10-78" d="M 78 0 
L 78 225 
Q 322 225 537 320 
Q 753 416 903 603 
L 1484 1344 
L 728 2328 
Q 616 2469 483 2501 
Q 350 2534 109 2534 
L 109 2759 
L 1441 2759 
L 1441 2534 
Q 1356 2534 1282 2496 
Q 1209 2459 1209 2388 
Q 1209 2363 1228 2328 
L 1741 1663 
L 2125 2156 
Q 2203 2250 2203 2344 
Q 2203 2422 2151 2478 
Q 2100 2534 2016 2534 
L 2016 2759 
L 3194 2759 
L 3194 2534 
Q 2947 2534 2730 2439 
Q 2513 2344 2363 2156 
L 1856 1509 
L 2675 428 
Q 2797 288 2928 256 
Q 3059 225 3303 225 
L 3303 0 
L 1972 0 
L 1972 225 
Q 2050 225 2122 262 
Q 2194 300 2194 372 
Q 2194 400 2175 428 
L 1600 1191 
L 1141 603 
Q 1069 522 1069 416 
Q 1069 338 1122 281 
Q 1175 225 1247 225 
L 1247 0 
L 78 0 
z
" transform="scale(0.015625)"/>
      <path id="Cmr10-70" d="M 166 -1241 
L 166 -1019 
Q 384 -1019 525 -981 
Q 666 -944 666 -813 
L 666 2272 
Q 666 2447 541 2490 
Q 416 2534 166 2534 
L 166 2759 
L 1113 2828 
L 1113 2431 
Q 1288 2625 1520 2726 
Q 1753 2828 2016 2828 
Q 2394 2828 2697 2623 
Q 3000 2419 3170 2086 
Q 3341 1753 3341 1381 
Q 3341 994 3152 659 
Q 2963 325 2636 126 
Q 2309 -72 1919 -72 
Q 1453 -72 1131 306 
L 1131 -813 
Q 1131 -944 1273 -981 
Q 1416 -1019 1631 -1019 
L 1631 -1241 
L 166 -1241 
z
M 1131 622 
Q 1244 394 1444 245 
Q 1644 97 1881 97 
Q 2103 97 2273 215 
Q 2444 334 2559 534 
Q 2675 734 2729 954 
Q 2784 1175 2784 1381 
Q 2784 1638 2692 1936 
Q 2600 2234 2411 2439 
Q 2222 2644 1953 2644 
Q 1694 2644 1476 2511 
Q 1259 2378 1131 2150 
L 1131 622 
z
" transform="scale(0.015625)"/>
      <path id="Cmsy10-a1" d="M 653 1472 
Q 600 1472 565 1512 
Q 531 1553 531 1600 
Q 531 1647 565 1687 
Q 600 1728 653 1728 
L 4325 1728 
Q 4375 1728 4408 1687 
Q 4441 1647 4441 1600 
Q 4441 1553 4408 1512 
Q 4375 1472 4325 1472 
L 653 1472 
z
" transform="scale(0.015625)"/>
      <path id="Cmr10-31" d="M 594 0 
L 594 225 
Q 1394 225 1394 428 
L 1394 3788 
Q 1063 3628 556 3628 
L 556 3853 
Q 1341 3853 1741 4263 
L 1831 4263 
Q 1853 4263 1873 4245 
Q 1894 4228 1894 4206 
L 1894 428 
Q 1894 225 2694 225 
L 2694 0 
L 594 0 
z
" transform="scale(0.015625)"/>
      <path id="Cmr10-2b" d="M 481 1472 
Q 428 1472 393 1512 
Q 359 1553 359 1600 
Q 359 1647 393 1687 
Q 428 1728 481 1728 
L 2363 1728 
L 2363 3616 
Q 2363 3666 2400 3698 
Q 2438 3731 2491 3731 
Q 2538 3731 2578 3698 
Q 2619 3666 2619 3616 
L 2619 1728 
L 4500 1728 
Q 4547 1728 4581 1687 
Q 4616 1647 4616 1600 
Q 4616 1553 4581 1512 
Q 4547 1472 4500 1472 
L 2619 1472 
L 2619 -416 
Q 2619 -466 2578 -498 
Q 2538 -531 2491 -531 
Q 2438 -531 2400 -498 
Q 2363 -466 2363 -416 
L 2363 1472 
L 481 1472 
z
" transform="scale(0.015625)"/>
      <path id="Cmmi10-bb" d="M 1044 -997 
Q 1053 -922 1131 -922 
Q 1138 -922 1252 -984 
Q 1366 -1047 1503 -1097 
Q 1641 -1147 1778 -1147 
Q 1897 -1147 1978 -1045 
Q 2059 -944 2059 -825 
Q 2059 -656 1881 -588 
L 794 -166 
Q 513 -56 330 161 
Q 147 378 147 653 
Q 147 900 278 1167 
Q 409 1434 615 1651 
Q 822 1869 1056 2003 
Q 869 2116 764 2292 
Q 659 2469 659 2681 
Q 659 2906 751 3100 
Q 844 3294 1003 3453 
Q 1163 3613 1359 3723 
Q 1556 3834 1759 3891 
Q 1728 4022 1728 4128 
Q 1728 4475 1863 4475 
Q 1897 4475 1922 4450 
Q 1947 4425 1947 4391 
Q 1947 4359 1930 4253 
Q 1913 4147 1913 4122 
Q 1913 4013 1941 3928 
Q 2106 3963 2259 3963 
Q 2847 3963 2847 3781 
Q 2847 3566 2194 3566 
Q 1994 3566 1869 3700 
Q 1684 3606 1528 3434 
Q 1372 3263 1284 3052 
Q 1197 2841 1197 2625 
Q 1197 2325 1369 2144 
Q 1597 2222 1825 2222 
Q 2413 2222 2413 2041 
Q 2413 1825 1759 1825 
Q 1494 1825 1259 1906 
Q 975 1753 737 1440 
Q 500 1128 500 838 
Q 500 650 636 508 
Q 772 366 972 281 
L 2106 -159 
Q 2253 -216 2345 -339 
Q 2438 -463 2438 -622 
Q 2438 -884 2236 -1098 
Q 2034 -1313 1772 -1313 
Q 1691 -1313 1506 -1269 
Q 1322 -1225 1183 -1153 
Q 1044 -1081 1044 -997 
z
M 1563 2022 
Q 1647 1991 1772 1991 
Q 2081 1991 2216 2028 
Q 2094 2053 1819 2053 
Q 1709 2053 1563 2022 
z
M 2053 3769 
Q 2109 3731 2209 3731 
Q 2516 3731 2650 3769 
L 2053 3769 
z
" transform="scale(0.015625)"/>
      <path id="Cmmi10-b9" d="M 178 -1203 
Q 178 -1166 184 -1153 
L 1125 2625 
Q 1153 2716 1226 2772 
Q 1300 2828 1394 2828 
Q 1475 2828 1531 2779 
Q 1588 2731 1588 2650 
Q 1588 2631 1586 2620 
Q 1584 2609 1581 2597 
L 1203 1100 
Q 1141 834 1141 641 
Q 1141 403 1253 250 
Q 1366 97 1594 97 
Q 2059 97 2413 678 
Q 2416 684 2417 687 
Q 2419 691 2419 697 
L 2881 2553 
Q 2903 2638 2981 2698 
Q 3059 2759 3150 2759 
Q 3225 2759 3283 2709 
Q 3341 2659 3341 2578 
Q 3341 2541 3334 2528 
L 2875 684 
Q 2828 503 2828 372 
Q 2828 97 3016 97 
Q 3216 97 3317 344 
Q 3419 591 3494 941 
Q 3506 978 3547 978 
L 3622 978 
Q 3647 978 3664 958 
Q 3681 938 3681 916 
Q 3569 469 3436 198 
Q 3303 -72 3003 -72 
Q 2791 -72 2627 50 
Q 2463 172 2413 378 
Q 2253 178 2039 53 
Q 1825 -72 1588 -72 
Q 1188 -72 959 116 
L 634 -1178 
Q 616 -1269 541 -1325 
Q 466 -1381 372 -1381 
Q 294 -1381 236 -1332 
Q 178 -1284 178 -1203 
z
" transform="scale(0.015625)"/>
      <path id="Cmmi10-be" d="M 1197 -72 
Q 913 -72 692 64 
Q 472 200 351 431 
Q 231 663 231 941 
Q 231 1238 365 1566 
Q 500 1894 733 2166 
Q 966 2438 1259 2598 
Q 1553 2759 1863 2759 
L 3475 2759 
Q 3541 2759 3587 2715 
Q 3634 2672 3634 2597 
Q 3634 2503 3567 2433 
Q 3500 2363 3406 2363 
L 2625 2363 
Q 2809 2088 2809 1697 
Q 2809 1375 2684 1062 
Q 2559 750 2337 492 
Q 2116 234 1820 81 
Q 1525 -72 1197 -72 
z
M 1203 97 
Q 1553 97 1823 370 
Q 2094 644 2237 1039 
Q 2381 1434 2381 1772 
Q 2381 2047 2229 2205 
Q 2078 2363 1806 2363 
Q 1434 2363 1173 2113 
Q 913 1863 783 1484 
Q 653 1106 653 756 
Q 653 481 798 289 
Q 944 97 1203 97 
z
" transform="scale(0.015625)"/>
      <path id="Cmmi10-3d" d="M 359 -1472 
Q 359 -1453 366 -1447 
L 2591 4722 
Q 2603 4759 2634 4779 
Q 2666 4800 2706 4800 
Q 2763 4800 2798 4765 
Q 2834 4731 2834 4672 
L 2834 4647 
L 609 -1522 
Q 572 -1600 488 -1600 
Q 434 -1600 396 -1562 
Q 359 -1525 359 -1472 
z
" transform="scale(0.015625)"/>
      <path id="Cmmi10-3b" d="M 634 -1153 
Q 634 -1125 659 -1100 
Q 891 -878 1019 -587 
Q 1147 -297 1147 25 
L 1147 103 
Q 1044 0 891 0 
Q 744 0 641 103 
Q 538 206 538 353 
Q 538 503 641 603 
Q 744 703 891 703 
Q 1119 703 1216 492 
Q 1313 281 1313 25 
Q 1313 -331 1170 -651 
Q 1028 -972 769 -1228 
Q 744 -1241 728 -1241 
Q 697 -1241 665 -1212 
Q 634 -1184 634 -1153 
z
" transform="scale(0.015625)"/>
      <path id="Cmmi10-3e" d="M 531 -128 
Q 531 -47 616 -6 
L 4013 1600 
L 594 3219 
Q 531 3238 531 3328 
Q 531 3372 567 3414 
Q 603 3456 659 3456 
Q 672 3456 709 3444 
L 4384 1709 
Q 4441 1681 4441 1600 
Q 4441 1516 4366 1484 
L 709 -244 
Q 672 -256 659 -256 
Q 603 -256 567 -214 
Q 531 -172 531 -128 
z
" transform="scale(0.015625)"/>
      <path id="Cmr10-30" d="M 1600 -141 
Q 816 -141 533 504 
Q 250 1150 250 2041 
Q 250 2597 351 3087 
Q 453 3578 754 3920 
Q 1056 4263 1600 4263 
Q 2022 4263 2290 4056 
Q 2559 3850 2700 3523 
Q 2841 3197 2892 2823 
Q 2944 2450 2944 2041 
Q 2944 1491 2842 1011 
Q 2741 531 2444 195 
Q 2147 -141 1600 -141 
z
M 1600 25 
Q 1956 25 2131 390 
Q 2306 756 2347 1200 
Q 2388 1644 2388 2144 
Q 2388 2625 2347 3031 
Q 2306 3438 2132 3767 
Q 1959 4097 1600 4097 
Q 1238 4097 1063 3765 
Q 888 3434 847 3029 
Q 806 2625 806 2144 
Q 806 1788 823 1472 
Q 841 1156 916 820 
Q 991 484 1158 254 
Q 1325 25 1600 25 
z
" transform="scale(0.015625)"/>
     </defs>
     <use xlink:href="#Cmmi10-46" transform="translate(0 0.235938)"/>
     <use xlink:href="#Cmr10-28" transform="translate(64.306641 0.235938)"/>
     <use xlink:href="#Cmmi10-78" transform="translate(103.125 0.235938)"/>
     <use xlink:href="#Cmr10-29" transform="translate(160.205078 0.235938)"/>
     <use xlink:href="#Cmr10-3d" transform="translate(216.582031 0.235938)"/>
     <use xlink:href="#Cmr10-65" transform="translate(311.826172 0.235938)"/>
     <use xlink:href="#Cmr10-78" transform="translate(356.210938 0.235938)"/>
     <use xlink:href="#Cmr10-70" transform="translate(408.896484 0.235938)"/>
     <use xlink:href="#Cmr10-28" transform="translate(464.414062 0.235938)"/>
     <use xlink:href="#Cmsy10-a1" transform="translate(503.232422 0.235938)"/>
     <use xlink:href="#Cmr10-28" transform="translate(580.917969 0.235938)"/>
     <use xlink:href="#Cmr10-31" transform="translate(619.736328 0.235938)"/>
     <use xlink:href="#Cmr10-2b" transform="translate(687.294922 0.235938)"/>
     <use xlink:href="#Cmmi10-bb" transform="translate(782.539062 0.235938)"/>
     <use xlink:href="#Cmmi10-78" transform="translate(826.240234 52.840625) scale(0.7)"/>
     <use xlink:href="#Cmsy10-a1" transform="translate(878.487305 52.840625) scale(0.7)"/>
     <use xlink:href="#Cmmi10-b9" transform="translate(945.158203 52.840625) scale(0.7)"/>
     <use xlink:href="#Cmmi10-be" transform="translate(887.240234 -23.690625) scale(0.7)"/>
     <use xlink:href="#Cmr10-29" transform="translate(999.801758 0.235938)"/>
     <use xlink:href="#Cmsy10-a1" transform="translate(1043.084258 38.5) scale(0.7)"/>
     <use xlink:href="#Cmr10-31" transform="translate(1097.464141 38.5) scale(0.7)"/>
     <use xlink:href="#Cmmi10-3d" transform="translate(1132.464141 38.5) scale(0.7)"/>
     <use xlink:href="#Cmmi10-bb" transform="translate(1167.464141 38.5) scale(0.7)"/>
     <use xlink:href="#Cmr10-29" transform="translate(1204.432305 0.235938)"/>
     <use xlink:href="#Cmmi10-3b" transform="translate(1243.250664 0.235938)"/>
     <use xlink:href="#Cmr10-31" transform="translate(1312.881936 0.235938)"/>
     <use xlink:href="#Cmr10-2b" transform="translate(1380.440529 0.235938)"/>
     <use xlink:href="#Cmmi10-bb" transform="translate(1475.68467 0.235938)"/>
     <use xlink:href="#Cmmi10-78" transform="translate(1519.385842 52.840625) scale(0.7)"/>
     <use xlink:href="#Cmsy10-a1" transform="translate(1571.632912 52.840625) scale(0.7)"/>
     <use xlink:href="#Cmmi10-b9" transform="translate(1638.303811 52.840625) scale(0.7)"/>
     <use xlink:href="#Cmmi10-be" transform="translate(1580.385842 -23.690625) scale(0.7)"/>
     <use xlink:href="#Cmmi10-3e" transform="translate(1710.505959 0.235938)"/>
     <use xlink:href="#Cmr10-30" transform="translate(1805.7501 0.235938)"/>
     <path d="M 826.240234 12.735938 
L 826.240234 18.985938 
L 987.301758 18.985938 
L 987.301758 12.735938 
L 826.240234 12.735938 
z
"/>
     <path d="M 1519.385842 12.735938 
L 1519.385842 18.985938 
L 1680.447365 18.985938 
L 1680.447365 12.735938 
L 1519.385842 12.735938 
z
"/>
    </g>
   </g>
  </g>
  <g id="axes_2">
   <g id="patch_2">
    <path d="M 39.644688 506.16 
L 932.444687 506.16 
L 932.444687 279.36 
L 39.644688 279.36 
z
" style="fill: #0b1221"/>
   </g>
   <g id="matplotlib.axis_1">
    <g id="xtick_1">
     <g id="line2d_1">
      <path d="M 80.226506 506.16 
L 80.226506 279.36 
" clip-path="url(#p9c7970ecb3)" style="fill: none; stroke: #374151; stroke-opacity: 0.25; stroke-width: 0.8; stroke-linecap: square"/>
     </g>
     <g id="line2d_2">
      <defs>
       <path id="m7752e26705" d="M 0 0 
L 0 3.5 
" style="stroke: #9ca3af; stroke-width: 0.8"/>
      </defs>
      <g>
       <use xlink:href="#m7752e26705" x="80.226506" y="506.16" style="fill: #9ca3af; stroke: #9ca3af; stroke-width: 0.8"/>
      </g>
     </g>
     <g id="text_3">
      <!-- 5 -->
      <g style="fill: #9ca3af" transform="translate(74.948849 527.54875) scale(0.18 -0.18)">
       <defs>
        <path id="MicrosoftYaHei-35" d="M 3294 1494 
Q 3294 784 2823 350 
Q 2353 -84 1559 -84 
Q 878 -84 544 119 
L 544 744 
Q 1034 425 1544 425 
Q 2050 425 2361 704 
Q 2672 984 2672 1447 
Q 2672 1909 2348 2167 
Q 2025 2425 1434 2425 
Q 978 2425 613 2384 
L 791 4841 
L 3053 4841 
L 3053 4303 
L 1306 4303 
L 1206 2931 
L 1647 2950 
Q 2416 2950 2855 2567 
Q 3294 2184 3294 1494 
z
" transform="scale(0.015625)"/>
       </defs>
       <use xlink:href="#MicrosoftYaHei-35"/>
      </g>
     </g>
    </g>
    <g id="xtick_2">
     <g id="line2d_3">
      <path d="M 242.553778 506.16 
L 242.553778 279.36 
" clip-path="url(#p9c7970ecb3)" style="fill: none; stroke: #374151; stroke-opacity: 0.25; stroke-width: 0.8; stroke-linecap: square"/>
     </g>
     <g id="line2d_4">
      <g>
       <use xlink:href="#m7752e26705" x="242.553778" y="506.16" style="fill: #9ca3af; stroke: #9ca3af; stroke-width: 0.8"/>
      </g>
     </g>
     <g id="text_4">
      <!-- 10 -->
      <g style="fill: #9ca3af" transform="translate(231.998466 527.54875) scale(0.18 -0.18)">
       <defs>
        <path id="MicrosoftYaHei-31" d="M 1781 0 
L 1781 4141 
Q 1638 3997 1295 3819 
Q 953 3641 663 3569 
L 663 4169 
Q 1047 4275 1484 4508 
Q 1922 4741 2156 4947 
L 2388 4947 
L 2388 0 
L 1781 0 
z
" transform="scale(0.015625)"/>
        <path id="MicrosoftYaHei-30" d="M 284 2325 
Q 284 3606 709 4264 
Q 1134 4922 1941 4922 
Q 3478 4922 3478 2441 
Q 3478 1216 3045 567 
Q 2613 -81 1831 -81 
Q 1094 -81 689 534 
Q 284 1150 284 2325 
z
M 909 2353 
Q 909 425 1888 425 
Q 2850 425 2850 2384 
Q 2850 4413 1906 4413 
Q 909 4413 909 2353 
z
" transform="scale(0.015625)"/>
       </defs>
       <use xlink:href="#MicrosoftYaHei-31"/>
       <use xlink:href="#MicrosoftYaHei-30" transform="translate(58.642578 0)"/>
      </g>
     </g>
    </g>
    <g id="xtick_3">
     <g id="line2d_5">
      <path d="M 404.881051 506.16 
L 404.881051 279.36 
" clip-path="url(#p9c7970ecb3)" style="fill: none; stroke: #374151; stroke-opacity: 0.25; stroke-width: 0.8; stroke-linecap: square"/>
     </g>
     <g id="line2d_6">
      <g>
       <use xlink:href="#m7752e26705" x="404.881051" y="506.16" style="fill: #9ca3af; stroke: #9ca3af; stroke-width: 0.8"/>
      </g>
     </g>
     <g id="text_5">
      <!-- 15 -->
      <g style="fill: #9ca3af" transform="translate(394.325739 527.54875) scale(0.18 -0.18)">
       <use xlink:href="#MicrosoftYaHei-31"/>
       <use xlink:href="#MicrosoftYaHei-35" transform="translate(58.642578 0)"/>
      </g>
     </g>
    </g>
    <g id="xtick_4">
     <g id="line2d_7">
      <path d="M 567.208324 506.16 
L 567.208324 279.36 
" clip-path="url(#p9c7970ecb3)" style="fill: none; stroke: #374151; stroke-opacity: 0.25; stroke-width: 0.8; stroke-linecap: square"/>
     </g>
     <g id="line2d_8">
      <g>
       <use xlink:href="#m7752e26705" x="567.208324" y="506.16" style="fill: #9ca3af; stroke: #9ca3af; stroke-width: 0.8"/>
      </g>
     </g>
     <g id="text_6">
      <!-- 20 -->
      <g style="fill: #9ca3af" transform="translate(556.653011 527.54875) scale(0.18 -0.18)">
       <defs>
        <path id="MicrosoftYaHei-32" d="M 2666 3572 
Q 2666 3963 2419 4186 
Q 2172 4409 1747 4409 
Q 1447 4409 1140 4256 
Q 834 4103 569 3819 
L 569 4413 
Q 806 4659 1107 4790 
Q 1409 4922 1816 4922 
Q 2472 4922 2872 4570 
Q 3272 4219 3272 3619 
Q 3272 3084 3026 2693 
Q 2781 2303 2188 1894 
Q 1581 1475 1376 1294 
Q 1172 1113 1090 947 
Q 1009 781 1009 544 
L 3416 544 
L 3416 0 
L 372 0 
L 372 241 
Q 372 659 486 951 
Q 600 1244 862 1520 
Q 1125 1797 1681 2184 
Q 2250 2584 2458 2886 
Q 2666 3188 2666 3572 
z
" transform="scale(0.015625)"/>
       </defs>
       <use xlink:href="#MicrosoftYaHei-32"/>
       <use xlink:href="#MicrosoftYaHei-30" transform="translate(58.642578 0)"/>
      </g>
     </g>
    </g>
    <g id="xtick_5">
     <g id="line2d_9">
      <path d="M 729.535597 506.16 
L 729.535597 279.36 
" clip-path="url(#p9c7970ecb3)" style="fill: none; stroke: #374151; stroke-opacity: 0.25; stroke-width: 0.8; stroke-linecap: square"/>
     </g>
     <g id="line2d_10">
      <g>
       <use xlink:href="#m7752e26705" x="729.535597" y="506.16" style="fill: #9ca3af; stroke: #9ca3af; stroke-width: 0.8"/>
      </g>
     </g>
     <g id="text_7">
      <!-- 25 -->
      <g style="fill: #9ca3af" transform="translate(718.980284 527.54875) scale(0.18 -0.18)">
       <use xlink:href="#MicrosoftYaHei-32"/>
       <use xlink:href="#MicrosoftYaHei-35" transform="translate(58.642578 0)"/>
      </g>
     </g>
    </g>
    <g id="xtick_6">
     <g id="line2d_11">
      <path d="M 891.862869 506.16 
L 891.862869 279.36 
" clip-path="url(#p9c7970ecb3)" style="fill: none; stroke: #374151; stroke-opacity: 0.25; stroke-width: 0.8; stroke-linecap: square"/>
     </g>
     <g id="line2d_12">
      <g>
       <use xlink:href="#m7752e26705" x="891.862869" y="506.16" style="fill: #9ca3af; stroke: #9ca3af; stroke-width: 0.8"/>
      </g>
     </g>
     <g id="text_8">
      <!-- 30 -->
      <g style="fill: #9ca3af" transform="translate(881.307557 527.54875) scale(0.18 -0.18)">
       <defs>
        <path id="MicrosoftYaHei-33" d="M 447 809 
Q 944 425 1569 425 
Q 2069 425 2361 670 
Q 2653 916 2653 1328 
Q 2653 2247 1338 2247 
L 934 2247 
L 934 2753 
L 1319 2753 
Q 2484 2753 2484 3616 
Q 2484 4413 1594 4413 
Q 1084 4413 634 4069 
L 634 4647 
Q 1109 4922 1744 4922 
Q 2363 4922 2738 4598 
Q 3113 4275 3113 3759 
Q 3113 2809 2144 2538 
L 2144 2525 
Q 2669 2469 2973 2155 
Q 3278 1841 3278 1372 
Q 3278 719 2808 319 
Q 2338 -81 1556 -81 
Q 869 -81 447 175 
L 447 809 
z
" transform="scale(0.015625)"/>
       </defs>
       <use xlink:href="#MicrosoftYaHei-33"/>
       <use xlink:href="#MicrosoftYaHei-30" transform="translate(58.642578 0)"/>
      </g>
     </g>
    </g>
   </g>
   <g id="matplotlib.axis_2">
    <g id="ytick_1">
     <g id="line2d_13">
      <path d="M 39.644688 495.850909 
L 932.444687 495.850909 
" clip-path="url(#p9c7970ecb3)" style="fill: none; stroke: #374151; stroke-opacity: 0.25; stroke-width: 0.8; stroke-linecap: square"/>
     </g>
     <g id="line2d_14">
      <defs>
       <path id="m55bcbdd56f" d="M 0 0 
L -3.5 0 
" style="stroke: #9ca3af; stroke-width: 0.8"/>
      </defs>
      <g>
       <use xlink:href="#m55bcbdd56f" x="39.644688" y="495.850909" style="fill: #9ca3af; stroke: #9ca3af; stroke-width: 0.8"/>
      </g>
     </g>
     <g id="text_9">
      <!-- 0.0 -->
      <g style="fill: #9ca3af" transform="translate(7.2 503.045284) scale(0.18 -0.18)">
       <defs>
        <path id="MicrosoftYaHei-2e" d="M 372 322 
Q 372 491 487 606 
Q 603 722 775 722 
Q 950 722 1065 605 
Q 1181 488 1181 322 
Q 1181 159 1065 42 
Q 950 -75 772 -75 
Q 600 -75 486 42 
Q 372 159 372 322 
z
" transform="scale(0.015625)"/>
       </defs>
       <use xlink:href="#MicrosoftYaHei-30"/>
       <use xlink:href="#MicrosoftYaHei-2e" transform="translate(58.642578 0)"/>
       <use xlink:href="#MicrosoftYaHei-30" transform="translate(82.714844 0)"/>
      </g>
     </g>
    </g>
    <g id="ytick_2">
     <g id="line2d_15">
      <path d="M 39.644688 454.614545 
L 932.444687 454.614545 
" clip-path="url(#p9c7970ecb3)" style="fill: none; stroke: #374151; stroke-opacity: 0.25; stroke-width: 0.8; stroke-linecap: square"/>
     </g>
     <g id="line2d_16">
      <g>
       <use xlink:href="#m55bcbdd56f" x="39.644688" y="454.614545" style="fill: #9ca3af; stroke: #9ca3af; stroke-width: 0.8"/>
      </g>
     </g>
     <g id="text_10">
      <!-- 0.2 -->
      <g style="fill: #9ca3af" transform="translate(7.2 461.80892) scale(0.18 -0.18)">
       <use xlink:href="#MicrosoftYaHei-30"/>
       <use xlink:href="#MicrosoftYaHei-2e" transform="translate(58.642578 0)"/>
       <use xlink:href="#MicrosoftYaHei-32" transform="translate(82.714844 0)"/>
      </g>
     </g>
    </g>
    <g id="ytick_3">
     <g id="line2d_17">
      <path d="M 39.644688 413.378182 
L 932.444687 413.378182 
" clip-path="url(#p9c7970ecb3)" style="fill: none; stroke: #374151; stroke-opacity: 0.25; stroke-width: 0.8; stroke-linecap: square"/>
     </g>
     <g id="line2d_18">
      <g>
       <use xlink:href="#m55bcbdd56f" x="39.644688" y="413.378182" style="fill: #9ca3af; stroke: #9ca3af; stroke-width: 0.8"/>
      </g>
     </g>
     <g id="text_11">
      <!-- 0.4 -->
      <g style="fill: #9ca3af" transform="translate(7.2 420.572557) scale(0.18 -0.18)">
       <defs>
        <path id="MicrosoftYaHei-34" d="M 2906 4841 
L 2906 1644 
L 3631 1644 
L 3631 1138 
L 2906 1138 
L 2906 0 
L 2313 0 
L 2313 1138 
L 53 1138 
L 53 1616 
Q 656 2294 1265 3178 
Q 1875 4063 2272 4841 
L 2906 4841 
z
M 741 1644 
L 2313 1644 
L 2313 3950 
Q 1988 3366 1616 2817 
Q 1244 2269 741 1644 
z
" transform="scale(0.015625)"/>
       </defs>
       <use xlink:href="#MicrosoftYaHei-30"/>
       <use xlink:href="#MicrosoftYaHei-2e" transform="translate(58.642578 0)"/>
       <use xlink:href="#MicrosoftYaHei-34" transform="translate(82.714844 0)"/>
      </g>
     </g>
    </g>
    <g id="ytick_4">
     <g id="line2d_19">
      <path d="M 39.644688 372.141818 
L 932.444687 372.141818 
" clip-path="url(#p9c7970ecb3)" style="fill: none; stroke: #374151; stroke-opacity: 0.25; stroke-width: 0.8; stroke-linecap: square"/>
     </g>
     <g id="line2d_20">
      <g>
       <use xlink:href="#m55bcbdd56f" x="39.644688" y="372.141818" style="fill: #9ca3af; stroke: #9ca3af; stroke-width: 0.8"/>
      </g>
     </g>
     <g id="text_12">
      <!-- 0.6 -->
      <g style="fill: #9ca3af" transform="translate(7.2 379.336193) scale(0.18 -0.18)">
       <defs>
        <path id="MicrosoftYaHei-36" d="M 3181 4219 
Q 2803 4413 2391 4413 
Q 1763 4413 1381 3866 
Q 1000 3319 994 2372 
L 1009 2372 
Q 1353 3038 2106 3038 
Q 2734 3038 3109 2628 
Q 3484 2219 3484 1541 
Q 3484 831 3051 375 
Q 2619 -81 1947 -81 
Q 1209 -81 789 495 
Q 369 1072 369 2131 
Q 369 3413 920 4167 
Q 1472 4922 2372 4922 
Q 2888 4922 3181 4781 
L 3181 4219 
z
M 1031 1584 
Q 1031 1106 1286 765 
Q 1541 425 1963 425 
Q 2363 425 2613 719 
Q 2863 1013 2863 1475 
Q 2863 1975 2627 2253 
Q 2391 2531 1956 2531 
Q 1544 2531 1287 2250 
Q 1031 1969 1031 1584 
z
" transform="scale(0.015625)"/>
       </defs>
       <use xlink:href="#MicrosoftYaHei-30"/>
       <use xlink:href="#MicrosoftYaHei-2e" transform="translate(58.642578 0)"/>
       <use xlink:href="#MicrosoftYaHei-36" transform="translate(82.714844 0)"/>
      </g>
     </g>
    </g>
    <g id="ytick_5">
     <g id="line2d_21">
      <path d="M 39.644688 330.905455 
L 932.444687 330.905455 
" clip-path="url(#p9c7970ecb3)" style="fill: none; stroke: #374151; stroke-opacity: 0.25; stroke-width: 0.8; stroke-linecap: square"/>
     </g>
     <g id="line2d_22">
      <g>
       <use xlink:href="#m55bcbdd56f" x="39.644688" y="330.905455" style="fill: #9ca3af; stroke: #9ca3af; stroke-width: 0.8"/>
      </g>
     </g>
     <g id="text_13">
      <!-- 0.8 -->
      <g style="fill: #9ca3af" transform="translate(7.2 338.09983) scale(0.18 -0.18)">
       <defs>
        <path id="MicrosoftYaHei-38" d="M 306 1350 
Q 306 1769 556 2122 
Q 806 2475 1200 2625 
Q 884 2803 700 3081 
Q 516 3359 516 3684 
Q 516 4028 692 4312 
Q 869 4597 1183 4759 
Q 1497 4922 1875 4922 
Q 2256 4922 2572 4761 
Q 2888 4600 3063 4315 
Q 3238 4031 3238 3684 
Q 3238 3366 3058 3086 
Q 2878 2806 2559 2625 
Q 2953 2472 3200 2119 
Q 3447 1766 3447 1350 
Q 3447 938 3250 611 
Q 3053 284 2690 103 
Q 2328 -78 1875 -78 
Q 1425 -78 1065 103 
Q 706 284 506 612 
Q 306 941 306 1350 
z
M 906 1378 
Q 906 947 1172 687 
Q 1438 428 1878 428 
Q 2309 428 2582 692 
Q 2856 956 2856 1378 
Q 2856 1778 2579 2051 
Q 2303 2325 1878 2325 
Q 1456 2325 1181 2058 
Q 906 1791 906 1378 
z
M 1081 3634 
Q 1081 3309 1312 3076 
Q 1544 2844 1878 2844 
Q 2206 2844 2445 3078 
Q 2684 3313 2684 3634 
Q 2684 3963 2454 4191 
Q 2225 4419 1878 4419 
Q 1534 4419 1307 4195 
Q 1081 3972 1081 3634 
z
" transform="scale(0.015625)"/>
       </defs>
       <use xlink:href="#MicrosoftYaHei-30"/>
       <use xlink:href="#MicrosoftYaHei-2e" transform="translate(58.642578 0)"/>
       <use xlink:href="#MicrosoftYaHei-38" transform="translate(82.714844 0)"/>
      </g>
     </g>
    </g>
    <g id="ytick_6">
     <g id="line2d_23">
      <path d="M 39.644688 289.669091 
L 932.444687 289.669091 
" clip-path="url(#p9c7970ecb3)" style="fill: none; stroke: #374151; stroke-opacity: 0.25; stroke-width: 0.8; stroke-linecap: square"/>
     </g>
     <g id="line2d_24">
      <g>
       <use xlink:href="#m55bcbdd56f" x="39.644688" y="289.669091" style="fill: #9ca3af; stroke: #9ca3af; stroke-width: 0.8"/>
      </g>
     </g>
     <g id="text_14">
      <!-- 1.0 -->
      <g style="fill: #9ca3af" transform="translate(7.2 296.863466) scale(0.18 -0.18)">
       <use xlink:href="#MicrosoftYaHei-31"/>
       <use xlink:href="#MicrosoftYaHei-2e" transform="translate(58.642578 0)"/>
       <use xlink:href="#MicrosoftYaHei-30" transform="translate(82.714844 0)"/>
      </g>
     </g>
    </g>
   </g>
   <g id="line2d_25">
    <path d="M 80.226506 495.850373 
L 162.880626 495.73875 
L 187.270367 495.487339 
L 203.530194 495.119789 
L 217.080049 494.603967 
L 229.27492 493.904703 
L 238.759819 493.15912 
L 248.244718 492.195428 
L 256.374631 491.164998 
L 264.504545 489.918056 
L 272.634458 488.428292 
L 279.409386 486.982936 
L 286.184314 485.337408 
L 292.959242 483.479026 
L 299.73417 481.39661 
L 306.509098 479.080796 
L 313.284026 476.524321 
L 320.058954 473.722263 
L 326.833882 470.672234 
L 333.60881 467.374525 
L 340.383737 463.83218 
L 347.158665 460.051019 
L 353.933593 456.039591 
L 362.063507 450.937845 
L 370.19342 445.544733 
L 378.323334 439.888845 
L 387.808233 433.001798 
L 398.648117 424.820821 
L 412.197973 414.26474 
L 458.267483 378.028107 
L 469.107368 369.921957 
L 478.592267 363.083319 
L 488.077166 356.521047 
L 496.207079 351.139486 
L 504.336993 345.998804 
L 512.466906 341.110866 
L 520.59682 336.484205 
L 528.726733 332.124208 
L 536.856647 328.033343 
L 544.98656 324.21141 
L 553.116474 320.655815 
L 561.246387 317.361844 
L 569.376301 314.322944 
L 577.506214 311.531005 
L 585.636128 308.976621 
L 593.766041 306.649347 
L 601.895955 304.537937 
L 610.025868 302.630559 
L 619.510767 300.64685 
L 628.995666 298.904487 
L 638.480565 297.383693 
L 649.32045 295.891914 
L 660.160335 294.635661 
L 672.355205 293.470117 
L 684.550075 292.531848 
L 698.099931 291.714954 
L 713.004772 291.042435 
L 730.619585 290.487991 
L 750.944369 290.087004 
L 776.689095 289.821599 
L 813.273706 289.691658 
L 890.507884 289.669091 
L 890.507884 289.669091 
" clip-path="url(#p9c7970ecb3)" style="fill: none; stroke: #22d3ee; stroke-width: 3; stroke-linecap: square"/>
   </g>
   <g id="line2d_26">
    <path d="M 80.226506 495.850909 
L 207.59515 495.745708 
L 223.854977 495.513458 
L 236.049848 495.132962 
L 245.534747 494.636983 
L 253.66466 494.019509 
L 261.794574 493.177459 
L 268.569502 492.270907 
L 275.344429 491.150093 
L 282.119357 489.790324 
L 288.894285 488.169492 
L 295.669213 486.269004 
L 301.089156 484.537488 
L 306.509098 482.612644 
L 311.92904 480.491494 
L 317.348983 478.173255 
L 324.12391 475.00066 
L 330.898838 471.529944 
L 337.673766 467.773503 
L 344.448694 463.748197 
L 351.223622 459.474765 
L 359.353536 454.053022 
L 367.483449 448.354592 
L 376.968348 441.42273 
L 387.808233 433.225938 
L 405.423045 419.578767 
L 427.102815 402.835986 
L 439.297685 393.701269 
L 450.13757 385.858454 
L 459.622469 379.254569 
L 469.107368 372.921092 
L 478.592267 366.878181 
L 486.72218 361.940261 
L 494.852094 357.231004 
L 502.982007 352.752769 
L 511.111921 348.505518 
L 519.241834 344.487167 
L 527.371748 340.693916 
L 535.501661 337.120552 
L 543.631575 333.760724 
L 553.116474 330.101119 
L 562.601373 326.709669 
L 572.086272 323.572925 
L 581.571171 320.676953 
L 591.05607 318.007614 
L 600.540969 315.550798 
L 611.380854 312.985428 
L 622.220738 310.659339 
L 633.060623 308.553182 
L 645.255493 306.423785 
L 657.450364 304.524896 
L 671.000219 302.657657 
L 684.550075 301.018109 
L 699.454917 299.446554 
L 715.714744 297.973961 
L 733.329556 296.623423 
L 752.299354 295.409991 
L 772.624138 294.34107 
L 795.658893 293.365948 
L 821.403619 292.513198 
L 849.858316 291.796387 
L 883.732956 291.173757 
L 891.862869 291.053663 
L 891.862869 291.053663 
" clip-path="url(#p9c7970ecb3)" style="fill: none; stroke: #a78bfa; stroke-width: 3; stroke-linecap: square"/>
   </g>
   <g id="line2d_27">
    <path d="M 80.226506 495.850909 
L 242.824776 495.743743 
L 253.66466 495.514359 
L 261.794574 495.157015 
L 268.569502 494.672961 
L 275.344429 493.963799 
L 280.764372 493.199029 
L 286.184314 492.231456 
L 291.604256 491.039044 
L 297.024199 489.603847 
L 302.444141 487.912773 
L 307.864083 485.958013 
L 313.284026 483.737171 
L 318.703968 481.253107 
L 324.12391 478.513554 
L 329.543853 475.530567 
L 334.963795 472.319858 
L 341.738723 468.014868 
L 348.513651 463.424444 
L 356.643564 457.601728 
L 366.128463 450.475148 
L 378.323334 440.973191 
L 412.197973 414.350131 
L 423.037858 406.191722 
L 432.522757 399.308833 
L 442.007656 392.699553 
L 451.492555 386.386352 
L 459.622469 381.221247 
L 467.752382 376.288122 
L 475.882296 371.588038 
L 484.012209 367.119413 
L 492.142123 362.878554 
L 500.272036 358.860112 
L 508.40195 355.057477 
L 517.886849 350.883734 
L 527.371748 346.980398 
L 536.856647 343.3337 
L 546.341546 339.929545 
L 555.826445 336.7538 
L 565.311344 333.792529 
L 576.151229 330.653443 
L 586.991113 327.757278 
L 597.830998 325.085519 
L 610.025868 322.326336 
L 622.220738 319.805933 
L 634.415609 317.502918 
L 647.965465 315.175134 
L 661.51532 313.066974 
L 676.420162 310.975299 
L 692.679989 308.935108 
L 708.939816 307.117697 
L 726.554628 305.369511 
L 745.524426 303.710783 
L 765.84921 302.156349 
L 787.52898 300.715964 
L 811.91872 299.323098 
L 839.018432 298.011604 
L 868.828114 296.804976 
L 891.862869 296.012639 
L 891.862869 296.012639 
" clip-path="url(#p9c7970ecb3)" style="fill: none; stroke: #84cc16; stroke-width: 3; stroke-linecap: square"/>
   </g>
   <g id="patch_3">
    <path d="M 39.644688 506.16 
L 39.644688 279.36 
" style="fill: none; stroke: #374151; stroke-width: 0.8; stroke-linejoin: miter; stroke-linecap: square"/>
   </g>
   <g id="patch_4">
    <path d="M 932.444687 506.16 
L 932.444687 279.36 
" style="fill: none; stroke: #374151; stroke-width: 0.8; stroke-linejoin: miter; stroke-linecap: square"/>
   </g>
   <g id="patch_5">
    <path d="M 39.644688 506.16 
L 932.444687 506.16 
" style="fill: none; stroke: #374151; stroke-width: 0.8; stroke-linejoin: miter; stroke-linecap: square"/>
   </g>
   <g id="patch_6">
    <path d="M 39.644688 279.36 
L 932.444687 279.36 
" style="fill: none; stroke: #374151; stroke-width: 0.8; stroke-linejoin: miter; stroke-linecap: square"/>
   </g>
   <g id="text_15">
    <!-- 不同形状参数的CDF对比 -->
    <g style="fill: #a5b4fc" transform="translate(367.656438 273.36) scale(0.216 -0.216)">
     <defs>
      <path id="MicrosoftYaHei-4e0d" d="M 225 4772 
L 6181 4772 
L 6181 4284 
L 3881 4284 
Q 3581 3766 3081 3053 
L 3444 3053 
L 3444 -866 
L 2906 -866 
L 2906 2859 
Q 1838 1541 388 609 
Q 231 834 38 1059 
Q 2006 2291 3213 4284 
L 225 4284 
L 225 4772 
z
M 4069 2859 
Q 5238 2147 6325 1409 
L 5969 916 
Q 4681 1872 3763 2434 
L 4069 2859 
z
" transform="scale(0.015625)"/>
      <path id="MicrosoftYaHei-540c" d="M 1013 -772 
L 531 -772 
L 531 4959 
L 5856 4959 
L 5856 -47 
Q 5856 -741 5125 -741 
Q 4669 -741 4088 -716 
Q 4056 -497 4000 -216 
Q 4619 -272 5025 -272 
Q 5375 -272 5375 78 
L 5375 4497 
L 1013 4497 
L 1013 -772 
z
M 1875 2566 
L 4506 2566 
L 4506 597 
L 2338 597 
L 2338 272 
L 1875 272 
L 1875 2566 
z
M 4044 2116 
L 2338 2116 
L 2338 1047 
L 4044 1047 
L 4044 2116 
z
M 1363 3734 
L 5025 3734 
L 5025 3284 
L 1363 3284 
L 1363 3734 
z
" transform="scale(0.015625)"/>
      <path id="MicrosoftYaHei-5f62" d="M 175 2647 
L 1019 2647 
L 1019 4422 
L 350 4422 
L 350 4872 
L 3775 4872 
L 3775 4422 
L 3006 4422 
L 3006 2647 
L 3975 2647 
L 3975 2197 
L 3006 2197 
L 3006 -791 
L 2525 -791 
L 2525 2197 
L 1497 2197 
Q 1500 128 406 -841 
Q 256 -622 75 -428 
Q 1025 366 1016 2197 
L 175 2197 
L 175 2647 
z
M 1500 2647 
L 2525 2647 
L 2525 4422 
L 1500 4422 
L 1500 2647 
z
M 6319 1353 
Q 5331 166 3738 -834 
Q 3631 -666 3388 -422 
Q 4925 397 5956 1672 
L 6319 1353 
z
M 6138 3172 
Q 5250 2159 4019 1347 
Q 3888 1528 3694 1722 
Q 4856 2441 5775 3484 
L 6138 3172 
z
M 6038 4934 
Q 5194 4009 3988 3266 
Q 3875 3428 3675 3666 
Q 4838 4322 5675 5253 
L 6038 4934 
z
" transform="scale(0.015625)"/>
      <path id="MicrosoftYaHei-72b6" d="M 2213 3516 
L 3791 3516 
Q 3825 4369 3825 5297 
L 4325 5297 
Q 4325 4338 4294 3516 
L 6175 3516 
L 6175 3047 
L 4309 3047 
Q 4884 628 6313 -228 
Q 6069 -491 5906 -703 
Q 4638 266 4119 2106 
Q 3766 413 2363 -809 
Q 2169 -541 2013 -384 
Q 3600 853 3766 3047 
L 2213 3047 
L 2213 3516 
z
M 1494 5316 
L 1994 5316 
L 1994 -834 
L 1494 -834 
L 1494 1606 
Q 916 1119 400 691 
L 75 1122 
Q 769 1628 1494 2222 
L 1494 5316 
z
M 219 4134 
L 644 4334 
Q 1019 3672 1306 2884 
L 831 2666 
Q 519 3541 219 4134 
z
M 5006 5053 
Q 5550 4641 5950 4278 
Q 5775 4078 5606 3884 
Q 5150 4328 4681 4716 
L 5006 5053 
z
" transform="scale(0.015625)"/>
      <path id="MicrosoftYaHei-53c2" d="M 256 3159 
L 2234 3159 
Q 2428 3391 2600 3641 
Q 2031 3609 1469 3578 
Q 1288 3566 988 3522 
L 825 4003 
Q 1144 4091 1400 4291 
Q 1944 4697 2606 5372 
L 3100 5109 
Q 2394 4497 1738 4034 
Q 2906 4066 4397 4122 
Q 4072 4388 3744 4628 
L 4050 4947 
Q 5006 4278 5606 3772 
L 5256 3397 
Q 5053 3575 4853 3747 
Q 3778 3700 2719 3647 
L 3069 3497 
Q 2944 3322 2813 3159 
L 6144 3159 
L 6144 2741 
L 4353 2741 
Q 5128 1941 6325 1578 
Q 6119 1297 6000 1109 
Q 4644 1697 3828 2741 
L 2453 2741 
Q 1550 1750 363 1116 
Q 231 1328 56 1509 
Q 1091 2009 1841 2741 
L 256 2741 
L 256 3159 
z
M 4969 1016 
L 5313 697 
Q 3525 -509 1019 -891 
Q 906 -666 781 -478 
Q 3331 -59 4969 1016 
z
M 4231 1703 
L 4525 1353 
Q 2813 391 1119 47 
Q 988 341 913 466 
Q 2694 828 4231 1703 
z
M 3556 2453 
L 3863 2128 
Q 2694 1397 1388 1009 
Q 1288 1216 1150 1422 
Q 2344 1734 3556 2453 
z
" transform="scale(0.015625)"/>
      <path id="MicrosoftYaHei-6570" d="M 4175 5303 
L 4675 5228 
Q 4544 4622 4369 4097 
L 6281 4097 
L 6281 3672 
L 5888 3672 
Q 5731 1834 5088 753 
Q 5594 66 6375 -372 
Q 6175 -647 6038 -866 
Q 5275 -372 4769 309 
Q 4194 -403 3400 -928 
Q 3263 -747 3044 -534 
Q 3919 41 4463 772 
Q 3956 1647 3794 2791 
Q 3663 2559 3519 2359 
Q 3394 2541 3206 2759 
Q 3931 3803 4175 5303 
z
M 150 1697 
L 1100 1697 
Q 1238 1934 1369 2184 
L 1819 2041 
Q 1719 1866 1619 1697 
L 3150 1697 
L 3150 1291 
Q 2913 678 2431 216 
Q 2775 53 3131 -109 
L 2856 -541 
Q 2469 -322 2050 -103 
Q 1344 -609 269 -903 
Q 169 -703 56 -466 
Q 969 -259 1600 128 
Q 1063 403 475 691 
Q 675 978 863 1284 
L 150 1284 
L 150 1697 
z
M 219 3847 
L 1656 3847 
L 1656 5247 
L 2119 5247 
L 2119 3847 
L 3319 3847 
L 3319 3434 
L 2119 3434 
L 2119 3053 
L 2306 3266 
Q 2888 2841 3281 2516 
L 2981 2166 
Q 2638 2491 2119 2897 
L 2119 2184 
L 1656 2184 
L 1656 3059 
Q 1088 2466 331 2016 
Q 213 2197 63 2397 
Q 850 2822 1506 3434 
L 219 3434 
L 219 3847 
z
M 5388 3672 
L 4219 3672 
Q 4188 3591 4150 3516 
Q 4263 2191 4775 1247 
Q 5275 2159 5388 3672 
z
M 1088 834 
Q 1531 634 2000 416 
Q 2431 784 2675 1284 
L 1375 1284 
Q 1231 1053 1088 834 
z
M 3038 5091 
L 3425 4834 
Q 3081 4384 2738 4003 
Q 2594 4128 2400 4266 
Q 2725 4647 3038 5091 
z
M 381 4816 
L 738 5059 
Q 1019 4716 1319 4322 
L 931 4047 
Q 656 4453 381 4816 
z
" transform="scale(0.015625)"/>
      <path id="MicrosoftYaHei-7684" d="M 356 4284 
L 988 4284 
Q 1219 4853 1369 5322 
L 1894 5172 
Q 1697 4694 1513 4284 
L 2763 4284 
L 2763 -691 
L 2263 -691 
L 2263 -203 
L 856 -203 
L 856 -734 
L 356 -734 
L 356 4284 
z
M 2856 3003 
Q 3444 3934 3850 5322 
L 4375 5191 
Q 4216 4719 4050 4303 
L 6063 4303 
Q 5988 1091 5938 259 
Q 5894 -722 4906 -722 
Q 4338 -722 3750 -684 
Q 3713 -372 3650 -128 
L 3669 -128 
Q 4294 -216 4813 -216 
Q 5381 -216 5425 384 
Q 5494 1316 5525 3834 
L 3850 3834 
Q 3578 3231 3288 2772 
Q 3119 2891 2856 3003 
z
M 856 266 
L 2263 266 
L 2263 1847 
L 856 1847 
L 856 266 
z
M 2263 3816 
L 856 3816 
L 856 2297 
L 2263 2297 
L 2263 3816 
z
M 3406 2578 
L 3788 2859 
Q 4481 2041 4894 1441 
L 4431 1116 
Q 3988 1841 3406 2578 
z
" transform="scale(0.015625)"/>
      <path id="MicrosoftYaHei-43" d="M 3938 200 
Q 3403 -81 2597 -81 
Q 1556 -81 934 580 
Q 313 1241 313 2328 
Q 313 3497 1013 4209 
Q 1713 4922 2791 4922 
Q 3484 4922 3938 4725 
L 3938 4072 
Q 3419 4359 2797 4359 
Q 1988 4359 1478 3820 
Q 969 3281 969 2366 
Q 969 1497 1444 986 
Q 1919 475 2688 475 
Q 3406 475 3938 800 
L 3938 200 
z
" transform="scale(0.015625)"/>
      <path id="MicrosoftYaHei-44" d="M 625 0 
L 625 4841 
L 2006 4841 
Q 3106 4841 3836 4200 
Q 4566 3559 4566 2481 
Q 4566 1356 3836 678 
Q 3106 0 1956 0 
L 625 0 
z
M 1250 4284 
L 1250 553 
L 1953 553 
Q 2875 553 3392 1056 
Q 3909 1559 3909 2466 
Q 3909 3372 3378 3828 
Q 2847 4284 1981 4284 
L 1250 4284 
z
" transform="scale(0.015625)"/>
      <path id="MicrosoftYaHei-46" d="M 3119 4284 
L 1250 4284 
L 1250 2666 
L 2981 2666 
L 2981 2116 
L 1250 2116 
L 1250 0 
L 625 0 
L 625 4841 
L 3119 4841 
L 3119 4284 
z
" transform="scale(0.015625)"/>
      <path id="MicrosoftYaHei-5bf9" d="M 694 3691 
Q 1234 2909 1741 2166 
Q 2113 3081 2213 4147 
L 250 4147 
L 250 4622 
L 2725 4622 
L 2725 4166 
Q 2553 2809 2059 1700 
Q 2569 953 3044 247 
L 2594 -53 
Q 2203 563 1803 1181 
Q 1247 163 388 -622 
Q 263 -428 81 -166 
Q 975 638 1500 1647 
Q 919 2538 319 3434 
L 694 3691 
z
M 2975 3941 
L 5056 3941 
L 5056 5278 
L 5563 5278 
L 5563 3941 
L 6325 3941 
L 6325 3466 
L 5563 3466 
L 5563 191 
Q 5563 -716 4669 -716 
Q 4388 -716 3744 -709 
Q 3713 -478 3644 -147 
Q 4263 -197 4588 -197 
Q 5056 -197 5056 278 
L 5056 3466 
L 2975 3466 
L 2975 3941 
z
M 3088 2684 
L 3494 2928 
Q 4000 2184 4388 1484 
L 3919 1216 
Q 3550 1922 3088 2684 
z
" transform="scale(0.015625)"/>
      <path id="MicrosoftYaHei-6bd4" d="M 3225 5316 
L 3744 5316 
L 3744 2672 
Q 4959 3550 5744 4509 
L 6188 4178 
Q 5175 3063 3744 2056 
L 3744 247 
Q 3744 -166 4106 -166 
L 5175 -166 
Q 5588 -166 5650 203 
Q 5725 678 5763 1247 
Q 6025 1147 6300 1066 
Q 6244 484 6150 22 
Q 6019 -622 5319 -622 
L 3944 -622 
Q 3225 -622 3225 159 
L 3225 5316 
z
M 1063 5153 
L 1063 3278 
L 2825 3278 
L 2825 2809 
L 1063 2809 
L 1063 153 
Q 1713 428 2763 928 
Q 2763 634 2788 366 
Q 1869 -3 1231 -328 
Q 956 -472 725 -672 
L 344 -184 
Q 544 -34 544 272 
L 544 5153 
L 1063 5153 
z
" transform="scale(0.015625)"/>
     </defs>
     <use xlink:href="#MicrosoftYaHei-4e0d"/>
     <use xlink:href="#MicrosoftYaHei-540c" transform="translate(100 0)"/>
     <use xlink:href="#MicrosoftYaHei-5f62" transform="translate(200 0)"/>
     <use xlink:href="#MicrosoftYaHei-72b6" transform="translate(300 0)"/>
     <use xlink:href="#MicrosoftYaHei-53c2" transform="translate(400 0)"/>
     <use xlink:href="#MicrosoftYaHei-6570" transform="translate(500 0)"/>
     <use xlink:href="#MicrosoftYaHei-7684" transform="translate(600 0)"/>
     <use xlink:href="#MicrosoftYaHei-43" transform="translate(700 0)"/>
     <use xlink:href="#MicrosoftYaHei-44" transform="translate(766.894531 0)"/>
     <use xlink:href="#MicrosoftYaHei-46" transform="translate(843.066406 0)"/>
     <use xlink:href="#MicrosoftYaHei-5bf9" transform="translate(896.191406 0)"/>
     <use xlink:href="#MicrosoftYaHei-6bd4" transform="translate(996.191406 0)"/>
    </g>
   </g>
   <g id="legend_1">
    <g id="patch_7">
     <path d="M 52.244688 377.350312 
L 265.516562 377.350312 
Q 269.116562 377.350312 269.116562 373.750312 
L 269.116562 291.96 
Q 269.116562 288.36 265.516562 288.36 
L 52.244688 288.36 
Q 48.644688 288.36 48.644688 291.96 
L 48.644688 373.750312 
Q 48.644688 377.350312 52.244688 377.350312 
z
" style="fill: #111827; opacity: 0.8; stroke: #374151; stroke-linejoin: miter"/>
    </g>
    <g id="line2d_28">
     <path d="M 55.844688 303.64875 
L 73.844688 303.64875 
L 91.844688 303.64875 
" style="fill: none; stroke: #22d3ee; stroke-width: 3; stroke-linecap: square"/>
    </g>
    <g id="text_16">
     <!-- ξ=-0.2 (Weibull型) -->
     <g style="fill: #e5e7eb" transform="translate(106.244687 309.94875) scale(0.18 -0.18)">
      <defs>
       <path id="MicrosoftYaHei-3be" d="M 2775 -1063 
L 2113 -1063 
Q 2447 -800 2447 -519 
Q 2447 -331 2301 -207 
Q 2156 -84 1603 -9 
Q 956 75 606 434 
Q 256 794 256 1378 
Q 256 1822 536 2176 
Q 816 2531 1325 2713 
Q 581 2938 581 3544 
Q 581 3913 897 4202 
Q 1213 4491 1747 4622 
L 1747 4647 
L 556 4631 
L 556 5119 
L 2644 5119 
L 2644 4625 
Q 1994 4528 1594 4253 
Q 1194 3978 1194 3597 
Q 1194 3266 1476 3087 
Q 1759 2909 2066 2909 
L 2584 2928 
L 2584 2384 
L 2191 2397 
Q 1631 2397 1257 2136 
Q 884 1875 884 1431 
Q 884 716 1819 566 
Q 2488 453 2755 218 
Q 3022 -16 3022 -416 
Q 3022 -784 2775 -1063 
z
" transform="scale(0.015625)"/>
       <path id="MicrosoftYaHei-3d" d="M 3972 2497 
L 788 2497 
L 788 2969 
L 3972 2969 
L 3972 2497 
z
M 3972 1053 
L 788 1053 
L 788 1525 
L 3972 1525 
L 3972 1053 
z
" transform="scale(0.015625)"/>
       <path id="MicrosoftYaHei-2d" d="M 2328 1681 
L 488 1681 
L 488 2153 
L 2328 2153 
L 2328 1681 
z
" transform="scale(0.015625)"/>
       <path id="MicrosoftYaHei-20" transform="scale(0.015625)"/>
       <path id="MicrosoftYaHei-28" d="M 1531 -1100 
Q 478 100 478 1847 
Q 478 3594 1531 4841 
L 2072 4841 
Q 1016 3544 1016 1853 
Q 1016 166 2066 -1100 
L 1531 -1100 
z
" transform="scale(0.015625)"/>
       <path id="MicrosoftYaHei-57" d="M 6431 4841 
L 5075 0 
L 4347 0 
L 3372 3488 
Q 3306 3725 3294 3988 
L 3281 3988 
Q 3263 3728 3194 3494 
L 2209 0 
L 1488 0 
L 84 4841 
L 775 4841 
L 1763 1184 
Q 1828 938 1841 688 
L 1859 688 
Q 1875 875 1963 1184 
L 3009 4841 
L 3625 4841 
L 4625 1156 
Q 4675 975 4706 694 
L 4719 694 
Q 4734 897 4809 1169 
L 5759 4841 
L 6431 4841 
z
" transform="scale(0.015625)"/>
       <path id="MicrosoftYaHei-65" d="M 3363 1572 
L 944 1572 
Q 959 1019 1246 717 
Q 1534 416 2050 416 
Q 2631 416 3116 788 
L 3116 241 
Q 2659 -81 1906 -81 
Q 1156 -81 736 394 
Q 316 869 316 1713 
Q 316 2506 777 3022 
Q 1238 3538 1922 3538 
Q 2600 3538 2981 3102 
Q 3363 2666 3363 1881 
L 3363 1572 
z
M 2750 2063 
Q 2747 2531 2528 2787 
Q 2309 3044 1913 3044 
Q 1547 3044 1280 2772 
Q 1013 2500 944 2063 
L 2750 2063 
z
" transform="scale(0.015625)"/>
       <path id="MicrosoftYaHei-69" d="M 472 4675 
Q 472 4838 583 4948 
Q 694 5059 856 5059 
Q 1022 5059 1136 4950 
Q 1250 4841 1250 4675 
Q 1250 4513 1136 4405 
Q 1022 4297 856 4297 
Q 691 4297 581 4405 
Q 472 4513 472 4675 
z
M 544 0 
L 544 3456 
L 1156 3456 
L 1156 0 
L 544 0 
z
" transform="scale(0.015625)"/>
       <path id="MicrosoftYaHei-62" d="M 1159 488 
L 1159 0 
L 547 0 
L 547 5116 
L 1159 5116 
L 1159 2859 
L 1172 2859 
Q 1578 3538 2359 3538 
Q 3009 3538 3392 3080 
Q 3775 2622 3775 1828 
Q 3775 953 3345 436 
Q 2916 -81 2200 -81 
Q 1525 -81 1172 488 
L 1159 488 
z
M 1156 1422 
Q 1156 1003 1428 714 
Q 1700 425 2109 425 
Q 2597 425 2872 800 
Q 3147 1175 3147 1838 
Q 3147 2384 2890 2707 
Q 2634 3031 2191 3031 
Q 1741 3031 1448 2709 
Q 1156 2388 1156 1891 
L 1156 1422 
z
" transform="scale(0.015625)"/>
       <path id="MicrosoftYaHei-75" d="M 3400 0 
L 2784 0 
L 2784 544 
L 2772 544 
Q 2425 -81 1706 -81 
Q 478 -81 478 1388 
L 478 3456 
L 1084 3456 
L 1084 1478 
Q 1084 425 1891 425 
Q 2291 425 2537 720 
Q 2784 1016 2784 1466 
L 2784 3456 
L 3400 3456 
L 3400 0 
z
" transform="scale(0.015625)"/>
       <path id="MicrosoftYaHei-6c" d="M 544 0 
L 544 5116 
L 1156 5116 
L 1156 0 
L 544 0 
z
" transform="scale(0.015625)"/>
       <path id="MicrosoftYaHei-578b" d="M 150 3503 
L 1100 3503 
Q 1106 3638 1106 4547 
L 413 4547 
L 413 4959 
L 3675 4959 
L 3675 4547 
L 2994 4547 
L 2994 3503 
L 3881 3503 
L 3881 3091 
L 2994 3091 
L 2994 1747 
L 2538 1747 
L 2538 3091 
L 1528 3091 
Q 1450 2191 638 1534 
Q 475 1716 294 1897 
Q 1013 2453 1066 3091 
L 150 3091 
L 150 3503 
z
M 138 -103 
L 2938 -103 
L 2938 741 
L 706 741 
L 706 1172 
L 2938 1172 
L 2938 1659 
L 3425 1659 
L 3425 1172 
L 5713 1172 
L 5713 741 
L 3425 741 
L 3425 -103 
L 6256 -103 
L 6256 -534 
L 138 -534 
L 138 -103 
z
M 5856 5209 
L 5856 2334 
Q 5856 1672 5200 1659 
Q 4825 1647 4331 1659 
Q 4306 1897 4256 2153 
Q 4781 2122 5044 2122 
Q 5400 2122 5400 2516 
L 5400 5209 
L 5856 5209 
z
M 1556 3503 
L 2538 3503 
L 2538 4547 
L 1563 4547 
Q 1563 3791 1556 3503 
z
M 4138 4859 
L 4588 4859 
L 4588 2697 
L 4138 2697 
L 4138 4859 
z
" transform="scale(0.015625)"/>
       <path id="MicrosoftYaHei-29" d="M 78 -1100 
Q 1131 163 1131 1853 
Q 1131 3547 72 4841 
L 616 4841 
Q 1672 3603 1672 1847 
Q 1672 91 616 -1100 
L 78 -1100 
z
" transform="scale(0.015625)"/>
      </defs>
      <use xlink:href="#MicrosoftYaHei-3be"/>
      <use xlink:href="#MicrosoftYaHei-3d" transform="translate(48.4375 0)"/>
      <use xlink:href="#MicrosoftYaHei-2d" transform="translate(122.607422 0)"/>
      <use xlink:href="#MicrosoftYaHei-30" transform="translate(165.869141 0)"/>
      <use xlink:href="#MicrosoftYaHei-2e" transform="translate(224.511719 0)"/>
      <use xlink:href="#MicrosoftYaHei-32" transform="translate(248.583984 0)"/>
      <use xlink:href="#MicrosoftYaHei-20" transform="translate(307.226562 0)"/>
      <use xlink:href="#MicrosoftYaHei-28" transform="translate(336.816406 0)"/>
      <use xlink:href="#MicrosoftYaHei-57" transform="translate(370.214844 0)"/>
      <use xlink:href="#MicrosoftYaHei-65" transform="translate(469.347656 0)"/>
      <use xlink:href="#MicrosoftYaHei-69" transform="translate(526.085938 0)"/>
      <use xlink:href="#MicrosoftYaHei-62" transform="translate(552.697266 0)"/>
      <use xlink:href="#MicrosoftYaHei-75" transform="translate(616.564453 0)"/>
      <use xlink:href="#MicrosoftYaHei-6c" transform="translate(678.185547 0)"/>
      <use xlink:href="#MicrosoftYaHei-6c" transform="translate(704.796875 0)"/>
      <use xlink:href="#MicrosoftYaHei-578b" transform="translate(731.408203 0)"/>
      <use xlink:href="#MicrosoftYaHei-29" transform="translate(831.408203 0)"/>
     </g>
    </g>
    <g id="line2d_29">
     <path d="M 55.844688 331.512187 
L 73.844688 331.512187 
L 91.844688 331.512187 
" style="fill: none; stroke: #a78bfa; stroke-width: 3; stroke-linecap: square"/>
    </g>
    <g id="text_17">
     <!-- ξ=0 (Gumbel) -->
     <g style="fill: #e5e7eb" transform="translate(106.244687 337.812187) scale(0.18 -0.18)">
      <defs>
       <path id="MicrosoftYaHei-6d" d="M 5522 0 
L 4909 0 
L 4909 1984 
Q 4909 2547 4734 2789 
Q 4559 3031 4159 3031 
Q 3822 3031 3581 2715 
Q 3341 2400 3341 1969 
L 3341 0 
L 2728 0 
L 2728 2047 
Q 2728 3031 1969 3031 
Q 1619 3031 1389 2731 
Q 1159 2431 1159 1966 
L 1159 0 
L 547 0 
L 547 3456 
L 1159 3456 
L 1159 2909 
L 1172 2909 
Q 1541 3538 2250 3538 
Q 2597 3538 2862 3347 
Q 3128 3156 3231 2831 
Q 3616 3538 4381 3538 
Q 5522 3538 5522 2131 
L 5522 0 
z
" transform="scale(0.015625)"/>
      </defs>
      <use xlink:href="#MicrosoftYaHei-3be"/>
      <use xlink:href="#MicrosoftYaHei-3d" transform="translate(48.4375 0)"/>
      <use xlink:href="#MicrosoftYaHei-30" transform="translate(122.607422 0)"/>
      <use xlink:href="#MicrosoftYaHei-20" transform="translate(181.25 0)"/>
      <use xlink:href="#MicrosoftYaHei-28" transform="translate(210.839844 0)"/>
      <use xlink:href="#MicrosoftYaHei-47" transform="translate(244.238281 0)"/>
      <use xlink:href="#MicrosoftYaHei-75" transform="translate(318.603516 0)"/>
      <use xlink:href="#MicrosoftYaHei-6d" transform="translate(380.224609 0)"/>
      <use xlink:href="#MicrosoftYaHei-62" transform="translate(473.925781 0)"/>
      <use xlink:href="#MicrosoftYaHei-65" transform="translate(537.792969 0)"/>
      <use xlink:href="#MicrosoftYaHei-6c" transform="translate(594.53125 0)"/>
      <use xlink:href="#MicrosoftYaHei-29" transform="translate(621.142578 0)"/>
     </g>
    </g>
    <g id="line2d_30">
     <path d="M 55.844688 359.375625 
L 73.844688 359.375625 
L 91.844688 359.375625 
" style="fill: none; stroke: #84cc16; stroke-width: 3; stroke-linecap: square"/>
    </g>
    <g id="text_18">
     <!-- ξ=0.2 (Fréchet型) -->
     <g style="fill: #e5e7eb" transform="translate(106.244687 365.675625) scale(0.18 -0.18)">
      <defs>
       <path id="MicrosoftYaHei-72" d="M 2400 2850 
Q 2247 2959 1978 2959 
Q 1622 2959 1390 2626 
Q 1159 2294 1159 1750 
L 1159 0 
L 547 0 
L 547 3456 
L 1159 3456 
L 1159 2753 
L 1172 2753 
Q 1434 3516 2078 3516 
Q 2288 3516 2400 3469 
L 2400 2850 
z
" transform="scale(0.015625)"/>
       <path id="MicrosoftYaHei-e9" d="M 3363 1572 
L 944 1572 
Q 959 1019 1246 717 
Q 1534 416 2050 416 
Q 2631 416 3116 788 
L 3116 241 
Q 2659 -81 1906 -81 
Q 1156 -81 736 394 
Q 316 869 316 1713 
Q 316 2506 777 3022 
Q 1238 3538 1922 3538 
Q 2600 3538 2981 3102 
Q 3363 2666 3363 1881 
L 3363 1572 
z
M 2750 2063 
Q 2747 2531 2528 2787 
Q 2309 3044 1913 3044 
Q 1547 3044 1280 2772 
Q 1013 2500 944 2063 
L 2750 2063 
z
M 2717 5203 
L 1814 4097 
L 1345 4097 
L 2114 5203 
L 2717 5203 
z
" transform="scale(0.015625)"/>
       <path id="MicrosoftYaHei-63" d="M 2934 156 
Q 2538 -81 1978 -81 
Q 1228 -81 772 400 
Q 316 881 316 1647 
Q 316 2497 808 3017 
Q 1300 3538 2125 3538 
Q 2600 3538 2938 3369 
L 2938 2763 
Q 2572 3031 2125 3031 
Q 1600 3031 1270 2667 
Q 941 2303 941 1697 
Q 941 1100 1252 762 
Q 1563 425 2091 425 
Q 2538 425 2934 719 
L 2934 156 
z
" transform="scale(0.015625)"/>
       <path id="MicrosoftYaHei-68" d="M 3466 0 
L 2856 0 
L 2856 1988 
Q 2856 3031 2081 3031 
Q 1684 3031 1421 2726 
Q 1159 2422 1159 1959 
L 1159 0 
L 547 0 
L 547 5116 
L 1159 5116 
L 1159 2888 
L 1172 2888 
Q 1569 3538 2300 3538 
Q 3466 3538 3466 2128 
L 3466 0 
z
" transform="scale(0.015625)"/>
       <path id="MicrosoftYaHei-74" d="M 2206 34 
Q 2006 -75 1666 -75 
Q 738 -75 738 953 
L 738 2950 
L 144 2950 
L 144 3456 
L 738 3456 
L 738 4288 
L 1347 4481 
L 1347 3456 
L 2206 3456 
L 2206 2950 
L 1347 2950 
L 1347 1063 
Q 1347 722 1462 575 
Q 1578 428 1847 428 
Q 2053 428 2206 544 
L 2206 34 
z
" transform="scale(0.015625)"/>
      </defs>
      <use xlink:href="#MicrosoftYaHei-3be"/>
      <use xlink:href="#MicrosoftYaHei-3d" transform="translate(48.4375 0)"/>
      <use xlink:href="#MicrosoftYaHei-30" transform="translate(122.607422 0)"/>
      <use xlink:href="#MicrosoftYaHei-2e" transform="translate(181.25 0)"/>
      <use xlink:href="#MicrosoftYaHei-32" transform="translate(205.322266 0)"/>
      <use xlink:href="#MicrosoftYaHei-20" transform="translate(263.964844 0)"/>
      <use xlink:href="#MicrosoftYaHei-28" transform="translate(293.554688 0)"/>
      <use xlink:href="#MicrosoftYaHei-46" transform="translate(326.953125 0)"/>
      <use xlink:href="#MicrosoftYaHei-72" transform="translate(380.078125 0)"/>
      <use xlink:href="#MicrosoftYaHei-e9" transform="translate(416.886719 0)"/>
      <use xlink:href="#MicrosoftYaHei-63" transform="translate(473.625 0)"/>
      <use xlink:href="#MicrosoftYaHei-68" transform="translate(523.771484 0)"/>
      <use xlink:href="#MicrosoftYaHei-65" transform="translate(585.34375 0)"/>
      <use xlink:href="#MicrosoftYaHei-74" transform="translate(642.082031 0)"/>
      <use xlink:href="#MicrosoftYaHei-578b" transform="translate(679.337891 0)"/>
      <use xlink:href="#MicrosoftYaHei-29" transform="translate(779.337891 0)"/>
     </g>
    </g>
   </g>
  </g>
 </g>
 <defs>
  <clipPath id="p9c7970ecb3">
   <rect x="39.644688" y="279.36" width="892.8" height="226.8"/>
  </clipPath>
 </defs>
</svg>
