<?xml version="1.0" encoding="utf-8" standalone="no"?>
<!DOCTYPE svg PUBLIC "-//W3C//DTD SVG 1.1//EN"
  "http://www.w3.org/Graphics/SVG/1.1/DTD/svg11.dtd">
<svg xmlns:xlink="http://www.w3.org/1999/xlink" width="960.755312pt" height="539.223437pt" viewBox="0 0 960.755312 539.223437" xmlns="http://www.w3.org/2000/svg" version="1.1">
 <metadata>
  <rdf:RDF xmlns:dc="http://purl.org/dc/elements/1.1/" xmlns:cc="http://creativecommons.org/ns#" xmlns:rdf="http://www.w3.org/1999/02/22-rdf-syntax-ns#">
   <cc:Work>
    <dc:type rdf:resource="http://purl.org/dc/dcmitype/StillImage"/>
    <dc:date>2025-11-04T16:06:02.738473</dc:date>
    <dc:format>image/svg+xml</dc:format>
    <dc:creator>
     <cc:Agent>
      <dc:title>Matplotlib v3.10.3, https://matplotlib.org/</dc:title>
     </cc:Agent>
    </dc:creator>
   </cc:Work>
  </rdf:RDF>
 </metadata>
 <defs>
  <style type="text/css">*{stroke-linejoin: round; stroke-linecap: butt}</style>
 </defs>
 <g id="figure_1">
  <g id="patch_1">
   <path d="M 0 539.223437 
L 960.755312 539.223437 
L 960.755312 0 
L 0 0 
z
" style="fill: #0b1221"/>
  </g>
  <g id="axes_1">
   <g id="text_1">
    <!-- Gumbel 分布：PDF 与 CDF -->
    <g style="fill: #00f3ff" transform="translate(256.683437 108.935625) scale(0.4 -0.4)">
     <defs>
      <path id="MicrosoftYaHei-47" d="M 4284 331 
Q 3559 -81 2647 -81 
Q 1597 -81 955 583 
Q 313 1247 313 2356 
Q 313 3478 1022 4200 
Q 1731 4922 2841 4922 
Q 3625 4922 4169 4672 
L 4169 3997 
Q 3588 4363 2784 4363 
Q 1994 4363 1481 3822 
Q 969 3281 969 2397 
Q 969 1488 1441 981 
Q 1913 475 2716 475 
Q 3269 475 3656 688 
L 3656 1997 
L 2606 1997 
L 2606 2550 
L 4284 2550 
L 4284 331 
z
" transform="scale(0.015625)"/>
      <path id="MicrosoftYaHei-75" d="M 3400 0 
L 2784 0 
L 2784 544 
L 2772 544 
Q 2425 -81 1706 -81 
Q 478 -81 478 1388 
L 478 3456 
L 1084 3456 
L 1084 1478 
Q 1084 425 1891 425 
Q 2291 425 2537 720 
Q 2784 1016 2784 1466 
L 2784 3456 
L 3400 3456 
L 3400 0 
z
" transform="scale(0.015625)"/>
      <path id="MicrosoftYaHei-6d" d="M 5522 0 
L 4909 0 
L 4909 1984 
Q 4909 2547 4734 2789 
Q 4559 3031 4159 3031 
Q 3822 3031 3581 2715 
Q 3341 2400 3341 1969 
L 3341 0 
L 2728 0 
L 2728 2047 
Q 2728 3031 1969 3031 
Q 1619 3031 1389 2731 
Q 1159 2431 1159 1966 
L 1159 0 
L 547 0 
L 547 3456 
L 1159 3456 
L 1159 2909 
L 1172 2909 
Q 1541 3538 2250 3538 
Q 2597 3538 2862 3347 
Q 3128 3156 3231 2831 
Q 3616 3538 4381 3538 
Q 5522 3538 5522 2131 
L 5522 0 
z
" transform="scale(0.015625)"/>
      <path id="MicrosoftYaHei-62" d="M 1159 488 
L 1159 0 
L 547 0 
L 547 5116 
L 1159 5116 
L 1159 2859 
L 1172 2859 
Q 1578 3538 2359 3538 
Q 3009 3538 3392 3080 
Q 3775 2622 3775 1828 
Q 3775 953 3345 436 
Q 2916 -81 2200 -81 
Q 1525 -81 1172 488 
L 1159 488 
z
M 1156 1422 
Q 1156 1003 1428 714 
Q 1700 425 2109 425 
Q 2597 425 2872 800 
Q 3147 1175 3147 1838 
Q 3147 2384 2890 2707 
Q 2634 3031 2191 3031 
Q 1741 3031 1448 2709 
Q 1156 2388 1156 1891 
L 1156 1422 
z
" transform="scale(0.015625)"/>
      <path id="MicrosoftYaHei-65" d="M 3363 1572 
L 944 1572 
Q 959 1019 1246 717 
Q 1534 416 2050 416 
Q 2631 416 3116 788 
L 3116 241 
Q 2659 -81 1906 -81 
Q 1156 -81 736 394 
Q 316 869 316 1713 
Q 316 2506 777 3022 
Q 1238 3538 1922 3538 
Q 2600 3538 2981 3102 
Q 3363 2666 3363 1881 
L 3363 1572 
z
M 2750 2063 
Q 2747 2531 2528 2787 
Q 2309 3044 1913 3044 
Q 1547 3044 1280 2772 
Q 1013 2500 944 2063 
L 2750 2063 
z
" transform="scale(0.015625)"/>
      <path id="MicrosoftYaHei-6c" d="M 544 0 
L 544 5116 
L 1156 5116 
L 1156 0 
L 544 0 
z
" transform="scale(0.015625)"/>
      <path id="MicrosoftYaHei-20" transform="scale(0.015625)"/>
      <path id="MicrosoftYaHei-5206" d="M 900 2559 
L 5056 2559 
Q 5025 1497 4963 484 
Q 4888 -684 3856 -678 
Q 3350 -684 2788 -647 
Q 2750 -384 2700 -116 
Q 3181 -184 3775 -191 
Q 4400 -203 4463 541 
Q 4513 1216 4538 2097 
L 2616 2097 
Q 2541 1053 2181 416 
Q 1706 -422 588 -878 
Q 425 -666 231 -459 
Q 1269 -72 1725 666 
Q 2053 1225 2103 2097 
L 900 2097 
L 900 2559 
z
M 3488 5159 
L 3938 5353 
Q 4625 3678 6350 2847 
Q 6069 2553 5944 2372 
Q 4225 3366 3488 5159 
z
M 50 2766 
Q 1338 3678 2250 5253 
L 2694 5009 
Q 1744 3347 413 2341 
Q 281 2534 50 2766 
z
" transform="scale(0.015625)"/>
      <path id="MicrosoftYaHei-5e03" d="M 3250 3666 
L 3750 3666 
L 3750 2703 
L 5681 2703 
L 5681 541 
Q 5681 -197 5050 -197 
Q 4888 -197 4119 -191 
Q 4081 16 4019 316 
Q 4644 278 4769 278 
Q 5188 266 5188 666 
L 5188 2253 
L 3750 2253 
L 3750 -828 
L 3250 -828 
L 3250 2253 
L 1844 2253 
L 1844 -353 
L 1350 -353 
L 1350 2113 
Q 928 1553 450 1028 
Q 294 1253 94 1447 
Q 1241 2647 1969 3984 
L 200 3984 
L 200 4434 
L 2200 4434 
Q 2419 4884 2594 5353 
L 3088 5153 
Q 2934 4788 2766 4434 
L 6250 4434 
L 6250 3984 
L 2538 3984 
Q 2188 3325 1772 2703 
L 3250 2703 
L 3250 3666 
z
" transform="scale(0.015625)"/>
      <path id="MicrosoftYaHei-ff1a" d="M 1606 3531 
Q 1772 3531 1890 3415 
Q 2009 3300 2009 3138 
Q 2009 2975 1893 2858 
Q 1778 2741 1606 2741 
Q 1434 2741 1318 2858 
Q 1203 2975 1203 3138 
Q 1203 3300 1322 3415 
Q 1441 3531 1606 3531 
z
M 1606 716 
Q 1772 716 1890 600 
Q 2009 484 2009 319 
Q 2009 150 1890 36 
Q 1772 -78 1606 -78 
Q 1441 -78 1322 36 
Q 1203 150 1203 319 
Q 1203 484 1322 600 
Q 1441 716 1606 716 
z
" transform="scale(0.015625)"/>
      <path id="MicrosoftYaHei-50" d="M 1250 1809 
L 1250 0 
L 625 0 
L 625 4841 
L 2000 4841 
Q 2784 4841 3217 4462 
Q 3650 4084 3650 3381 
Q 3650 2669 3144 2226 
Q 2638 1784 1878 1809 
L 1250 1809 
z
M 1250 4291 
L 1250 2359 
L 1828 2359 
Q 2400 2359 2697 2617 
Q 2994 2875 2994 3356 
Q 2994 4291 1888 4291 
L 1250 4291 
z
" transform="scale(0.015625)"/>
      <path id="MicrosoftYaHei-44" d="M 625 0 
L 625 4841 
L 2006 4841 
Q 3106 4841 3836 4200 
Q 4566 3559 4566 2481 
Q 4566 1356 3836 678 
Q 3106 0 1956 0 
L 625 0 
z
M 1250 4284 
L 1250 553 
L 1953 553 
Q 2875 553 3392 1056 
Q 3909 1559 3909 2466 
Q 3909 3372 3378 3828 
Q 2847 4284 1981 4284 
L 1250 4284 
z
" transform="scale(0.015625)"/>
      <path id="MicrosoftYaHei-46" d="M 3119 4284 
L 1250 4284 
L 1250 2666 
L 2981 2666 
L 2981 2116 
L 1250 2116 
L 1250 0 
L 625 0 
L 625 4841 
L 3119 4841 
L 3119 4284 
z
" transform="scale(0.015625)"/>
      <path id="MicrosoftYaHei-4e0e" d="M 1163 2384 
L 1163 2859 
L 1413 5328 
L 1931 5328 
L 1834 4334 
L 6269 4334 
L 6269 3859 
L 1791 3859 
L 1694 2859 
L 5813 2859 
Q 5738 1547 5644 416 
Q 5556 -247 5263 -478 
Q 4981 -703 4322 -703 
Q 3706 -697 2900 -678 
Q 2863 -466 2794 -134 
Q 3744 -203 4213 -209 
Q 5050 -266 5125 447 
Q 5206 1278 5263 2384 
L 1163 2384 
z
M 106 1409 
L 4738 1409 
L 4738 934 
L 106 934 
L 106 1409 
z
" transform="scale(0.015625)"/>
      <path id="MicrosoftYaHei-43" d="M 3938 200 
Q 3403 -81 2597 -81 
Q 1556 -81 934 580 
Q 313 1241 313 2328 
Q 313 3497 1013 4209 
Q 1713 4922 2791 4922 
Q 3484 4922 3938 4725 
L 3938 4072 
Q 3419 4359 2797 4359 
Q 1988 4359 1478 3820 
Q 969 3281 969 2366 
Q 969 1497 1444 986 
Q 1919 475 2688 475 
Q 3406 475 3938 800 
L 3938 200 
z
" transform="scale(0.015625)"/>
     </defs>
     <use xlink:href="#MicrosoftYaHei-47"/>
     <use xlink:href="#MicrosoftYaHei-75" transform="translate(74.365234 0)"/>
     <use xlink:href="#MicrosoftYaHei-6d" transform="translate(135.986328 0)"/>
     <use xlink:href="#MicrosoftYaHei-62" transform="translate(229.6875 0)"/>
     <use xlink:href="#MicrosoftYaHei-65" transform="translate(293.554688 0)"/>
     <use xlink:href="#MicrosoftYaHei-6c" transform="translate(350.292969 0)"/>
     <use xlink:href="#MicrosoftYaHei-20" transform="translate(376.904297 0)"/>
     <use xlink:href="#MicrosoftYaHei-5206" transform="translate(406.494141 0)"/>
     <use xlink:href="#MicrosoftYaHei-5e03" transform="translate(506.494141 0)"/>
     <use xlink:href="#MicrosoftYaHei-ff1a" transform="translate(606.494141 0)"/>
     <use xlink:href="#MicrosoftYaHei-50" transform="translate(706.494141 0)"/>
     <use xlink:href="#MicrosoftYaHei-44" transform="translate(767.675781 0)"/>
     <use xlink:href="#MicrosoftYaHei-46" transform="translate(843.847656 0)"/>
     <use xlink:href="#MicrosoftYaHei-20" transform="translate(896.972656 0)"/>
     <use xlink:href="#MicrosoftYaHei-4e0e" transform="translate(926.5625 0)"/>
     <use xlink:href="#MicrosoftYaHei-20" transform="translate(1026.5625 0)"/>
     <use xlink:href="#MicrosoftYaHei-43" transform="translate(1056.152344 0)"/>
     <use xlink:href="#MicrosoftYaHei-44" transform="translate(1123.046875 0)"/>
     <use xlink:href="#MicrosoftYaHei-46" transform="translate(1199.21875 0)"/>
    </g>
   </g>
   <g id="text_2">
    <!-- $f(x)=\frac{1}{\beta}\exp(-(z+e^{-z})),\; F(x)=\exp(-e^{-z}),\; z=\frac{x-\mu}{\beta}$ -->
    <g style="fill: #93c5fd" transform="translate(256.575312 191.72) scale(0.22 -0.22)">
     <defs>
      <path id="Cmmi10-66" d="M 622 -1056 
Q 741 -1147 909 -1147 
Q 1138 -1147 1281 -641 
Q 1341 -397 1606 966 
L 1900 2534 
L 1350 2534 
Q 1288 2534 1288 2619 
Q 1313 2759 1369 2759 
L 1941 2759 
L 2016 3175 
Q 2053 3369 2084 3508 
Q 2116 3647 2152 3765 
Q 2188 3884 2259 4031 
Q 2369 4241 2555 4377 
Q 2741 4513 2956 4513 
Q 3097 4513 3230 4461 
Q 3363 4409 3447 4306 
Q 3531 4203 3531 4063 
Q 3531 3900 3423 3779 
Q 3316 3659 3163 3659 
Q 3059 3659 2986 3723 
Q 2913 3788 2913 3891 
Q 2913 4031 3008 4136 
Q 3103 4241 3244 4256 
Q 3125 4347 2950 4347 
Q 2853 4347 2767 4256 
Q 2681 4166 2656 4063 
Q 2616 3900 2478 3181 
L 2400 2759 
L 3059 2759 
Q 3122 2759 3122 2675 
Q 3119 2659 3109 2620 
Q 3100 2581 3083 2557 
Q 3066 2534 3041 2534 
L 2356 2534 
L 2059 972 
Q 2003 631 1929 279 
Q 1856 -72 1723 -442 
Q 1591 -813 1384 -1063 
Q 1178 -1313 897 -1313 
Q 681 -1313 511 -1189 
Q 341 -1066 341 -863 
Q 341 -700 445 -579 
Q 550 -459 709 -459 
Q 816 -459 887 -523 
Q 959 -588 959 -691 
Q 959 -828 857 -942 
Q 756 -1056 622 -1056 
z
" transform="scale(0.015625)"/>
      <path id="Cmr10-28" d="M 1984 -1588 
Q 1628 -1306 1370 -942 
Q 1113 -578 948 -165 
Q 784 247 703 697 
Q 622 1147 622 1600 
Q 622 2059 703 2509 
Q 784 2959 951 3375 
Q 1119 3791 1378 4153 
Q 1638 4516 1984 4788 
Q 1984 4800 2016 4800 
L 2075 4800 
Q 2094 4800 2109 4783 
Q 2125 4766 2125 4744 
Q 2125 4716 2113 4703 
Q 1800 4397 1592 4047 
Q 1384 3697 1257 3301 
Q 1131 2906 1075 2482 
Q 1019 2059 1019 1600 
Q 1019 -434 2106 -1491 
Q 2125 -1509 2125 -1544 
Q 2125 -1559 2108 -1579 
Q 2091 -1600 2075 -1600 
L 2016 -1600 
Q 1984 -1600 1984 -1588 
z
" transform="scale(0.015625)"/>
      <path id="Cmmi10-78" d="M 500 184 
Q 613 97 819 97 
Q 1019 97 1172 289 
Q 1325 481 1381 709 
L 1672 1844 
Q 1741 2153 1741 2266 
Q 1741 2425 1652 2544 
Q 1563 2663 1403 2663 
Q 1200 2663 1022 2536 
Q 844 2409 722 2214 
Q 600 2019 550 1819 
Q 538 1778 500 1778 
L 422 1778 
Q 372 1778 372 1838 
L 372 1856 
Q 434 2094 584 2320 
Q 734 2547 951 2687 
Q 1169 2828 1416 2828 
Q 1650 2828 1839 2703 
Q 2028 2578 2106 2363 
Q 2216 2559 2386 2693 
Q 2556 2828 2759 2828 
Q 2897 2828 3040 2779 
Q 3184 2731 3275 2631 
Q 3366 2531 3366 2381 
Q 3366 2219 3261 2101 
Q 3156 1984 2994 1984 
Q 2891 1984 2822 2050 
Q 2753 2116 2753 2216 
Q 2753 2350 2845 2451 
Q 2938 2553 3066 2572 
Q 2950 2663 2747 2663 
Q 2541 2663 2389 2472 
Q 2238 2281 2175 2047 
L 1894 916 
Q 1825 659 1825 494 
Q 1825 331 1917 214 
Q 2009 97 2163 97 
Q 2463 97 2698 361 
Q 2934 625 3009 941 
Q 3022 978 3059 978 
L 3138 978 
Q 3163 978 3178 961 
Q 3194 944 3194 922 
Q 3194 916 3188 903 
Q 3097 522 2806 225 
Q 2516 -72 2150 -72 
Q 1916 -72 1727 54 
Q 1538 181 1459 397 
Q 1359 209 1182 68 
Q 1006 -72 806 -72 
Q 669 -72 523 -23 
Q 378 25 287 125 
Q 197 225 197 378 
Q 197 528 301 651 
Q 406 775 563 775 
Q 669 775 741 711 
Q 813 647 813 544 
Q 813 409 723 309 
Q 634 209 500 184 
z
" transform="scale(0.015625)"/>
      <path id="Cmr10-29" d="M 416 -1600 
Q 359 -1600 359 -1544 
Q 359 -1516 372 -1503 
Q 1466 -434 1466 1600 
Q 1466 3634 384 4691 
Q 359 4706 359 4744 
Q 359 4766 376 4783 
Q 394 4800 416 4800 
L 475 4800 
Q 494 4800 506 4788 
Q 966 4425 1272 3906 
Q 1578 3388 1720 2800 
Q 1863 2213 1863 1600 
Q 1863 1147 1786 708 
Q 1709 269 1542 -157 
Q 1375 -584 1119 -945 
Q 863 -1306 506 -1588 
Q 494 -1600 475 -1600 
L 416 -1600 
z
" transform="scale(0.015625)"/>
      <path id="Cmr10-3d" d="M 481 850 
Q 428 850 393 890 
Q 359 931 359 978 
Q 359 1031 393 1068 
Q 428 1106 481 1106 
L 4500 1106 
Q 4547 1106 4581 1068 
Q 4616 1031 4616 978 
Q 4616 931 4581 890 
Q 4547 850 4500 850 
L 481 850 
z
M 481 2094 
Q 428 2094 393 2131 
Q 359 2169 359 2222 
Q 359 2269 393 2309 
Q 428 2350 481 2350 
L 4500 2350 
Q 4547 2350 4581 2309 
Q 4616 2269 4616 2222 
Q 4616 2169 4581 2131 
Q 4547 2094 4500 2094 
L 481 2094 
z
" transform="scale(0.015625)"/>
      <path id="Cmr10-31" d="M 594 0 
L 594 225 
Q 1394 225 1394 428 
L 1394 3788 
Q 1063 3628 556 3628 
L 556 3853 
Q 1341 3853 1741 4263 
L 1831 4263 
Q 1853 4263 1873 4245 
Q 1894 4228 1894 4206 
L 1894 428 
Q 1894 225 2694 225 
L 2694 0 
L 594 0 
z
" transform="scale(0.015625)"/>
      <path id="Cmmi10-af" d="M 172 -1241 
Q 153 -1241 137 -1219 
Q 122 -1197 122 -1178 
L 1106 2778 
Q 1191 3097 1353 3397 
Q 1516 3697 1761 3955 
Q 2006 4213 2300 4363 
Q 2594 4513 2925 4513 
Q 3163 4513 3355 4408 
Q 3547 4303 3658 4114 
Q 3769 3925 3769 3688 
Q 3769 3459 3681 3251 
Q 3594 3044 3437 2864 
Q 3281 2684 3103 2572 
Q 3206 2506 3287 2404 
Q 3369 2303 3419 2192 
Q 3469 2081 3497 1945 
Q 3525 1809 3525 1691 
Q 3525 1363 3384 1044 
Q 3244 725 3001 465 
Q 2759 206 2446 54 
Q 2134 -97 1806 -97 
Q 1447 -97 1159 100 
Q 872 297 763 634 
L 300 -1203 
Q 300 -1241 250 -1241 
L 172 -1241 
z
M 1819 78 
Q 2106 78 2339 267 
Q 2572 456 2723 742 
Q 2875 1028 2954 1348 
Q 3034 1669 3034 1931 
Q 3034 2256 2847 2444 
Q 2628 2363 2419 2363 
Q 1913 2363 1913 2534 
Q 1913 2759 2491 2759 
Q 2697 2759 2869 2694 
Q 3006 2800 3118 3006 
Q 3231 3213 3289 3438 
Q 3347 3663 3347 3859 
Q 3347 4069 3236 4208 
Q 3125 4347 2913 4347 
Q 2522 4347 2186 4106 
Q 1850 3866 1619 3498 
Q 1388 3131 1288 2741 
L 934 1325 
Q 900 1178 891 997 
Q 891 597 1153 337 
Q 1416 78 1819 78 
z
M 2106 2553 
Q 2203 2528 2425 2528 
Q 2534 2528 2644 2566 
Q 2638 2572 2619 2572 
Q 2550 2591 2472 2591 
Q 2181 2591 2106 2553 
z
" transform="scale(0.015625)"/>
      <path id="Cmr10-65" d="M 1594 -72 
Q 1203 -72 876 133 
Q 550 338 364 680 
Q 178 1022 178 1403 
Q 178 1778 348 2115 
Q 519 2453 823 2661 
Q 1128 2869 1503 2869 
Q 1797 2869 2014 2770 
Q 2231 2672 2372 2497 
Q 2513 2322 2584 2084 
Q 2656 1847 2656 1563 
Q 2656 1478 2591 1478 
L 738 1478 
L 738 1409 
Q 738 878 952 497 
Q 1166 116 1650 116 
Q 1847 116 2014 203 
Q 2181 291 2304 447 
Q 2428 603 2472 781 
Q 2478 803 2495 820 
Q 2513 838 2534 838 
L 2591 838 
Q 2656 838 2656 756 
Q 2566 394 2266 161 
Q 1966 -72 1594 -72 
z
M 744 1638 
L 2203 1638 
Q 2203 1878 2136 2125 
Q 2069 2372 1912 2536 
Q 1756 2700 1503 2700 
Q 1141 2700 942 2361 
Q 744 2022 744 1638 
z
" transform="scale(0.015625)"/>
      <path id="Cmr10-78" d="M 78 0 
L 78 225 
Q 322 225 537 320 
Q 753 416 903 603 
L 1484 1344 
L 728 2328 
Q 616 2469 483 2501 
Q 350 2534 109 2534 
L 109 2759 
L 1441 2759 
L 1441 2534 
Q 1356 2534 1282 2496 
Q 1209 2459 1209 2388 
Q 1209 2363 1228 2328 
L 1741 1663 
L 2125 2156 
Q 2203 2250 2203 2344 
Q 2203 2422 2151 2478 
Q 2100 2534 2016 2534 
L 2016 2759 
L 3194 2759 
L 3194 2534 
Q 2947 2534 2730 2439 
Q 2513 2344 2363 2156 
L 1856 1509 
L 2675 428 
Q 2797 288 2928 256 
Q 3059 225 3303 225 
L 3303 0 
L 1972 0 
L 1972 225 
Q 2050 225 2122 262 
Q 2194 300 2194 372 
Q 2194 400 2175 428 
L 1600 1191 
L 1141 603 
Q 1069 522 1069 416 
Q 1069 338 1122 281 
Q 1175 225 1247 225 
L 1247 0 
L 78 0 
z
" transform="scale(0.015625)"/>
      <path id="Cmr10-70" d="M 166 -1241 
L 166 -1019 
Q 384 -1019 525 -981 
Q 666 -944 666 -813 
L 666 2272 
Q 666 2447 541 2490 
Q 416 2534 166 2534 
L 166 2759 
L 1113 2828 
L 1113 2431 
Q 1288 2625 1520 2726 
Q 1753 2828 2016 2828 
Q 2394 2828 2697 2623 
Q 3000 2419 3170 2086 
Q 3341 1753 3341 1381 
Q 3341 994 3152 659 
Q 2963 325 2636 126 
Q 2309 -72 1919 -72 
Q 1453 -72 1131 306 
L 1131 -813 
Q 1131 -944 1273 -981 
Q 1416 -1019 1631 -1019 
L 1631 -1241 
L 166 -1241 
z
M 1131 622 
Q 1244 394 1444 245 
Q 1644 97 1881 97 
Q 2103 97 2273 215 
Q 2444 334 2559 534 
Q 2675 734 2729 954 
Q 2784 1175 2784 1381 
Q 2784 1638 2692 1936 
Q 2600 2234 2411 2439 
Q 2222 2644 1953 2644 
Q 1694 2644 1476 2511 
Q 1259 2378 1131 2150 
L 1131 622 
z
" transform="scale(0.015625)"/>
      <path id="Cmsy10-a1" d="M 653 1472 
Q 600 1472 565 1512 
Q 531 1553 531 1600 
Q 531 1647 565 1687 
Q 600 1728 653 1728 
L 4325 1728 
Q 4375 1728 4408 1687 
Q 4441 1647 4441 1600 
Q 4441 1553 4408 1512 
Q 4375 1472 4325 1472 
L 653 1472 
z
" transform="scale(0.015625)"/>
      <path id="Cmmi10-7a" d="M 313 -72 
Q 263 -72 263 -13 
Q 263 19 275 31 
Q 447 328 689 598 
Q 931 869 1239 1145 
Q 1547 1422 1858 1700 
Q 2169 1978 2363 2194 
L 2338 2194 
Q 2197 2194 1925 2284 
Q 1653 2375 1497 2375 
Q 1328 2375 1168 2301 
Q 1009 2228 966 2075 
Q 956 2028 916 2028 
L 838 2028 
Q 788 2028 788 2094 
L 788 2113 
Q 838 2300 952 2462 
Q 1066 2625 1233 2726 
Q 1400 2828 1581 2828 
Q 1709 2828 1793 2770 
Q 1878 2713 1990 2591 
Q 2103 2469 2173 2416 
Q 2244 2363 2350 2363 
Q 2491 2363 2602 2491 
Q 2713 2619 2822 2809 
Q 2841 2828 2869 2828 
L 2944 2828 
Q 2966 2828 2980 2812 
Q 2994 2797 2994 2772 
Q 2994 2750 2981 2731 
Q 2809 2434 2579 2176 
Q 2350 1919 1979 1586 
Q 1609 1253 1354 1023 
Q 1100 794 878 550 
Q 928 563 1013 563 
Q 1169 563 1439 473 
Q 1709 384 1856 384 
Q 2016 384 2178 453 
Q 2341 522 2459 647 
Q 2578 772 2619 934 
Q 2634 978 2669 978 
L 2747 978 
Q 2772 978 2787 958 
Q 2803 938 2803 916 
Q 2803 909 2797 897 
Q 2738 653 2591 433 
Q 2444 213 2230 70 
Q 2016 -72 1772 -72 
Q 1650 -72 1565 -15 
Q 1481 41 1367 164 
Q 1253 288 1181 342 
Q 1109 397 1006 397 
Q 688 397 434 -50 
Q 413 -72 391 -72 
L 313 -72 
z
" transform="scale(0.015625)"/>
      <path id="Cmr10-2b" d="M 481 1472 
Q 428 1472 393 1512 
Q 359 1553 359 1600 
Q 359 1647 393 1687 
Q 428 1728 481 1728 
L 2363 1728 
L 2363 3616 
Q 2363 3666 2400 3698 
Q 2438 3731 2491 3731 
Q 2538 3731 2578 3698 
Q 2619 3666 2619 3616 
L 2619 1728 
L 4500 1728 
Q 4547 1728 4581 1687 
Q 4616 1647 4616 1600 
Q 4616 1553 4581 1512 
Q 4547 1472 4500 1472 
L 2619 1472 
L 2619 -416 
Q 2619 -466 2578 -498 
Q 2538 -531 2491 -531 
Q 2438 -531 2400 -498 
Q 2363 -466 2363 -416 
L 2363 1472 
L 481 1472 
z
" transform="scale(0.015625)"/>
      <path id="Cmmi10-65" d="M 1288 -72 
Q 981 -72 751 87 
Q 522 247 401 517 
Q 281 788 281 1088 
Q 281 1544 511 1945 
Q 741 2347 1134 2587 
Q 1528 2828 1978 2828 
Q 2253 2828 2458 2686 
Q 2663 2544 2663 2278 
Q 2663 1909 2369 1729 
Q 2075 1550 1706 1508 
Q 1338 1466 891 1466 
L 872 1466 
Q 769 1084 769 813 
Q 769 528 900 312 
Q 1031 97 1300 97 
Q 1681 97 2032 272 
Q 2384 447 2606 756 
Q 2625 775 2656 775 
Q 2688 775 2720 739 
Q 2753 703 2753 672 
Q 2753 647 2741 634 
Q 2506 306 2109 117 
Q 1713 -72 1288 -72 
z
M 909 1631 
Q 1281 1631 1597 1665 
Q 1913 1700 2169 1839 
Q 2425 1978 2425 2272 
Q 2425 2391 2359 2480 
Q 2294 2569 2189 2616 
Q 2084 2663 1972 2663 
Q 1700 2663 1483 2516 
Q 1266 2369 1125 2133 
Q 984 1897 909 1631 
z
" transform="scale(0.015625)"/>
      <path id="Cmmi10-3b" d="M 634 -1153 
Q 634 -1125 659 -1100 
Q 891 -878 1019 -587 
Q 1147 -297 1147 25 
L 1147 103 
Q 1044 0 891 0 
Q 744 0 641 103 
Q 538 206 538 353 
Q 538 503 641 603 
Q 744 703 891 703 
Q 1119 703 1216 492 
Q 1313 281 1313 25 
Q 1313 -331 1170 -651 
Q 1028 -972 769 -1228 
Q 744 -1241 728 -1241 
Q 697 -1241 665 -1212 
Q 634 -1184 634 -1153 
z
" transform="scale(0.015625)"/>
      <path id="Cmmi10-46" d="M 300 0 
Q 238 0 238 84 
Q 241 100 250 139 
Q 259 178 276 201 
Q 294 225 319 225 
Q 709 225 863 269 
Q 947 297 984 441 
L 1863 3956 
Q 1875 4019 1875 4044 
Q 1875 4113 1797 4122 
Q 1678 4147 1338 4147 
Q 1275 4147 1275 4231 
Q 1278 4247 1287 4286 
Q 1297 4325 1314 4348 
Q 1331 4372 1356 4372 
L 4738 4372 
Q 4800 4372 4800 4288 
L 4647 2963 
Q 4647 2944 4625 2925 
Q 4603 2906 4581 2906 
L 4525 2906 
Q 4459 2906 4459 2988 
Q 4500 3278 4500 3463 
Q 4500 3781 4362 3931 
Q 4225 4081 4015 4114 
Q 3806 4147 3438 4147 
L 2753 4147 
Q 2578 4147 2522 4117 
Q 2466 4088 2419 3928 
L 2009 2297 
L 2491 2297 
Q 2728 2297 2875 2322 
Q 3022 2347 3119 2419 
Q 3216 2491 3280 2627 
Q 3344 2763 3397 2988 
Q 3416 3047 3463 3047 
L 3519 3047 
Q 3584 3047 3584 2963 
L 3194 1381 
Q 3166 1325 3128 1325 
L 3072 1325 
Q 3009 1325 3009 1409 
Q 3025 1475 3034 1519 
Q 3044 1563 3058 1645 
Q 3072 1728 3072 1791 
Q 3072 1975 2909 2025 
Q 2747 2075 2484 2075 
L 1959 2075 
L 1544 416 
Q 1528 353 1528 353 
Q 1528 278 1575 269 
Q 1741 225 2228 225 
Q 2291 225 2291 141 
Q 2269 50 2256 25 
Q 2244 0 2181 0 
L 300 0 
z
" transform="scale(0.015625)"/>
      <path id="Cmmi10-b9" d="M 178 -1203 
Q 178 -1166 184 -1153 
L 1125 2625 
Q 1153 2716 1226 2772 
Q 1300 2828 1394 2828 
Q 1475 2828 1531 2779 
Q 1588 2731 1588 2650 
Q 1588 2631 1586 2620 
Q 1584 2609 1581 2597 
L 1203 1100 
Q 1141 834 1141 641 
Q 1141 403 1253 250 
Q 1366 97 1594 97 
Q 2059 97 2413 678 
Q 2416 684 2417 687 
Q 2419 691 2419 697 
L 2881 2553 
Q 2903 2638 2981 2698 
Q 3059 2759 3150 2759 
Q 3225 2759 3283 2709 
Q 3341 2659 3341 2578 
Q 3341 2541 3334 2528 
L 2875 684 
Q 2828 503 2828 372 
Q 2828 97 3016 97 
Q 3216 97 3317 344 
Q 3419 591 3494 941 
Q 3506 978 3547 978 
L 3622 978 
Q 3647 978 3664 958 
Q 3681 938 3681 916 
Q 3569 469 3436 198 
Q 3303 -72 3003 -72 
Q 2791 -72 2627 50 
Q 2463 172 2413 378 
Q 2253 178 2039 53 
Q 1825 -72 1588 -72 
Q 1188 -72 959 116 
L 634 -1178 
Q 616 -1269 541 -1325 
Q 466 -1381 372 -1381 
Q 294 -1381 236 -1332 
Q 178 -1284 178 -1203 
z
" transform="scale(0.015625)"/>
     </defs>
     <use xlink:href="#Cmmi10-66" transform="translate(0 0.873437)"/>
     <use xlink:href="#Cmr10-28" transform="translate(48.876953 0.873437)"/>
     <use xlink:href="#Cmmi10-78" transform="translate(87.695312 0.873437)"/>
     <use xlink:href="#Cmr10-29" transform="translate(144.775391 0.873437)"/>
     <use xlink:href="#Cmr10-3d" transform="translate(201.152344 0.873437)"/>
     <use xlink:href="#Cmr10-31" transform="translate(298.396484 38.373438) scale(0.7)"/>
     <use xlink:href="#Cmmi10-af" transform="translate(296.396484 -42.2375) scale(0.7)"/>
     <use xlink:href="#Cmr10-65" transform="translate(348.442383 0.873437)"/>
     <use xlink:href="#Cmr10-78" transform="translate(392.827148 0.873437)"/>
     <use xlink:href="#Cmr10-70" transform="translate(445.512695 0.873437)"/>
     <use xlink:href="#Cmr10-28" transform="translate(501.030273 0.873437)"/>
     <use xlink:href="#Cmsy10-a1" transform="translate(539.848633 0.873437)"/>
     <use xlink:href="#Cmr10-28" transform="translate(617.53418 0.873437)"/>
     <use xlink:href="#Cmmi10-7a" transform="translate(656.352539 0.873437)"/>
     <use xlink:href="#Cmr10-2b" transform="translate(720.395508 0.873437)"/>
     <use xlink:href="#Cmmi10-65" transform="translate(815.639648 0.873437)"/>
     <use xlink:href="#Cmsy10-a1" transform="translate(868.427305 39.1375) scale(0.7)"/>
     <use xlink:href="#Cmmi10-7a" transform="translate(922.807188 39.1375) scale(0.7)"/>
     <use xlink:href="#Cmr10-29" transform="translate(961.723594 0.873437)"/>
     <use xlink:href="#Cmr10-29" transform="translate(1000.541953 0.873437)"/>
     <use xlink:href="#Cmmi10-3b" transform="translate(1039.360312 0.873437)"/>
     <use xlink:href="#Cmmi10-46" transform="translate(1108.991584 0.873437)"/>
     <use xlink:href="#Cmr10-28" transform="translate(1173.298225 0.873437)"/>
     <use xlink:href="#Cmmi10-78" transform="translate(1212.116584 0.873437)"/>
     <use xlink:href="#Cmr10-29" transform="translate(1269.196662 0.873437)"/>
     <use xlink:href="#Cmr10-3d" transform="translate(1325.573615 0.873437)"/>
     <use xlink:href="#Cmr10-65" transform="translate(1420.817756 0.873437)"/>
     <use xlink:href="#Cmr10-78" transform="translate(1465.202521 0.873437)"/>
     <use xlink:href="#Cmr10-70" transform="translate(1517.888068 0.873437)"/>
     <use xlink:href="#Cmr10-28" transform="translate(1573.405646 0.873437)"/>
     <use xlink:href="#Cmsy10-a1" transform="translate(1612.224006 0.873437)"/>
     <use xlink:href="#Cmmi10-65" transform="translate(1689.909553 0.873437)"/>
     <use xlink:href="#Cmsy10-a1" transform="translate(1742.697209 39.1375) scale(0.7)"/>
     <use xlink:href="#Cmmi10-7a" transform="translate(1797.077092 39.1375) scale(0.7)"/>
     <use xlink:href="#Cmr10-29" transform="translate(1835.993498 0.873437)"/>
     <use xlink:href="#Cmmi10-3b" transform="translate(1874.811857 0.873437)"/>
     <use xlink:href="#Cmmi10-7a" transform="translate(1944.443129 0.873437)"/>
     <use xlink:href="#Cmr10-3d" transform="translate(2008.486098 0.873437)"/>
     <use xlink:href="#Cmmi10-78" transform="translate(2103.730238 53.478125) scale(0.7)"/>
     <use xlink:href="#Cmsy10-a1" transform="translate(2155.977309 53.478125) scale(0.7)"/>
     <use xlink:href="#Cmmi10-b9" transform="translate(2222.648207 53.478125) scale(0.7)"/>
     <use xlink:href="#Cmmi10-af" transform="translate(2164.730238 -42.2375) scale(0.7)"/>
     <path d="M 296.396484 13.373437 
L 296.396484 19.623437 
L 335.942383 19.623437 
L 335.942383 13.373437 
L 296.396484 13.373437 
z
"/>
     <path d="M 2103.730238 13.373437 
L 2103.730238 19.623437 
L 2264.791762 19.623437 
L 2264.791762 13.373437 
L 2103.730238 13.373437 
z
"/>
    </g>
   </g>
  </g>
  <g id="axes_2">
   <g id="patch_2">
    <path d="M 60.755313 506.16 
L 466.573494 506.16 
L 466.573494 279.36 
L 60.755313 279.36 
z
" style="fill: #0b1221"/>
   </g>
   <g id="matplotlib.axis_1">
    <g id="xtick_1">
     <g id="line2d_1">
      <path d="M 79.201593 506.16 
L 79.201593 279.36 
" clip-path="url(#pced8ffc4f9)" style="fill: none; stroke: #374151; stroke-opacity: 0.25; stroke-width: 0.8; stroke-linecap: square"/>
     </g>
     <g id="line2d_2">
      <defs>
       <path id="m5b54a9e587" d="M 0 0 
L 0 3.5 
" style="stroke: #9ca3af; stroke-width: 0.8"/>
      </defs>
      <g>
       <use xlink:href="#m5b54a9e587" x="79.201593" y="506.16" style="fill: #9ca3af; stroke: #9ca3af; stroke-width: 0.8"/>
      </g>
     </g>
     <g id="text_3">
      <!-- 5 -->
      <g style="fill: #9ca3af" transform="translate(73.923937 527.54875) scale(0.18 -0.18)">
       <defs>
        <path id="MicrosoftYaHei-35" d="M 3294 1494 
Q 3294 784 2823 350 
Q 2353 -84 1559 -84 
Q 878 -84 544 119 
L 544 744 
Q 1034 425 1544 425 
Q 2050 425 2361 704 
Q 2672 984 2672 1447 
Q 2672 1909 2348 2167 
Q 2025 2425 1434 2425 
Q 978 2425 613 2384 
L 791 4841 
L 3053 4841 
L 3053 4303 
L 1306 4303 
L 1206 2931 
L 1647 2950 
Q 2416 2950 2855 2567 
Q 3294 2184 3294 1494 
z
" transform="scale(0.015625)"/>
       </defs>
       <use xlink:href="#MicrosoftYaHei-35"/>
      </g>
     </g>
    </g>
    <g id="xtick_2">
     <g id="line2d_3">
      <path d="M 152.986717 506.16 
L 152.986717 279.36 
" clip-path="url(#pced8ffc4f9)" style="fill: none; stroke: #374151; stroke-opacity: 0.25; stroke-width: 0.8; stroke-linecap: square"/>
     </g>
     <g id="line2d_4">
      <g>
       <use xlink:href="#m5b54a9e587" x="152.986717" y="506.16" style="fill: #9ca3af; stroke: #9ca3af; stroke-width: 0.8"/>
      </g>
     </g>
     <g id="text_4">
      <!-- 10 -->
      <g style="fill: #9ca3af" transform="translate(142.431405 527.54875) scale(0.18 -0.18)">
       <defs>
        <path id="MicrosoftYaHei-31" d="M 1781 0 
L 1781 4141 
Q 1638 3997 1295 3819 
Q 953 3641 663 3569 
L 663 4169 
Q 1047 4275 1484 4508 
Q 1922 4741 2156 4947 
L 2388 4947 
L 2388 0 
L 1781 0 
z
" transform="scale(0.015625)"/>
        <path id="MicrosoftYaHei-30" d="M 284 2325 
Q 284 3606 709 4264 
Q 1134 4922 1941 4922 
Q 3478 4922 3478 2441 
Q 3478 1216 3045 567 
Q 2613 -81 1831 -81 
Q 1094 -81 689 534 
Q 284 1150 284 2325 
z
M 909 2353 
Q 909 425 1888 425 
Q 2850 425 2850 2384 
Q 2850 4413 1906 4413 
Q 909 4413 909 2353 
z
" transform="scale(0.015625)"/>
       </defs>
       <use xlink:href="#MicrosoftYaHei-31"/>
       <use xlink:href="#MicrosoftYaHei-30" transform="translate(58.642578 0)"/>
      </g>
     </g>
    </g>
    <g id="xtick_3">
     <g id="line2d_5">
      <path d="M 226.771841 506.16 
L 226.771841 279.36 
" clip-path="url(#pced8ffc4f9)" style="fill: none; stroke: #374151; stroke-opacity: 0.25; stroke-width: 0.8; stroke-linecap: square"/>
     </g>
     <g id="line2d_6">
      <g>
       <use xlink:href="#m5b54a9e587" x="226.771841" y="506.16" style="fill: #9ca3af; stroke: #9ca3af; stroke-width: 0.8"/>
      </g>
     </g>
     <g id="text_5">
      <!-- 15 -->
      <g style="fill: #9ca3af" transform="translate(216.216529 527.54875) scale(0.18 -0.18)">
       <use xlink:href="#MicrosoftYaHei-31"/>
       <use xlink:href="#MicrosoftYaHei-35" transform="translate(58.642578 0)"/>
      </g>
     </g>
    </g>
    <g id="xtick_4">
     <g id="line2d_7">
      <path d="M 300.556965 506.16 
L 300.556965 279.36 
" clip-path="url(#pced8ffc4f9)" style="fill: none; stroke: #374151; stroke-opacity: 0.25; stroke-width: 0.8; stroke-linecap: square"/>
     </g>
     <g id="line2d_8">
      <g>
       <use xlink:href="#m5b54a9e587" x="300.556965" y="506.16" style="fill: #9ca3af; stroke: #9ca3af; stroke-width: 0.8"/>
      </g>
     </g>
     <g id="text_6">
      <!-- 20 -->
      <g style="fill: #9ca3af" transform="translate(290.001653 527.54875) scale(0.18 -0.18)">
       <defs>
        <path id="MicrosoftYaHei-32" d="M 2666 3572 
Q 2666 3963 2419 4186 
Q 2172 4409 1747 4409 
Q 1447 4409 1140 4256 
Q 834 4103 569 3819 
L 569 4413 
Q 806 4659 1107 4790 
Q 1409 4922 1816 4922 
Q 2472 4922 2872 4570 
Q 3272 4219 3272 3619 
Q 3272 3084 3026 2693 
Q 2781 2303 2188 1894 
Q 1581 1475 1376 1294 
Q 1172 1113 1090 947 
Q 1009 781 1009 544 
L 3416 544 
L 3416 0 
L 372 0 
L 372 241 
Q 372 659 486 951 
Q 600 1244 862 1520 
Q 1125 1797 1681 2184 
Q 2250 2584 2458 2886 
Q 2666 3188 2666 3572 
z
" transform="scale(0.015625)"/>
       </defs>
       <use xlink:href="#MicrosoftYaHei-32"/>
       <use xlink:href="#MicrosoftYaHei-30" transform="translate(58.642578 0)"/>
      </g>
     </g>
    </g>
    <g id="xtick_5">
     <g id="line2d_9">
      <path d="M 374.342089 506.16 
L 374.342089 279.36 
" clip-path="url(#pced8ffc4f9)" style="fill: none; stroke: #374151; stroke-opacity: 0.25; stroke-width: 0.8; stroke-linecap: square"/>
     </g>
     <g id="line2d_10">
      <g>
       <use xlink:href="#m5b54a9e587" x="374.342089" y="506.16" style="fill: #9ca3af; stroke: #9ca3af; stroke-width: 0.8"/>
      </g>
     </g>
     <g id="text_7">
      <!-- 25 -->
      <g style="fill: #9ca3af" transform="translate(363.786777 527.54875) scale(0.18 -0.18)">
       <use xlink:href="#MicrosoftYaHei-32"/>
       <use xlink:href="#MicrosoftYaHei-35" transform="translate(58.642578 0)"/>
      </g>
     </g>
    </g>
    <g id="xtick_6">
     <g id="line2d_11">
      <path d="M 448.127213 506.16 
L 448.127213 279.36 
" clip-path="url(#pced8ffc4f9)" style="fill: none; stroke: #374151; stroke-opacity: 0.25; stroke-width: 0.8; stroke-linecap: square"/>
     </g>
     <g id="line2d_12">
      <g>
       <use xlink:href="#m5b54a9e587" x="448.127213" y="506.16" style="fill: #9ca3af; stroke: #9ca3af; stroke-width: 0.8"/>
      </g>
     </g>
     <g id="text_8">
      <!-- 30 -->
      <g style="fill: #9ca3af" transform="translate(437.571901 527.54875) scale(0.18 -0.18)">
       <defs>
        <path id="MicrosoftYaHei-33" d="M 447 809 
Q 944 425 1569 425 
Q 2069 425 2361 670 
Q 2653 916 2653 1328 
Q 2653 2247 1338 2247 
L 934 2247 
L 934 2753 
L 1319 2753 
Q 2484 2753 2484 3616 
Q 2484 4413 1594 4413 
Q 1084 4413 634 4069 
L 634 4647 
Q 1109 4922 1744 4922 
Q 2363 4922 2738 4598 
Q 3113 4275 3113 3759 
Q 3113 2809 2144 2538 
L 2144 2525 
Q 2669 2469 2973 2155 
Q 3278 1841 3278 1372 
Q 3278 719 2808 319 
Q 2338 -81 1556 -81 
Q 869 -81 447 175 
L 447 809 
z
" transform="scale(0.015625)"/>
       </defs>
       <use xlink:href="#MicrosoftYaHei-33"/>
       <use xlink:href="#MicrosoftYaHei-30" transform="translate(58.642578 0)"/>
      </g>
     </g>
    </g>
   </g>
   <g id="matplotlib.axis_2">
    <g id="ytick_1">
     <g id="line2d_13">
      <path d="M 60.755313 495.850909 
L 466.573494 495.850909 
" clip-path="url(#pced8ffc4f9)" style="fill: none; stroke: #374151; stroke-opacity: 0.25; stroke-width: 0.8; stroke-linecap: square"/>
     </g>
     <g id="line2d_14">
      <defs>
       <path id="m7f74f21c43" d="M 0 0 
L -3.5 0 
" style="stroke: #9ca3af; stroke-width: 0.8"/>
      </defs>
      <g>
       <use xlink:href="#m7f74f21c43" x="60.755313" y="495.850909" style="fill: #9ca3af; stroke: #9ca3af; stroke-width: 0.8"/>
      </g>
     </g>
     <g id="text_9">
      <!-- 0.000 -->
      <g style="fill: #9ca3af" transform="translate(7.2 503.045284) scale(0.18 -0.18)">
       <defs>
        <path id="MicrosoftYaHei-2e" d="M 372 322 
Q 372 491 487 606 
Q 603 722 775 722 
Q 950 722 1065 605 
Q 1181 488 1181 322 
Q 1181 159 1065 42 
Q 950 -75 772 -75 
Q 600 -75 486 42 
Q 372 159 372 322 
z
" transform="scale(0.015625)"/>
       </defs>
       <use xlink:href="#MicrosoftYaHei-30"/>
       <use xlink:href="#MicrosoftYaHei-2e" transform="translate(58.642578 0)"/>
       <use xlink:href="#MicrosoftYaHei-30" transform="translate(82.714844 0)"/>
       <use xlink:href="#MicrosoftYaHei-30" transform="translate(141.357422 0)"/>
       <use xlink:href="#MicrosoftYaHei-30" transform="translate(200 0)"/>
      </g>
     </g>
    </g>
    <g id="ytick_2">
     <g id="line2d_15">
      <path d="M 60.755313 453.815452 
L 466.573494 453.815452 
" clip-path="url(#pced8ffc4f9)" style="fill: none; stroke: #374151; stroke-opacity: 0.25; stroke-width: 0.8; stroke-linecap: square"/>
     </g>
     <g id="line2d_16">
      <g>
       <use xlink:href="#m7f74f21c43" x="60.755313" y="453.815452" style="fill: #9ca3af; stroke: #9ca3af; stroke-width: 0.8"/>
      </g>
     </g>
     <g id="text_10">
      <!-- 0.025 -->
      <g style="fill: #9ca3af" transform="translate(7.2 461.009827) scale(0.18 -0.18)">
       <use xlink:href="#MicrosoftYaHei-30"/>
       <use xlink:href="#MicrosoftYaHei-2e" transform="translate(58.642578 0)"/>
       <use xlink:href="#MicrosoftYaHei-30" transform="translate(82.714844 0)"/>
       <use xlink:href="#MicrosoftYaHei-32" transform="translate(141.357422 0)"/>
       <use xlink:href="#MicrosoftYaHei-35" transform="translate(200 0)"/>
      </g>
     </g>
    </g>
    <g id="ytick_3">
     <g id="line2d_17">
      <path d="M 60.755313 411.779994 
L 466.573494 411.779994 
" clip-path="url(#pced8ffc4f9)" style="fill: none; stroke: #374151; stroke-opacity: 0.25; stroke-width: 0.8; stroke-linecap: square"/>
     </g>
     <g id="line2d_18">
      <g>
       <use xlink:href="#m7f74f21c43" x="60.755313" y="411.779994" style="fill: #9ca3af; stroke: #9ca3af; stroke-width: 0.8"/>
      </g>
     </g>
     <g id="text_11">
      <!-- 0.050 -->
      <g style="fill: #9ca3af" transform="translate(7.2 418.974369) scale(0.18 -0.18)">
       <use xlink:href="#MicrosoftYaHei-30"/>
       <use xlink:href="#MicrosoftYaHei-2e" transform="translate(58.642578 0)"/>
       <use xlink:href="#MicrosoftYaHei-30" transform="translate(82.714844 0)"/>
       <use xlink:href="#MicrosoftYaHei-35" transform="translate(141.357422 0)"/>
       <use xlink:href="#MicrosoftYaHei-30" transform="translate(200 0)"/>
      </g>
     </g>
    </g>
    <g id="ytick_4">
     <g id="line2d_19">
      <path d="M 60.755313 369.744537 
L 466.573494 369.744537 
" clip-path="url(#pced8ffc4f9)" style="fill: none; stroke: #374151; stroke-opacity: 0.25; stroke-width: 0.8; stroke-linecap: square"/>
     </g>
     <g id="line2d_20">
      <g>
       <use xlink:href="#m7f74f21c43" x="60.755313" y="369.744537" style="fill: #9ca3af; stroke: #9ca3af; stroke-width: 0.8"/>
      </g>
     </g>
     <g id="text_12">
      <!-- 0.075 -->
      <g style="fill: #9ca3af" transform="translate(7.2 376.938912) scale(0.18 -0.18)">
       <defs>
        <path id="MicrosoftYaHei-37" d="M 3422 4463 
Q 2659 3131 2223 1998 
Q 1788 866 1684 0 
L 1047 0 
Q 1163 853 1594 1947 
Q 2025 3041 2747 4300 
L 347 4300 
L 347 4841 
L 3422 4841 
L 3422 4463 
z
" transform="scale(0.015625)"/>
       </defs>
       <use xlink:href="#MicrosoftYaHei-30"/>
       <use xlink:href="#MicrosoftYaHei-2e" transform="translate(58.642578 0)"/>
       <use xlink:href="#MicrosoftYaHei-30" transform="translate(82.714844 0)"/>
       <use xlink:href="#MicrosoftYaHei-37" transform="translate(141.357422 0)"/>
       <use xlink:href="#MicrosoftYaHei-35" transform="translate(200 0)"/>
      </g>
     </g>
    </g>
    <g id="ytick_5">
     <g id="line2d_21">
      <path d="M 60.755313 327.709079 
L 466.573494 327.709079 
" clip-path="url(#pced8ffc4f9)" style="fill: none; stroke: #374151; stroke-opacity: 0.25; stroke-width: 0.8; stroke-linecap: square"/>
     </g>
     <g id="line2d_22">
      <g>
       <use xlink:href="#m7f74f21c43" x="60.755313" y="327.709079" style="fill: #9ca3af; stroke: #9ca3af; stroke-width: 0.8"/>
      </g>
     </g>
     <g id="text_13">
      <!-- 0.100 -->
      <g style="fill: #9ca3af" transform="translate(7.2 334.903454) scale(0.18 -0.18)">
       <use xlink:href="#MicrosoftYaHei-30"/>
       <use xlink:href="#MicrosoftYaHei-2e" transform="translate(58.642578 0)"/>
       <use xlink:href="#MicrosoftYaHei-31" transform="translate(82.714844 0)"/>
       <use xlink:href="#MicrosoftYaHei-30" transform="translate(141.357422 0)"/>
       <use xlink:href="#MicrosoftYaHei-30" transform="translate(200 0)"/>
      </g>
     </g>
    </g>
    <g id="ytick_6">
     <g id="line2d_23">
      <path d="M 60.755313 285.673622 
L 466.573494 285.673622 
" clip-path="url(#pced8ffc4f9)" style="fill: none; stroke: #374151; stroke-opacity: 0.25; stroke-width: 0.8; stroke-linecap: square"/>
     </g>
     <g id="line2d_24">
      <g>
       <use xlink:href="#m7f74f21c43" x="60.755313" y="285.673622" style="fill: #9ca3af; stroke: #9ca3af; stroke-width: 0.8"/>
      </g>
     </g>
     <g id="text_14">
      <!-- 0.125 -->
      <g style="fill: #9ca3af" transform="translate(7.2 292.867997) scale(0.18 -0.18)">
       <use xlink:href="#MicrosoftYaHei-30"/>
       <use xlink:href="#MicrosoftYaHei-2e" transform="translate(58.642578 0)"/>
       <use xlink:href="#MicrosoftYaHei-31" transform="translate(82.714844 0)"/>
       <use xlink:href="#MicrosoftYaHei-32" transform="translate(141.357422 0)"/>
       <use xlink:href="#MicrosoftYaHei-35" transform="translate(200 0)"/>
      </g>
     </g>
    </g>
   </g>
   <g id="line2d_25">
    <path d="M 79.201593 495.850909 
L 120.604068 495.748181 
L 126.518707 495.495071 
L 130.215357 495.143115 
L 133.172676 494.677613 
L 136.129996 493.976563 
L 138.347985 493.247635 
L 140.565975 492.301508 
L 142.783965 491.095937 
L 145.001955 489.586616 
L 147.219944 487.728545 
L 149.437934 485.477606 
L 151.655924 482.792293 
L 153.873913 479.635481 
L 156.091903 475.976167 
L 158.309893 471.791058 
L 160.527882 467.065946 
L 162.745872 461.796773 
L 164.963862 455.990348 
L 167.181852 449.664672 
L 170.139171 440.474596 
L 173.096491 430.51255 
L 176.79314 417.171915 
L 181.22912 400.266426 
L 192.319068 357.553806 
L 196.015718 344.38664 
L 198.973037 334.59554 
L 201.930357 325.601476 
L 204.148347 319.441297 
L 206.366336 313.821626 
L 208.584326 308.769112 
L 210.802316 304.302945 
L 213.020305 300.435128 
L 215.238295 297.170872 
L 216.716955 295.329711 
L 218.195615 293.754652 
L 219.674274 292.442853 
L 221.152934 291.390492 
L 222.631594 290.592842 
L 224.110254 290.044356 
L 225.588914 289.738752 
L 227.067573 289.669091 
L 228.546233 289.827856 
L 230.024893 290.207035 
L 231.503553 290.798191 
L 232.982213 291.592535 
L 234.460872 292.580998 
L 236.678862 294.407303 
L 238.896852 296.617495 
L 241.114841 299.179259 
L 243.332831 302.060287 
L 246.290151 306.343124 
L 249.24747 311.062858 
L 252.94412 317.469138 
L 256.640769 324.317174 
L 261.816079 334.421067 
L 269.948708 350.897631 
L 279.559996 370.276403 
L 285.474635 381.730495 
L 290.649945 391.302537 
L 295.825254 400.380779 
L 300.261233 407.735053 
L 304.697213 414.678051 
L 309.133192 421.203122 
L 313.569172 427.310933 
L 318.005151 433.007952 
L 322.44113 438.305127 
L 326.87711 443.21676 
L 331.313089 447.759571 
L 335.749069 451.951908 
L 340.185048 455.813112 
L 344.621027 459.363002 
L 349.057007 462.621465 
L 353.492986 465.608136 
L 357.928966 468.342162 
L 362.364945 470.842017 
L 367.540254 473.486082 
L 372.715564 475.861983 
L 377.890873 477.994526 
L 383.066182 479.90674 
L 388.980821 481.849527 
L 394.895461 483.561218 
L 401.54943 485.243109 
L 408.203399 486.698825 
L 415.596698 488.086623 
L 423.729327 489.374337 
L 432.601285 490.539199 
L 442.212574 491.567796 
L 448.127213 492.099833 
L 448.127213 492.099833 
" clip-path="url(#pced8ffc4f9)" style="fill: none; stroke: #22d3ee; stroke-width: 3; stroke-linecap: square"/>
   </g>
   <g id="patch_3">
    <path d="M 60.755313 506.16 
L 60.755313 279.36 
" style="fill: none; stroke: #374151; stroke-width: 0.8; stroke-linejoin: miter; stroke-linecap: square"/>
   </g>
   <g id="patch_4">
    <path d="M 466.573494 506.16 
L 466.573494 279.36 
" style="fill: none; stroke: #374151; stroke-width: 0.8; stroke-linejoin: miter; stroke-linecap: square"/>
   </g>
   <g id="patch_5">
    <path d="M 60.755313 506.16 
L 466.573494 506.16 
" style="fill: none; stroke: #374151; stroke-width: 0.8; stroke-linejoin: miter; stroke-linecap: square"/>
   </g>
   <g id="patch_6">
    <path d="M 60.755313 279.36 
L 466.573494 279.36 
" style="fill: none; stroke: #374151; stroke-width: 0.8; stroke-linejoin: miter; stroke-linecap: square"/>
   </g>
   <g id="text_15">
    <!-- 概率密度函数 -->
    <g style="fill: #a5b4fc" transform="translate(198.864403 273.36) scale(0.216 -0.216)">
     <defs>
      <path id="MicrosoftYaHei-6982" d="M 2900 1359 
L 3263 1559 
Q 3519 1141 3869 466 
L 3494 222 
Q 3416 384 3344 528 
Q 3041 325 2544 -22 
Q 2419 -103 2219 -322 
L 1869 91 
Q 2063 303 2063 659 
L 2063 4966 
L 3606 4966 
L 3606 1803 
L 3206 1803 
L 3206 2009 
L 2469 2009 
L 2469 484 
Q 2781 669 3147 916 
Q 3009 1178 2900 1359 
z
M 4313 2584 
L 4850 2584 
Q 4950 3300 4950 4566 
L 3900 4566 
L 3900 4966 
L 6100 4966 
L 6100 4566 
L 5363 4566 
Q 5369 3344 5272 2584 
L 6138 2584 
L 6138 2184 
L 5209 2184 
Q 5156 1897 5075 1628 
L 5281 1628 
L 5281 59 
Q 5281 -228 5500 -228 
L 5619 -228 
Q 5781 -228 5844 22 
Q 5913 284 5900 853 
Q 6131 747 6319 691 
Q 6306 141 6213 -216 
Q 6081 -653 5744 -653 
L 5369 -653 
Q 4869 -653 4869 -3 
L 4869 1072 
Q 4366 -41 3281 -841 
Q 3150 -647 2963 -484 
Q 4425 534 4778 2184 
L 3894 2184 
L 4063 4253 
L 4450 4253 
L 4313 2584 
z
M 75 1384 
Q 569 2369 856 3616 
L 169 3616 
L 169 4003 
L 913 4003 
L 913 5322 
L 1325 5322 
L 1325 4003 
L 1913 4003 
L 1913 3616 
L 1325 3616 
L 1325 2775 
L 1494 2922 
Q 1819 2578 2019 2309 
L 1725 2059 
Q 1534 2341 1325 2588 
L 1325 -822 
L 913 -822 
L 913 2691 
Q 622 1531 256 841 
Q 175 1103 75 1384 
z
M 2469 2397 
L 3206 2397 
L 3206 3297 
L 2469 3297 
L 2469 2397 
z
M 3206 4578 
L 2469 4578 
L 2469 3684 
L 3206 3684 
L 3206 4578 
z
" transform="scale(0.015625)"/>
      <path id="MicrosoftYaHei-7387" d="M 2525 2009 
Q 2622 2016 3928 2081 
Q 3772 2300 3625 2491 
L 3963 2703 
Q 4413 2203 4794 1653 
L 4394 1403 
Q 4284 1569 4178 1725 
Q 2991 1659 2213 1597 
Q 2075 1584 1881 1541 
L 1725 1966 
Q 1913 2028 2006 2084 
Q 2534 2441 3050 2913 
Q 2597 2894 2275 2866 
Q 2144 2847 1988 2809 
L 1800 3191 
Q 1956 3247 2088 3366 
Q 2509 3722 2875 4228 
L 231 4228 
L 231 4666 
L 3031 4666 
Q 2878 4944 2744 5153 
L 3194 5372 
Q 3438 5000 3616 4666 
L 6175 4666 
L 6175 4228 
L 3053 4228 
L 3350 4072 
Q 2844 3553 2494 3247 
Q 2850 3256 3425 3269 
Q 3675 3519 3925 3797 
L 4356 3547 
Q 3363 2603 2525 2009 
z
M 144 991 
L 2994 991 
L 2994 1541 
L 3488 1541 
L 3488 991 
L 6275 991 
L 6275 553 
L 3488 553 
L 3488 -853 
L 2994 -853 
L 2994 553 
L 144 553 
L 144 991 
z
M 1719 2672 
L 1944 2303 
Q 1200 1866 425 1409 
L 163 1828 
Q 813 2134 1719 2672 
z
M 4856 2678 
Q 5750 2172 6250 1816 
L 5975 1409 
Q 5331 1909 4600 2341 
L 4856 2678 
z
M 5994 3591 
Q 5519 3178 4963 2809 
L 4644 3141 
Q 5244 3534 5638 3928 
L 5994 3591 
z
M 363 3634 
L 681 3941 
Q 1200 3528 1588 3159 
L 1238 2816 
Q 875 3197 363 3634 
z
" transform="scale(0.015625)"/>
      <path id="MicrosoftYaHei-5bc6" d="M 63 1622 
Q 947 1872 1800 2228 
L 1800 3659 
L 2244 3659 
L 2244 2419 
Q 3594 3034 4850 3909 
L 5144 3534 
Q 3834 2656 2391 1997 
Q 2522 1872 2775 1872 
L 3975 1872 
Q 4350 1872 4425 2084 
Q 4506 2291 4550 2753 
Q 4756 2666 5025 2572 
Q 4931 2091 4888 1953 
Q 4756 1441 4094 1441 
L 2669 1441 
Q 2128 1441 1925 1794 
Q 1131 1459 300 1191 
Q 197 1419 63 1622 
z
M 5063 -809 
L 5063 -566 
L 850 -566 
L 850 1078 
L 1325 1078 
L 1325 -116 
L 2944 -116 
L 2944 1322 
L 3444 1322 
L 3444 -116 
L 5063 -116 
L 5063 1078 
L 5538 1078 
L 5538 -809 
L 5063 -809 
z
M 331 4672 
L 3009 4672 
Q 2894 4897 2750 5141 
L 3213 5359 
Q 3406 5041 3569 4672 
L 6075 4672 
L 6075 3559 
L 5569 3559 
L 5569 4222 
L 838 4222 
L 838 3559 
L 331 3559 
L 331 4672 
z
M 1063 3534 
L 1500 3366 
Q 1206 2684 863 2116 
Q 663 2216 406 2316 
Q 750 2809 1063 3534 
z
M 5075 3053 
L 5438 3322 
Q 5925 2791 6275 2322 
L 5863 2016 
Q 5531 2503 5075 3053 
z
M 2588 3847 
L 2913 4128 
Q 3331 3797 3656 3478 
L 3294 3141 
Q 2938 3528 2588 3847 
z
" transform="scale(0.015625)"/>
      <path id="MicrosoftYaHei-5ea6" d="M 1550 1216 
L 1550 1628 
L 5469 1628 
L 5469 1222 
Q 4903 613 4147 163 
Q 5050 -200 6263 -309 
L 6019 -797 
Q 4625 -603 3644 -109 
Q 2600 -619 1250 -866 
Q 1150 -666 994 -416 
Q 2231 -222 3166 166 
Q 2497 600 2066 1216 
L 1550 1216 
z
M 1363 3541 
L 2294 3541 
L 2294 4066 
L 2769 4066 
L 2769 3541 
L 4538 3541 
L 4538 4072 
L 5013 4072 
L 5013 3541 
L 6150 3541 
L 6150 3128 
L 5013 3128 
L 5013 1928 
L 4538 1928 
L 4538 2147 
L 2769 2147 
L 2769 1922 
L 2294 1922 
L 2294 3128 
L 1363 3128 
L 1363 3541 
z
M 3025 5172 
L 3481 5391 
Q 3694 5056 3909 4634 
L 6213 4634 
L 6213 4197 
L 1225 4197 
L 1225 2316 
Q 1225 178 394 -872 
Q 238 -666 38 -447 
Q 725 397 738 2347 
L 738 4634 
L 3331 4634 
Q 3188 4909 3025 5172 
z
M 2769 2547 
L 4538 2547 
L 4538 3128 
L 2769 3128 
L 2769 2547 
z
M 4819 1216 
L 2588 1216 
Q 3031 728 3656 391 
Q 4334 741 4819 1216 
z
" transform="scale(0.015625)"/>
      <path id="MicrosoftYaHei-51fd" d="M 5431 -816 
L 5431 -516 
L 469 -516 
L 469 3722 
L 969 3722 
L 969 -53 
L 5431 -53 
L 5431 3722 
L 5931 3722 
L 5931 -816 
L 5431 -816 
z
M 3069 3753 
L 4550 4541 
L 1013 4541 
L 1013 4997 
L 5294 4997 
L 5294 4478 
L 3544 3509 
L 3544 1047 
Q 3544 266 2775 266 
Q 2463 266 1994 278 
Q 1975 491 1919 784 
Q 2319 734 2675 734 
Q 3069 734 3069 1109 
L 3069 3753 
z
M 2681 2372 
L 2938 1978 
Q 2169 1541 1300 1016 
L 1019 1447 
Q 1794 1822 2681 2372 
z
M 3638 1997 
L 3938 2359 
Q 4631 1928 5375 1409 
L 5038 991 
Q 4350 1528 3638 1997 
z
M 1219 3484 
L 1525 3822 
Q 2150 3391 2731 2934 
L 2394 2547 
Q 1788 3066 1219 3484 
z
M 4894 3753 
L 5256 3416 
Q 4763 2997 4150 2522 
L 3825 2878 
Q 4375 3284 4894 3753 
z
" transform="scale(0.015625)"/>
      <path id="MicrosoftYaHei-6570" d="M 4175 5303 
L 4675 5228 
Q 4544 4622 4369 4097 
L 6281 4097 
L 6281 3672 
L 5888 3672 
Q 5731 1834 5088 753 
Q 5594 66 6375 -372 
Q 6175 -647 6038 -866 
Q 5275 -372 4769 309 
Q 4194 -403 3400 -928 
Q 3263 -747 3044 -534 
Q 3919 41 4463 772 
Q 3956 1647 3794 2791 
Q 3663 2559 3519 2359 
Q 3394 2541 3206 2759 
Q 3931 3803 4175 5303 
z
M 150 1697 
L 1100 1697 
Q 1238 1934 1369 2184 
L 1819 2041 
Q 1719 1866 1619 1697 
L 3150 1697 
L 3150 1291 
Q 2913 678 2431 216 
Q 2775 53 3131 -109 
L 2856 -541 
Q 2469 -322 2050 -103 
Q 1344 -609 269 -903 
Q 169 -703 56 -466 
Q 969 -259 1600 128 
Q 1063 403 475 691 
Q 675 978 863 1284 
L 150 1284 
L 150 1697 
z
M 219 3847 
L 1656 3847 
L 1656 5247 
L 2119 5247 
L 2119 3847 
L 3319 3847 
L 3319 3434 
L 2119 3434 
L 2119 3053 
L 2306 3266 
Q 2888 2841 3281 2516 
L 2981 2166 
Q 2638 2491 2119 2897 
L 2119 2184 
L 1656 2184 
L 1656 3059 
Q 1088 2466 331 2016 
Q 213 2197 63 2397 
Q 850 2822 1506 3434 
L 219 3434 
L 219 3847 
z
M 5388 3672 
L 4219 3672 
Q 4188 3591 4150 3516 
Q 4263 2191 4775 1247 
Q 5275 2159 5388 3672 
z
M 1088 834 
Q 1531 634 2000 416 
Q 2431 784 2675 1284 
L 1375 1284 
Q 1231 1053 1088 834 
z
M 3038 5091 
L 3425 4834 
Q 3081 4384 2738 4003 
Q 2594 4128 2400 4266 
Q 2725 4647 3038 5091 
z
M 381 4816 
L 738 5059 
Q 1019 4716 1319 4322 
L 931 4047 
Q 656 4453 381 4816 
z
" transform="scale(0.015625)"/>
     </defs>
     <use xlink:href="#MicrosoftYaHei-6982"/>
     <use xlink:href="#MicrosoftYaHei-7387" transform="translate(100 0)"/>
     <use xlink:href="#MicrosoftYaHei-5bc6" transform="translate(200 0)"/>
     <use xlink:href="#MicrosoftYaHei-5ea6" transform="translate(300 0)"/>
     <use xlink:href="#MicrosoftYaHei-51fd" transform="translate(400 0)"/>
     <use xlink:href="#MicrosoftYaHei-6570" transform="translate(500 0)"/>
    </g>
   </g>
   <g id="legend_1">
    <g id="patch_7">
     <path d="M 362.086307 321.623437 
L 453.973494 321.623437 
Q 457.573494 321.623437 457.573494 318.023437 
L 457.573494 291.96 
Q 457.573494 288.36 453.973494 288.36 
L 362.086307 288.36 
Q 358.486307 288.36 358.486307 291.96 
L 358.486307 318.023437 
Q 358.486307 321.623437 362.086307 321.623437 
z
" style="fill: #111827; opacity: 0.8; stroke: #374151; stroke-linejoin: miter"/>
    </g>
    <g id="line2d_26">
     <path d="M 365.686307 303.64875 
L 383.686307 303.64875 
L 401.686307 303.64875 
" style="fill: none; stroke: #22d3ee; stroke-width: 3; stroke-linecap: square"/>
    </g>
    <g id="text_16">
     <!-- PDF -->
     <g style="fill: #e5e7eb" transform="translate(416.086307 309.94875) scale(0.18 -0.18)">
      <use xlink:href="#MicrosoftYaHei-50"/>
      <use xlink:href="#MicrosoftYaHei-44" transform="translate(61.181641 0)"/>
      <use xlink:href="#MicrosoftYaHei-46" transform="translate(137.353516 0)"/>
     </g>
    </g>
   </g>
  </g>
  <g id="axes_3">
   <g id="patch_8">
    <path d="M 547.737131 506.16 
L 953.555312 506.16 
L 953.555312 279.36 
L 547.737131 279.36 
z
" style="fill: #0b1221"/>
   </g>
   <g id="matplotlib.axis_3">
    <g id="xtick_7">
     <g id="line2d_27">
      <path d="M 566.183412 506.16 
L 566.183412 279.36 
" clip-path="url(#padcfdd61ec)" style="fill: none; stroke: #374151; stroke-opacity: 0.25; stroke-width: 0.8; stroke-linecap: square"/>
     </g>
     <g id="line2d_28">
      <g>
       <use xlink:href="#m5b54a9e587" x="566.183412" y="506.16" style="fill: #9ca3af; stroke: #9ca3af; stroke-width: 0.8"/>
      </g>
     </g>
     <g id="text_17">
      <!-- 5 -->
      <g style="fill: #9ca3af" transform="translate(560.905755 527.54875) scale(0.18 -0.18)">
       <use xlink:href="#MicrosoftYaHei-35"/>
      </g>
     </g>
    </g>
    <g id="xtick_8">
     <g id="line2d_29">
      <path d="M 639.968536 506.16 
L 639.968536 279.36 
" clip-path="url(#padcfdd61ec)" style="fill: none; stroke: #374151; stroke-opacity: 0.25; stroke-width: 0.8; stroke-linecap: square"/>
     </g>
     <g id="line2d_30">
      <g>
       <use xlink:href="#m5b54a9e587" x="639.968536" y="506.16" style="fill: #9ca3af; stroke: #9ca3af; stroke-width: 0.8"/>
      </g>
     </g>
     <g id="text_18">
      <!-- 10 -->
      <g style="fill: #9ca3af" transform="translate(629.413223 527.54875) scale(0.18 -0.18)">
       <use xlink:href="#MicrosoftYaHei-31"/>
       <use xlink:href="#MicrosoftYaHei-30" transform="translate(58.642578 0)"/>
      </g>
     </g>
    </g>
    <g id="xtick_9">
     <g id="line2d_31">
      <path d="M 713.75366 506.16 
L 713.75366 279.36 
" clip-path="url(#padcfdd61ec)" style="fill: none; stroke: #374151; stroke-opacity: 0.25; stroke-width: 0.8; stroke-linecap: square"/>
     </g>
     <g id="line2d_32">
      <g>
       <use xlink:href="#m5b54a9e587" x="713.75366" y="506.16" style="fill: #9ca3af; stroke: #9ca3af; stroke-width: 0.8"/>
      </g>
     </g>
     <g id="text_19">
      <!-- 15 -->
      <g style="fill: #9ca3af" transform="translate(703.198347 527.54875) scale(0.18 -0.18)">
       <use xlink:href="#MicrosoftYaHei-31"/>
       <use xlink:href="#MicrosoftYaHei-35" transform="translate(58.642578 0)"/>
      </g>
     </g>
    </g>
    <g id="xtick_10">
     <g id="line2d_33">
      <path d="M 787.538784 506.16 
L 787.538784 279.36 
" clip-path="url(#padcfdd61ec)" style="fill: none; stroke: #374151; stroke-opacity: 0.25; stroke-width: 0.8; stroke-linecap: square"/>
     </g>
     <g id="line2d_34">
      <g>
       <use xlink:href="#m5b54a9e587" x="787.538784" y="506.16" style="fill: #9ca3af; stroke: #9ca3af; stroke-width: 0.8"/>
      </g>
     </g>
     <g id="text_20">
      <!-- 20 -->
      <g style="fill: #9ca3af" transform="translate(776.983471 527.54875) scale(0.18 -0.18)">
       <use xlink:href="#MicrosoftYaHei-32"/>
       <use xlink:href="#MicrosoftYaHei-30" transform="translate(58.642578 0)"/>
      </g>
     </g>
    </g>
    <g id="xtick_11">
     <g id="line2d_35">
      <path d="M 861.323908 506.16 
L 861.323908 279.36 
" clip-path="url(#padcfdd61ec)" style="fill: none; stroke: #374151; stroke-opacity: 0.25; stroke-width: 0.8; stroke-linecap: square"/>
     </g>
     <g id="line2d_36">
      <g>
       <use xlink:href="#m5b54a9e587" x="861.323908" y="506.16" style="fill: #9ca3af; stroke: #9ca3af; stroke-width: 0.8"/>
      </g>
     </g>
     <g id="text_21">
      <!-- 25 -->
      <g style="fill: #9ca3af" transform="translate(850.768595 527.54875) scale(0.18 -0.18)">
       <use xlink:href="#MicrosoftYaHei-32"/>
       <use xlink:href="#MicrosoftYaHei-35" transform="translate(58.642578 0)"/>
      </g>
     </g>
    </g>
    <g id="xtick_12">
     <g id="line2d_37">
      <path d="M 935.109032 506.16 
L 935.109032 279.36 
" clip-path="url(#padcfdd61ec)" style="fill: none; stroke: #374151; stroke-opacity: 0.25; stroke-width: 0.8; stroke-linecap: square"/>
     </g>
     <g id="line2d_38">
      <g>
       <use xlink:href="#m5b54a9e587" x="935.109032" y="506.16" style="fill: #9ca3af; stroke: #9ca3af; stroke-width: 0.8"/>
      </g>
     </g>
     <g id="text_22">
      <!-- 30 -->
      <g style="fill: #9ca3af" transform="translate(924.553719 527.54875) scale(0.18 -0.18)">
       <use xlink:href="#MicrosoftYaHei-33"/>
       <use xlink:href="#MicrosoftYaHei-30" transform="translate(58.642578 0)"/>
      </g>
     </g>
    </g>
   </g>
   <g id="matplotlib.axis_4">
    <g id="ytick_7">
     <g id="line2d_39">
      <path d="M 547.737131 495.850909 
L 953.555312 495.850909 
" clip-path="url(#padcfdd61ec)" style="fill: none; stroke: #374151; stroke-opacity: 0.25; stroke-width: 0.8; stroke-linecap: square"/>
     </g>
     <g id="line2d_40">
      <g>
       <use xlink:href="#m7f74f21c43" x="547.737131" y="495.850909" style="fill: #9ca3af; stroke: #9ca3af; stroke-width: 0.8"/>
      </g>
     </g>
     <g id="text_23">
      <!-- 0.0 -->
      <g style="fill: #9ca3af" transform="translate(515.292443 503.045284) scale(0.18 -0.18)">
       <use xlink:href="#MicrosoftYaHei-30"/>
       <use xlink:href="#MicrosoftYaHei-2e" transform="translate(58.642578 0)"/>
       <use xlink:href="#MicrosoftYaHei-30" transform="translate(82.714844 0)"/>
      </g>
     </g>
    </g>
    <g id="ytick_8">
     <g id="line2d_41">
      <path d="M 547.737131 454.335759 
L 953.555312 454.335759 
" clip-path="url(#padcfdd61ec)" style="fill: none; stroke: #374151; stroke-opacity: 0.25; stroke-width: 0.8; stroke-linecap: square"/>
     </g>
     <g id="line2d_42">
      <g>
       <use xlink:href="#m7f74f21c43" x="547.737131" y="454.335759" style="fill: #9ca3af; stroke: #9ca3af; stroke-width: 0.8"/>
      </g>
     </g>
     <g id="text_24">
      <!-- 0.2 -->
      <g style="fill: #9ca3af" transform="translate(515.292443 461.530134) scale(0.18 -0.18)">
       <use xlink:href="#MicrosoftYaHei-30"/>
       <use xlink:href="#MicrosoftYaHei-2e" transform="translate(58.642578 0)"/>
       <use xlink:href="#MicrosoftYaHei-32" transform="translate(82.714844 0)"/>
      </g>
     </g>
    </g>
    <g id="ytick_9">
     <g id="line2d_43">
      <path d="M 547.737131 412.820609 
L 953.555312 412.820609 
" clip-path="url(#padcfdd61ec)" style="fill: none; stroke: #374151; stroke-opacity: 0.25; stroke-width: 0.8; stroke-linecap: square"/>
     </g>
     <g id="line2d_44">
      <g>
       <use xlink:href="#m7f74f21c43" x="547.737131" y="412.820609" style="fill: #9ca3af; stroke: #9ca3af; stroke-width: 0.8"/>
      </g>
     </g>
     <g id="text_25">
      <!-- 0.4 -->
      <g style="fill: #9ca3af" transform="translate(515.292443 420.014984) scale(0.18 -0.18)">
       <defs>
        <path id="MicrosoftYaHei-34" d="M 2906 4841 
L 2906 1644 
L 3631 1644 
L 3631 1138 
L 2906 1138 
L 2906 0 
L 2313 0 
L 2313 1138 
L 53 1138 
L 53 1616 
Q 656 2294 1265 3178 
Q 1875 4063 2272 4841 
L 2906 4841 
z
M 741 1644 
L 2313 1644 
L 2313 3950 
Q 1988 3366 1616 2817 
Q 1244 2269 741 1644 
z
" transform="scale(0.015625)"/>
       </defs>
       <use xlink:href="#MicrosoftYaHei-30"/>
       <use xlink:href="#MicrosoftYaHei-2e" transform="translate(58.642578 0)"/>
       <use xlink:href="#MicrosoftYaHei-34" transform="translate(82.714844 0)"/>
      </g>
     </g>
    </g>
    <g id="ytick_10">
     <g id="line2d_45">
      <path d="M 547.737131 371.305458 
L 953.555312 371.305458 
" clip-path="url(#padcfdd61ec)" style="fill: none; stroke: #374151; stroke-opacity: 0.25; stroke-width: 0.8; stroke-linecap: square"/>
     </g>
     <g id="line2d_46">
      <g>
       <use xlink:href="#m7f74f21c43" x="547.737131" y="371.305458" style="fill: #9ca3af; stroke: #9ca3af; stroke-width: 0.8"/>
      </g>
     </g>
     <g id="text_26">
      <!-- 0.6 -->
      <g style="fill: #9ca3af" transform="translate(515.292443 378.499833) scale(0.18 -0.18)">
       <defs>
        <path id="MicrosoftYaHei-36" d="M 3181 4219 
Q 2803 4413 2391 4413 
Q 1763 4413 1381 3866 
Q 1000 3319 994 2372 
L 1009 2372 
Q 1353 3038 2106 3038 
Q 2734 3038 3109 2628 
Q 3484 2219 3484 1541 
Q 3484 831 3051 375 
Q 2619 -81 1947 -81 
Q 1209 -81 789 495 
Q 369 1072 369 2131 
Q 369 3413 920 4167 
Q 1472 4922 2372 4922 
Q 2888 4922 3181 4781 
L 3181 4219 
z
M 1031 1584 
Q 1031 1106 1286 765 
Q 1541 425 1963 425 
Q 2363 425 2613 719 
Q 2863 1013 2863 1475 
Q 2863 1975 2627 2253 
Q 2391 2531 1956 2531 
Q 1544 2531 1287 2250 
Q 1031 1969 1031 1584 
z
" transform="scale(0.015625)"/>
       </defs>
       <use xlink:href="#MicrosoftYaHei-30"/>
       <use xlink:href="#MicrosoftYaHei-2e" transform="translate(58.642578 0)"/>
       <use xlink:href="#MicrosoftYaHei-36" transform="translate(82.714844 0)"/>
      </g>
     </g>
    </g>
    <g id="ytick_11">
     <g id="line2d_47">
      <path d="M 547.737131 329.790308 
L 953.555312 329.790308 
" clip-path="url(#padcfdd61ec)" style="fill: none; stroke: #374151; stroke-opacity: 0.25; stroke-width: 0.8; stroke-linecap: square"/>
     </g>
     <g id="line2d_48">
      <g>
       <use xlink:href="#m7f74f21c43" x="547.737131" y="329.790308" style="fill: #9ca3af; stroke: #9ca3af; stroke-width: 0.8"/>
      </g>
     </g>
     <g id="text_27">
      <!-- 0.8 -->
      <g style="fill: #9ca3af" transform="translate(515.292443 336.984683) scale(0.18 -0.18)">
       <defs>
        <path id="MicrosoftYaHei-38" d="M 306 1350 
Q 306 1769 556 2122 
Q 806 2475 1200 2625 
Q 884 2803 700 3081 
Q 516 3359 516 3684 
Q 516 4028 692 4312 
Q 869 4597 1183 4759 
Q 1497 4922 1875 4922 
Q 2256 4922 2572 4761 
Q 2888 4600 3063 4315 
Q 3238 4031 3238 3684 
Q 3238 3366 3058 3086 
Q 2878 2806 2559 2625 
Q 2953 2472 3200 2119 
Q 3447 1766 3447 1350 
Q 3447 938 3250 611 
Q 3053 284 2690 103 
Q 2328 -78 1875 -78 
Q 1425 -78 1065 103 
Q 706 284 506 612 
Q 306 941 306 1350 
z
M 906 1378 
Q 906 947 1172 687 
Q 1438 428 1878 428 
Q 2309 428 2582 692 
Q 2856 956 2856 1378 
Q 2856 1778 2579 2051 
Q 2303 2325 1878 2325 
Q 1456 2325 1181 2058 
Q 906 1791 906 1378 
z
M 1081 3634 
Q 1081 3309 1312 3076 
Q 1544 2844 1878 2844 
Q 2206 2844 2445 3078 
Q 2684 3313 2684 3634 
Q 2684 3963 2454 4191 
Q 2225 4419 1878 4419 
Q 1534 4419 1307 4195 
Q 1081 3972 1081 3634 
z
" transform="scale(0.015625)"/>
       </defs>
       <use xlink:href="#MicrosoftYaHei-30"/>
       <use xlink:href="#MicrosoftYaHei-2e" transform="translate(58.642578 0)"/>
       <use xlink:href="#MicrosoftYaHei-38" transform="translate(82.714844 0)"/>
      </g>
     </g>
    </g>
    <g id="ytick_12">
     <g id="line2d_49">
      <path d="M 547.737131 288.275158 
L 953.555312 288.275158 
" clip-path="url(#padcfdd61ec)" style="fill: none; stroke: #374151; stroke-opacity: 0.25; stroke-width: 0.8; stroke-linecap: square"/>
     </g>
     <g id="line2d_50">
      <g>
       <use xlink:href="#m7f74f21c43" x="547.737131" y="288.275158" style="fill: #9ca3af; stroke: #9ca3af; stroke-width: 0.8"/>
      </g>
     </g>
     <g id="text_28">
      <!-- 1.0 -->
      <g style="fill: #9ca3af" transform="translate(515.292443 295.469533) scale(0.18 -0.18)">
       <use xlink:href="#MicrosoftYaHei-31"/>
       <use xlink:href="#MicrosoftYaHei-2e" transform="translate(58.642578 0)"/>
       <use xlink:href="#MicrosoftYaHei-30" transform="translate(82.714844 0)"/>
      </g>
     </g>
    </g>
   </g>
   <g id="line2d_51">
    <path d="M 566.183412 495.850909 
L 623.851144 495.749047 
L 631.244443 495.522084 
L 637.159082 495.114429 
L 641.595061 494.589794 
L 645.291711 493.952846 
L 648.98836 493.086243 
L 651.94568 492.196343 
L 654.903 491.106328 
L 657.860319 489.794229 
L 660.817639 488.240299 
L 663.774958 486.427778 
L 666.732278 484.343542 
L 669.689598 481.978588 
L 672.646917 479.32836 
L 675.604237 476.392889 
L 678.561556 473.17676 
L 682.258206 468.775959 
L 685.954855 463.977171 
L 689.651505 458.81514 
L 694.087484 452.200176 
L 699.262794 444.006391 
L 705.177433 434.184521 
L 714.788721 417.702849 
L 725.13934 400.050389 
L 731.793309 389.134742 
L 737.707948 379.875477 
L 742.883258 372.18282 
L 748.058567 364.910975 
L 752.494546 359.030508 
L 756.930526 353.483507 
L 761.366505 348.271878 
L 765.802485 343.392972 
L 770.238464 338.840424 
L 774.674443 334.604925 
L 779.110423 330.674903 
L 783.546402 327.037126 
L 787.982382 323.677213 
L 792.418361 320.580071 
L 796.85434 317.730252 
L 801.29032 315.112246 
L 806.465629 312.330448 
L 811.640938 309.819584 
L 816.816248 307.556873 
L 821.991557 305.520674 
L 827.906196 303.444884 
L 833.820835 301.610133 
L 840.474804 299.80196 
L 847.128773 298.232652 
L 854.522072 296.732851 
L 861.915371 295.454834 
L 870.048 294.267554 
L 878.919959 293.192354 
L 889.270578 292.176918 
L 900.360526 291.318703 
L 912.929135 290.570641 
L 927.715733 289.921438 
L 935.109032 289.669091 
L 935.109032 289.669091 
" clip-path="url(#padcfdd61ec)" style="fill: none; stroke: #a78bfa; stroke-width: 3; stroke-linecap: square"/>
   </g>
   <g id="patch_9">
    <path d="M 547.737131 506.16 
L 547.737131 279.36 
" style="fill: none; stroke: #374151; stroke-width: 0.8; stroke-linejoin: miter; stroke-linecap: square"/>
   </g>
   <g id="patch_10">
    <path d="M 953.555312 506.16 
L 953.555312 279.36 
" style="fill: none; stroke: #374151; stroke-width: 0.8; stroke-linejoin: miter; stroke-linecap: square"/>
   </g>
   <g id="patch_11">
    <path d="M 547.737131 506.16 
L 953.555312 506.16 
" style="fill: none; stroke: #374151; stroke-width: 0.8; stroke-linejoin: miter; stroke-linecap: square"/>
   </g>
   <g id="patch_12">
    <path d="M 547.737131 279.36 
L 953.555312 279.36 
" style="fill: none; stroke: #374151; stroke-width: 0.8; stroke-linejoin: miter; stroke-linecap: square"/>
   </g>
   <g id="text_29">
    <!-- 累积分布函数 -->
    <g style="fill: #a5b4fc" transform="translate(685.846222 273.36) scale(0.216 -0.216)">
     <defs>
      <path id="MicrosoftYaHei-7d2f" d="M 4550 1991 
Q 5425 1278 5944 772 
L 5600 422 
Q 5356 675 5097 922 
Q 4334 891 3556 856 
L 3556 22 
Q 3556 -753 2775 -753 
Q 2375 -753 1881 -747 
Q 1844 -497 1788 -228 
Q 2269 -272 2650 -272 
Q 3069 -272 3069 184 
L 3069 834 
Q 2231 794 1375 753 
Q 1100 741 844 703 
L 675 1178 
Q 1056 1222 1531 1403 
Q 2172 1650 2916 1984 
Q 2138 1959 1531 1922 
Q 1231 1903 1081 1884 
L 919 2297 
Q 1231 2359 1550 2503 
Q 1969 2691 2378 2909 
L 1206 2909 
L 1206 2728 
L 731 2728 
L 731 5103 
L 5675 5103 
L 5675 2728 
L 5200 2728 
L 5200 2909 
L 3125 2909 
Q 2434 2559 1763 2272 
Q 2581 2294 3669 2334 
Q 4100 2538 4563 2772 
L 4888 2434 
Q 3394 1728 1825 1147 
Q 3403 1216 4684 1297 
Q 4456 1500 4219 1697 
L 4550 1991 
z
M 3431 3272 
L 5200 3272 
L 5200 3841 
L 3431 3841 
L 3431 3272 
z
M 1206 3272 
L 2969 3272 
L 2969 3841 
L 1206 3841 
L 1206 3272 
z
M 5200 4741 
L 3431 4741 
L 3431 4178 
L 5200 4178 
L 5200 4741 
z
M 1206 4178 
L 2969 4178 
L 2969 4741 
L 1206 4741 
L 1206 4178 
z
M 1894 572 
L 2175 184 
Q 1263 -272 381 -616 
Q 288 -422 163 -197 
Q 1094 166 1894 572 
z
M 4431 547 
Q 5363 234 6219 -147 
L 6025 -572 
Q 5188 -191 4219 134 
L 4431 547 
z
" transform="scale(0.015625)"/>
      <path id="MicrosoftYaHei-79ef" d="M 2813 4784 
L 5975 4784 
L 5975 1528 
L 5500 1528 
L 5500 1828 
L 3288 1828 
L 3288 1528 
L 2813 1528 
L 2813 4784 
z
M 88 853 
Q 669 1728 1056 2947 
L 119 2947 
L 119 3384 
L 1119 3384 
L 1119 4378 
Q 713 4347 244 4316 
Q 213 4541 150 4772 
Q 1425 4841 2375 4978 
L 2488 4503 
Q 2106 4459 1581 4416 
L 1581 3384 
L 2513 3384 
L 2513 2947 
L 1581 2947 
L 1581 2066 
L 1831 2297 
Q 2213 1922 2644 1441 
L 2288 1128 
Q 1950 1541 1581 1934 
L 1581 -853 
L 1119 -853 
L 1119 1928 
Q 781 997 306 316 
Q 206 591 88 853 
z
M 5500 4359 
L 3288 4359 
L 3288 2253 
L 5500 2253 
L 5500 4359 
z
M 3475 1128 
L 3888 834 
Q 3175 -66 2519 -759 
Q 2369 -597 2163 -416 
Q 2925 353 3475 1128 
z
M 4775 828 
L 5163 1097 
Q 5738 441 6356 -372 
L 5919 -703 
Q 5369 109 4775 828 
z
" transform="scale(0.015625)"/>
     </defs>
     <use xlink:href="#MicrosoftYaHei-7d2f"/>
     <use xlink:href="#MicrosoftYaHei-79ef" transform="translate(100 0)"/>
     <use xlink:href="#MicrosoftYaHei-5206" transform="translate(200 0)"/>
     <use xlink:href="#MicrosoftYaHei-5e03" transform="translate(300 0)"/>
     <use xlink:href="#MicrosoftYaHei-51fd" transform="translate(400 0)"/>
     <use xlink:href="#MicrosoftYaHei-6570" transform="translate(500 0)"/>
    </g>
   </g>
   <g id="legend_2">
    <g id="patch_13">
     <path d="M 560.337131 321.623437 
L 653.250881 321.623437 
Q 656.850881 321.623437 656.850881 318.023437 
L 656.850881 291.96 
Q 656.850881 288.36 653.250881 288.36 
L 560.337131 288.36 
Q 556.737131 288.36 556.737131 291.96 
L 556.737131 318.023437 
Q 556.737131 321.623437 560.337131 321.623437 
z
" style="fill: #111827; opacity: 0.8; stroke: #374151; stroke-linejoin: miter"/>
    </g>
    <g id="line2d_52">
     <path d="M 563.937131 303.64875 
L 581.937131 303.64875 
L 599.937131 303.64875 
" style="fill: none; stroke: #a78bfa; stroke-width: 3; stroke-linecap: square"/>
    </g>
    <g id="text_30">
     <!-- CDF -->
     <g style="fill: #e5e7eb" transform="translate(614.337131 309.94875) scale(0.18 -0.18)">
      <use xlink:href="#MicrosoftYaHei-43"/>
      <use xlink:href="#MicrosoftYaHei-44" transform="translate(66.894531 0)"/>
      <use xlink:href="#MicrosoftYaHei-46" transform="translate(143.066406 0)"/>
     </g>
    </g>
   </g>
  </g>
 </g>
 <defs>
  <clipPath id="pced8ffc4f9">
   <rect x="60.755313" y="279.36" width="405.818182" height="226.8"/>
  </clipPath>
  <clipPath id="padcfdd61ec">
   <rect x="547.737131" y="279.36" width="405.818182" height="226.8"/>
  </clipPath>
 </defs>
</svg>
