<?xml version="1.0" encoding="utf-8" standalone="no"?>
<!DOCTYPE svg PUBLIC "-//W3C//DTD SVG 1.1//EN"
  "http://www.w3.org/Graphics/SVG/1.1/DTD/svg11.dtd">
<svg xmlns:xlink="http://www.w3.org/1999/xlink" width="907.2pt" height="513.36pt" viewBox="0 0 907.2 513.36" xmlns="http://www.w3.org/2000/svg" version="1.1">
 <metadata>
  <rdf:RDF xmlns:dc="http://purl.org/dc/elements/1.1/" xmlns:cc="http://creativecommons.org/ns#" xmlns:rdf="http://www.w3.org/1999/02/22-rdf-syntax-ns#">
   <cc:Work>
    <dc:type rdf:resource="http://purl.org/dc/dcmitype/StillImage"/>
    <dc:date>2025-11-04T16:06:03.056587</dc:date>
    <dc:format>image/svg+xml</dc:format>
    <dc:creator>
     <cc:Agent>
      <dc:title>Matplotlib v3.10.3, https://matplotlib.org/</dc:title>
     </cc:Agent>
    </dc:creator>
   </cc:Work>
  </rdf:RDF>
 </metadata>
 <defs>
  <style type="text/css">*{stroke-linejoin: round; stroke-linecap: butt}</style>
 </defs>
 <g id="figure_1">
  <g id="patch_1">
   <path d="M 0 513.36 
L 907.2 513.36 
L 907.2 -0 
L 0 -0 
z
" style="fill: #0b1221"/>
  </g>
  <g id="axes_1">
   <g id="text_1">
    <!-- 江西典型工程案例（示意） -->
    <g style="fill: #00f3ff" transform="translate(213.6 108.028425) scale(0.4 -0.4)">
     <defs>
      <path id="MicrosoftYaHei-6c5f" d="M 1781 97 
L 3781 97 
L 3781 4228 
L 2156 4228 
L 2156 4691 
L 6038 4691 
L 6038 4228 
L 4306 4228 
L 4306 97 
L 6313 97 
L 6313 -366 
L 1781 -366 
L 1781 97 
z
M 1169 1803 
Q 1419 1641 1681 1509 
Q 1231 391 800 -816 
L 269 -516 
Q 763 522 1169 1803 
z
M 394 3616 
Q 1031 3228 1650 2772 
L 1300 2316 
Q 675 2828 94 3209 
L 394 3616 
z
M 713 5209 
Q 1294 4816 1919 4316 
L 1581 3891 
Q 994 4416 406 4847 
L 713 5209 
z
" transform="scale(0.015625)"/>
      <path id="MicrosoftYaHei-897f" d="M 175 4916 
L 6250 4916 
L 6250 4466 
L 4231 4466 
L 4231 3541 
L 6000 3541 
L 6000 -847 
L 5500 -847 
L 5500 -459 
L 1050 -459 
L 1050 -847 
L 550 -847 
L 550 3541 
L 2256 3541 
Q 2269 3984 2275 4466 
L 175 4466 
L 175 4916 
z
M 4531 1528 
L 5500 1528 
L 5500 3091 
L 4231 3091 
L 4231 1841 
Q 4231 1528 4531 1528 
z
M 2756 3541 
L 3738 3541 
L 3738 4466 
L 2769 4466 
Q 2763 3966 2756 3541 
z
M 5500 -9 
L 5500 1078 
L 4344 1078 
Q 3738 1078 3738 1766 
L 3738 3091 
L 2738 3091 
Q 2675 1628 1525 778 
Q 1369 972 1150 1178 
Q 2163 1841 2238 3091 
L 1050 3091 
L 1050 -9 
L 5500 -9 
z
" transform="scale(0.015625)"/>
      <path id="MicrosoftYaHei-5178" d="M 2256 5284 
L 2719 5284 
L 2719 4509 
L 3706 4509 
L 3706 5284 
L 4169 5284 
L 4169 4509 
L 5619 4509 
L 5619 1284 
L 6225 1284 
L 6225 822 
L 200 822 
L 200 1284 
L 806 1284 
L 806 4509 
L 2256 4509 
L 2256 5284 
z
M 4000 597 
Q 5094 116 6163 -372 
L 5913 -847 
Q 4750 -266 3750 172 
L 4000 597 
z
M 2369 622 
L 2625 197 
Q 1663 -291 500 -841 
Q 369 -622 206 -391 
Q 1450 153 2369 622 
z
M 4169 1284 
L 5156 1284 
L 5156 2447 
L 4169 2447 
L 4169 1284 
z
M 1269 1284 
L 2256 1284 
L 2256 2447 
L 1269 2447 
L 1269 1284 
z
M 2719 1284 
L 3706 1284 
L 3706 2447 
L 2719 2447 
L 2719 1284 
z
M 2719 2909 
L 3706 2909 
L 3706 4047 
L 2719 4047 
L 2719 2909 
z
M 5156 4047 
L 4169 4047 
L 4169 2909 
L 5156 2909 
L 5156 4047 
z
M 1269 2909 
L 2256 2909 
L 2256 4047 
L 1269 4047 
L 1269 2909 
z
" transform="scale(0.015625)"/>
      <path id="MicrosoftYaHei-578b" d="M 150 3503 
L 1100 3503 
Q 1106 3638 1106 4547 
L 413 4547 
L 413 4959 
L 3675 4959 
L 3675 4547 
L 2994 4547 
L 2994 3503 
L 3881 3503 
L 3881 3091 
L 2994 3091 
L 2994 1747 
L 2538 1747 
L 2538 3091 
L 1528 3091 
Q 1450 2191 638 1534 
Q 475 1716 294 1897 
Q 1013 2453 1066 3091 
L 150 3091 
L 150 3503 
z
M 138 -103 
L 2938 -103 
L 2938 741 
L 706 741 
L 706 1172 
L 2938 1172 
L 2938 1659 
L 3425 1659 
L 3425 1172 
L 5713 1172 
L 5713 741 
L 3425 741 
L 3425 -103 
L 6256 -103 
L 6256 -534 
L 138 -534 
L 138 -103 
z
M 5856 5209 
L 5856 2334 
Q 5856 1672 5200 1659 
Q 4825 1647 4331 1659 
Q 4306 1897 4256 2153 
Q 4781 2122 5044 2122 
Q 5400 2122 5400 2516 
L 5400 5209 
L 5856 5209 
z
M 1556 3503 
L 2538 3503 
L 2538 4547 
L 1563 4547 
Q 1563 3791 1556 3503 
z
M 4138 4859 
L 4588 4859 
L 4588 2697 
L 4138 2697 
L 4138 4859 
z
" transform="scale(0.015625)"/>
      <path id="MicrosoftYaHei-5de5" d="M 181 97 
L 2919 97 
L 2919 4266 
L 538 4266 
L 538 4766 
L 5863 4766 
L 5863 4266 
L 3469 4266 
L 3469 97 
L 6213 97 
L 6213 -391 
L 181 -391 
L 181 97 
z
" transform="scale(0.015625)"/>
      <path id="MicrosoftYaHei-7a0b" d="M 2750 5028 
L 5850 5028 
L 5850 2884 
L 5375 2884 
L 5375 3141 
L 3225 3141 
L 3225 2884 
L 2750 2884 
L 2750 5028 
z
M 44 903 
Q 663 1806 994 3041 
L 119 3041 
L 119 3453 
L 1094 3453 
L 1094 4431 
Q 700 4375 288 4328 
Q 238 4541 156 4759 
Q 1219 4847 2300 5097 
L 2438 4659 
Q 2003 4572 1544 4497 
L 1544 3453 
L 2413 3453 
L 2413 3041 
L 1544 3041 
L 1544 2216 
L 1788 2428 
Q 2038 2172 2519 1609 
L 2144 1303 
Q 1781 1766 1544 2050 
L 1544 -841 
L 1094 -841 
L 1094 2153 
Q 763 1078 256 359 
Q 156 628 44 903 
z
M 2250 -84 
L 4038 -84 
L 4038 841 
L 2619 841 
L 2619 1259 
L 4038 1259 
L 4038 2109 
L 2469 2109 
L 2469 2528 
L 6113 2528 
L 6113 2109 
L 4538 2109 
L 4538 1259 
L 5956 1259 
L 5956 841 
L 4538 841 
L 4538 -84 
L 6325 -84 
L 6325 -503 
L 2250 -503 
L 2250 -84 
z
M 5375 4603 
L 3225 4603 
L 3225 3566 
L 5375 3566 
L 5375 4603 
z
" transform="scale(0.015625)"/>
      <path id="MicrosoftYaHei-6848" d="M 419 1822 
Q 1925 1994 2766 2219 
Q 2016 2419 1250 2609 
Q 1506 2884 1738 3153 
L 250 3153 
L 250 3566 
L 2075 3566 
Q 2313 3866 2513 4159 
L 3019 4016 
Q 2850 3791 2659 3566 
L 6150 3566 
L 6150 3153 
L 4806 3153 
Q 4509 2625 4003 2297 
Q 4897 2063 5681 1847 
L 5481 1428 
Q 4491 1741 3466 2025 
Q 2516 1650 600 1409 
Q 525 1609 419 1822 
z
M 6319 -197 
Q 6106 -447 5956 -666 
Q 4306 -172 3425 544 
L 3425 -866 
L 2975 -866 
L 2975 534 
Q 2028 -134 456 -672 
Q 313 -491 94 -247 
Q 1706 156 2647 747 
L 238 747 
L 238 1166 
L 2975 1166 
L 2975 1678 
L 3425 1678 
L 3425 1166 
L 6200 1166 
L 6200 747 
L 3766 747 
Q 4753 81 6319 -197 
z
M 419 4734 
L 3038 4734 
Q 2919 4950 2763 5178 
L 3206 5378 
Q 3409 5059 3591 4734 
L 5975 4734 
L 5975 3791 
L 5500 3791 
L 5500 4322 
L 894 4322 
L 894 3791 
L 419 3791 
L 419 4734 
z
M 1963 2809 
Q 2725 2622 3425 2444 
Q 3975 2688 4284 3153 
L 2294 3153 
Q 2134 2981 1963 2809 
z
" transform="scale(0.015625)"/>
      <path id="MicrosoftYaHei-4f8b" d="M 2381 1841 
L 2631 2191 
Q 2916 1997 3247 1738 
Q 3488 2378 3581 3128 
L 2703 3128 
Q 2350 1984 1831 1291 
Q 1700 1491 1531 1678 
Q 2238 2694 2578 4522 
L 1900 4522 
L 1900 4959 
L 4319 4959 
L 4319 4522 
L 3044 4522 
Q 2947 4009 2828 3559 
L 4044 3559 
L 4044 3128 
Q 3788 666 2038 -822 
Q 1900 -634 1694 -416 
Q 2578 297 3063 1303 
Q 2753 1556 2381 1841 
z
M 88 2291 
Q 894 3659 1281 5322 
L 1744 5234 
Q 1578 4534 1325 3853 
L 1325 -809 
L 900 -809 
L 900 2847 
Q 625 2275 288 1716 
Q 213 1966 88 2291 
z
M 5575 5303 
L 6031 5303 
L 6031 84 
Q 6031 -391 5881 -566 
Q 5750 -728 5356 -734 
Q 5088 -741 4488 -722 
Q 4463 -466 4400 -203 
Q 4881 -253 5188 -253 
Q 5431 -259 5500 -166 
Q 5575 -84 5575 234 
L 5575 5303 
z
M 4913 653 
L 4469 653 
L 4469 4322 
L 4913 4322 
L 4913 653 
z
" transform="scale(0.015625)"/>
      <path id="MicrosoftYaHei-ff08" d="M 5288 -1100 
Q 4172 119 4172 1850 
Q 4172 3603 5288 4838 
L 5825 4838 
Q 4716 3572 4716 1856 
Q 4716 166 5819 -1100 
L 5288 -1100 
z
" transform="scale(0.015625)"/>
      <path id="MicrosoftYaHei-793a" d="M 100 3072 
L 6300 3072 
L 6300 2603 
L 3619 2603 
L 3619 78 
Q 3619 -703 2800 -709 
Q 2366 -709 1825 -703 
Q 1788 -447 1731 -128 
Q 2225 -178 2663 -178 
Q 3088 -178 3088 241 
L 3088 2603 
L 100 2603 
L 100 3072 
z
M 675 4916 
L 5744 4916 
L 5744 4447 
L 675 4447 
L 675 4916 
z
M 4413 1847 
L 4831 2128 
Q 5600 1184 6319 159 
L 5863 -141 
Q 5088 991 4413 1847 
z
M 1481 2141 
L 1938 1884 
Q 1281 747 538 -278 
Q 344 -134 125 16 
Q 825 922 1481 2141 
z
" transform="scale(0.015625)"/>
      <path id="MicrosoftYaHei-610f" d="M 2706 759 
L 3022 1028 
L 1419 1028 
L 1419 834 
L 956 834 
L 956 2997 
L 5406 2997 
L 5406 834 
L 4944 834 
L 4944 1028 
L 3038 1028 
Q 3447 681 3756 353 
L 3388 47 
Q 3125 353 2706 759 
z
M 150 3722 
L 1906 3722 
Q 1659 3956 1406 4172 
L 1594 4347 
L 538 4347 
L 538 4722 
L 3028 4722 
Q 2900 4984 2763 5216 
L 3188 5397 
Q 3391 5044 3538 4722 
L 5863 4722 
L 5863 4347 
L 4772 4347 
L 4988 4184 
Q 4738 3953 4472 3722 
L 6250 3722 
L 6250 3347 
L 150 3347 
L 150 3722 
z
M 1650 791 
L 2125 791 
L 2125 78 
Q 2125 -284 2538 -284 
L 3819 -284 
Q 4269 -284 4350 59 
Q 4413 297 4463 622 
Q 4681 528 4931 447 
Q 4856 91 4794 -128 
Q 4644 -709 3950 -709 
L 2438 -709 
Q 1650 -709 1650 34 
L 1650 791 
z
M 1419 1391 
L 4944 1391 
L 4944 1841 
L 1419 1841 
L 1419 1391 
z
M 4944 2634 
L 1419 2634 
L 1419 2191 
L 4944 2191 
L 4944 2634 
z
M 3925 3834 
Q 4178 4047 4481 4347 
L 1838 4347 
Q 2116 4141 2381 3909 
L 2191 3722 
L 4038 3722 
L 3925 3834 
z
M 656 759 
L 1094 591 
Q 869 22 569 -559 
Q 381 -472 131 -366 
Q 388 97 656 759 
z
M 5175 503 
L 5531 778 
Q 5975 303 6325 -116 
L 5931 -428 
Q 5550 72 5175 503 
z
" transform="scale(0.015625)"/>
      <path id="MicrosoftYaHei-ff09" d="M 1113 -1100 
L 575 -1100 
Q 1684 163 1684 1888 
Q 1684 3581 581 4838 
L 1113 4838 
Q 2222 3628 2222 1888 
Q 2222 128 1113 -1100 
z
" transform="scale(0.015625)"/>
     </defs>
     <use xlink:href="#MicrosoftYaHei-6c5f"/>
     <use xlink:href="#MicrosoftYaHei-897f" transform="translate(100 0)"/>
     <use xlink:href="#MicrosoftYaHei-5178" transform="translate(200 0)"/>
     <use xlink:href="#MicrosoftYaHei-578b" transform="translate(300 0)"/>
     <use xlink:href="#MicrosoftYaHei-5de5" transform="translate(400 0)"/>
     <use xlink:href="#MicrosoftYaHei-7a0b" transform="translate(500 0)"/>
     <use xlink:href="#MicrosoftYaHei-6848" transform="translate(600 0)"/>
     <use xlink:href="#MicrosoftYaHei-4f8b" transform="translate(700 0)"/>
     <use xlink:href="#MicrosoftYaHei-ff08" transform="translate(800 0)"/>
     <use xlink:href="#MicrosoftYaHei-793a" transform="translate(900 0)"/>
     <use xlink:href="#MicrosoftYaHei-610f" transform="translate(1000 0)"/>
     <use xlink:href="#MicrosoftYaHei-ff09" transform="translate(1100 0)"/>
    </g>
   </g>
   <g id="text_2">
    <!-- • 鄱阳湖流域洪水风险评估：极值分布拟合历史数据 -->
    <g style="fill: #d1d5db" transform="translate(141.12 188.445375) scale(0.24 -0.24)">
     <defs>
      <path id="MicrosoftYaHei-2022" d="M 525 2084 
Q 525 2459 778 2712 
Q 1031 2966 1406 2966 
Q 1800 2966 2044 2712 
Q 2288 2459 2288 2084 
Q 2288 1706 2044 1454 
Q 1800 1203 1406 1203 
Q 1031 1203 778 1456 
Q 525 1709 525 2084 
z
" transform="scale(0.015625)"/>
      <path id="MicrosoftYaHei-20" transform="scale(0.015625)"/>
      <path id="MicrosoftYaHei-9131" d="M 525 1922 
L 3444 1922 
L 3444 -778 
L 3038 -778 
L 3038 -497 
L 931 -497 
L 931 -816 
L 525 -816 
L 525 1922 
z
M 6281 1297 
Q 6281 241 5488 178 
Q 5175 141 4688 203 
Q 4669 466 4619 703 
Q 5081 634 5375 634 
Q 5875 634 5831 1391 
Q 5788 2134 4950 2797 
Q 5281 3522 5700 4591 
L 4500 4591 
L 4500 -853 
L 4050 -853 
L 4050 5016 
L 6169 5016 
L 6169 4516 
Q 5763 3572 5463 2884 
Q 6281 2178 6281 1297 
z
M 219 3516 
L 1769 3516 
L 1769 4597 
Q 1081 4572 425 4559 
Q 381 4816 325 4972 
Q 1806 4972 3544 5109 
L 3669 4691 
Q 2919 4647 2200 4616 
L 2200 3516 
L 3731 3516 
L 3731 3153 
L 2200 3153 
L 2200 2766 
L 2319 2997 
Q 3081 2691 3769 2391 
L 3569 1997 
Q 2881 2347 2200 2622 
L 2200 2022 
L 1769 2022 
L 1769 2966 
Q 1175 2341 363 1934 
Q 206 2153 81 2291 
Q 950 2634 1550 3153 
L 219 3153 
L 219 3516 
z
M 931 -122 
L 1781 -122 
L 1781 541 
L 931 541 
L 931 -122 
z
M 2188 -122 
L 3038 -122 
L 3038 541 
L 2188 541 
L 2188 -122 
z
M 3038 1547 
L 2188 1547 
L 2188 891 
L 3038 891 
L 3038 1547 
z
M 931 891 
L 1781 891 
L 1781 1547 
L 931 1547 
L 931 891 
z
M 2500 3834 
Q 2838 4147 3131 4491 
L 3444 4253 
Q 3163 3922 2794 3597 
L 2500 3834 
z
M 531 4266 
L 838 4472 
Q 1194 4109 1406 3834 
L 1063 3597 
Q 806 3972 531 4266 
z
" transform="scale(0.015625)"/>
      <path id="MicrosoftYaHei-9633" d="M 2750 -809 
L 2750 4941 
L 5994 4941 
L 5994 -803 
L 5500 -803 
L 5500 -397 
L 3244 -397 
L 3244 -809 
L 2750 -809 
z
M 2338 1616 
Q 2506 428 1744 272 
Q 1438 228 1075 266 
Q 1025 522 938 791 
Q 1281 709 1550 741 
Q 1981 822 1838 1634 
Q 1750 2141 1275 2759 
Q 1556 3603 1838 4578 
L 875 4578 
L 875 -841 
L 400 -841 
L 400 5016 
L 2338 5016 
L 2338 4578 
Q 2106 3816 1769 2841 
Q 2269 2159 2338 1616 
z
M 3244 66 
L 5500 66 
L 5500 2091 
L 3244 2091 
L 3244 66 
z
M 5500 4478 
L 3244 4478 
L 3244 2541 
L 5500 2541 
L 5500 4478 
z
" transform="scale(0.015625)"/>
      <path id="MicrosoftYaHei-6e56" d="M 4038 5003 
L 5863 5003 
L 5863 -109 
Q 5863 -697 5256 -697 
Q 4894 -697 4538 -678 
Q 4519 -497 4463 -203 
Q 4938 -247 5144 -247 
Q 5419 -247 5419 28 
L 5419 1447 
L 4431 1447 
Q 4388 216 3400 -834 
Q 3231 -666 3006 -491 
Q 3644 97 3844 747 
Q 4038 1334 4038 2753 
L 4038 5003 
z
M 1744 2603 
L 2425 2603 
L 2425 3628 
L 1563 3628 
L 1563 4053 
L 2425 4053 
L 2425 5303 
L 2881 5303 
L 2881 4053 
L 3750 4053 
L 3750 3628 
L 2881 3628 
L 2881 2603 
L 3525 2603 
L 3525 416 
L 2181 416 
L 2181 -22 
L 1744 -22 
L 1744 2603 
z
M 3088 828 
L 3088 2191 
L 2181 2191 
L 2181 828 
L 3088 828 
z
M 913 1772 
Q 1206 1616 1406 1541 
Q 1213 853 781 -766 
L 269 -528 
Q 663 553 913 1772 
z
M 4459 1834 
L 5419 1834 
L 5419 3022 
L 4481 3022 
Q 4488 2453 4459 1834 
z
M 5419 4597 
L 4481 4597 
L 4481 3409 
L 5419 3409 
L 5419 4597 
z
M 388 3572 
Q 875 3184 1406 2728 
Q 1169 2478 1038 2334 
Q 650 2716 75 3228 
L 388 3572 
z
M 675 5178 
Q 1188 4766 1650 4341 
Q 1444 4147 1281 3972 
Q 931 4359 356 4872 
L 675 5178 
z
" transform="scale(0.015625)"/>
      <path id="MicrosoftYaHei-6d41" d="M 5013 3741 
Q 5500 3178 6094 2372 
Q 5863 2228 5644 2078 
Q 5488 2306 5341 2516 
Q 3806 2447 2519 2378 
Q 2319 2372 2019 2303 
L 1806 2772 
Q 2038 2891 2244 3059 
Q 2728 3472 3206 4078 
L 1819 4078 
L 1819 4522 
L 3803 4522 
Q 3566 4891 3350 5166 
L 3763 5422 
Q 3994 5128 4288 4734 
L 3963 4522 
L 6088 4522 
L 6088 4078 
L 3325 4078 
L 3738 3903 
Q 3156 3278 2650 2853 
Q 3659 2884 5041 2934 
Q 4822 3228 4625 3478 
L 5013 3741 
z
M 4681 2109 
L 5150 2109 
L 5150 16 
Q 5150 -272 5375 -272 
L 5594 -272 
Q 5788 -272 5838 47 
Q 5881 384 5894 834 
Q 6113 734 6363 653 
Q 6319 128 6269 -153 
Q 6194 -709 5675 -709 
L 5288 -709 
Q 4681 -709 4681 22 
L 4681 2109 
z
M 2306 2084 
L 2781 2084 
Q 2781 716 2525 166 
Q 2269 -441 1488 -866 
Q 1344 -634 1169 -453 
Q 1881 -78 2075 409 
Q 2306 884 2306 2084 
z
M 275 -616 
Q 650 484 925 1809 
Q 1200 1691 1431 1616 
Q 1150 534 825 -784 
L 275 -616 
z
M 3538 2084 
L 4006 2084 
L 4006 -703 
L 3538 -703 
L 3538 2084 
z
M 81 3247 
L 394 3609 
Q 900 3259 1456 2803 
Q 1231 2541 1094 2397 
Q 444 2978 81 3247 
z
M 325 4878 
L 644 5209 
Q 1100 4847 1663 4347 
L 1294 3978 
Q 775 4503 325 4878 
z
" transform="scale(0.015625)"/>
      <path id="MicrosoftYaHei-57df" d="M 3231 -522 
Q 3941 63 4484 841 
Q 4269 1816 4219 3803 
L 2025 3803 
L 2025 4241 
L 4206 4241 
Q 4197 4747 4194 5328 
L 4675 5328 
Q 4669 4759 4675 4241 
L 6219 4241 
L 6219 3803 
L 4684 3803 
Q 4716 2384 4853 1419 
Q 5300 2191 5606 3122 
L 6050 2934 
Q 5572 1691 4981 763 
Q 5113 269 5313 -41 
Q 5481 -309 5600 -309 
Q 5713 -309 5756 -41 
Q 5813 284 5844 934 
Q 6113 828 6313 772 
Q 6225 34 6163 -272 
Q 6056 -822 5656 -828 
Q 5350 -822 5088 -522 
Q 4828 -234 4647 275 
Q 4169 -372 3625 -834 
Q 3450 -684 3231 -522 
z
M 69 441 
Q 478 566 875 697 
L 875 3141 
L 138 3141 
L 138 3578 
L 875 3578 
L 875 5316 
L 1338 5316 
L 1338 3578 
L 2031 3578 
L 2031 3141 
L 1338 3141 
L 1338 853 
Q 1666 966 1988 1084 
Q 1988 1016 2031 622 
Q 1156 303 188 -66 
L 69 441 
z
M 2175 3103 
L 3769 3103 
L 3769 1159 
L 3338 1159 
L 3338 1303 
L 2606 1303 
L 2606 1084 
L 2175 1084 
L 2175 3103 
z
M 1694 353 
Q 2825 528 3981 766 
Q 3975 666 4006 341 
Q 3081 172 1856 -84 
L 1694 353 
z
M 3338 2703 
L 2606 2703 
L 2606 1703 
L 3338 1703 
L 3338 2703 
z
M 5188 5241 
Q 5650 4916 5931 4666 
L 5644 4334 
Q 5363 4603 4919 4953 
L 5188 5241 
z
" transform="scale(0.015625)"/>
      <path id="MicrosoftYaHei-6d2a" d="M 1650 1741 
L 2675 1741 
L 2675 3616 
L 1894 3616 
L 1894 4091 
L 2675 4091 
L 2675 5278 
L 3175 5278 
L 3175 4091 
L 4675 4091 
L 4675 5303 
L 5175 5303 
L 5175 4091 
L 6013 4091 
L 6013 3616 
L 5175 3616 
L 5175 1741 
L 6263 1741 
L 6263 1266 
L 1650 1266 
L 1650 1741 
z
M 3175 1741 
L 4675 1741 
L 4675 3616 
L 3175 3616 
L 3175 1741 
z
M 938 1809 
Q 1181 1703 1431 1603 
Q 1100 528 725 -766 
L 194 -578 
Q 644 709 938 1809 
z
M 3050 1003 
L 3463 716 
Q 2781 -122 1944 -809 
Q 1769 -616 1569 -441 
Q 2419 178 3050 1003 
z
M 4413 697 
L 4750 997 
Q 5456 397 6244 -372 
L 5825 -747 
Q 5169 -3 4413 697 
z
M 406 3603 
Q 956 3222 1506 2778 
Q 1275 2503 1138 2359 
Q 594 2859 100 3253 
L 406 3603 
z
M 663 5203 
Q 1250 4741 1713 4328 
Q 1500 4097 1344 3928 
Q 719 4534 325 4872 
L 663 5203 
z
" transform="scale(0.015625)"/>
      <path id="MicrosoftYaHei-6c34" d="M 2925 5297 
L 3431 5297 
L 3431 4294 
Q 3700 3563 4047 2934 
Q 4738 3509 5425 4309 
L 5844 3934 
Q 5113 3169 4300 2506 
Q 5125 1200 6319 384 
Q 6056 122 5894 -84 
Q 4250 1209 3431 3119 
L 3431 197 
Q 3431 -734 2538 -734 
Q 2263 -734 1725 -728 
Q 1694 -497 1625 -166 
Q 2125 -216 2438 -216 
Q 2925 -216 2925 253 
L 2925 5297 
z
M 256 3297 
L 256 3772 
L 2413 3772 
L 2413 3316 
Q 1881 1266 475 -197 
Q 263 47 94 184 
Q 1506 1672 1913 3297 
L 256 3297 
z
" transform="scale(0.015625)"/>
      <path id="MicrosoftYaHei-98ce" d="M 1206 4466 
L 1206 2709 
Q 1206 1297 1056 572 
Q 900 -178 450 -853 
Q 200 -559 75 -422 
Q 425 141 569 816 
Q 700 1447 700 2684 
L 700 4928 
L 5325 4928 
L 5325 1516 
Q 5325 391 5469 -53 
Q 5531 -197 5625 -197 
Q 5725 -197 5756 22 
Q 5806 353 5844 1078 
Q 6131 966 6319 909 
Q 6256 253 6188 -147 
Q 6075 -766 5606 -766 
Q 5256 -766 5025 -297 
Q 4819 134 4819 1503 
L 4819 4466 
L 1206 4466 
z
M 1594 3734 
L 1981 4022 
Q 2497 3313 3038 2534 
Q 3513 3309 3938 4147 
L 4363 3941 
Q 3897 2991 3344 2097 
Q 3956 1206 4600 234 
L 4163 -66 
Q 3584 834 3050 1634 
Q 2438 703 1731 -166 
Q 1575 -28 1325 141 
Q 2084 1053 2750 2078 
Q 2141 2975 1594 3734 
z
" transform="scale(0.015625)"/>
      <path id="MicrosoftYaHei-9669" d="M 2094 1572 
Q 2288 372 1544 228 
Q 1338 184 969 222 
Q 919 447 850 672 
L 850 -822 
L 400 -822 
L 400 4972 
L 2156 4972 
L 2156 4534 
Q 1806 3403 1600 2797 
Q 2000 2216 2094 1572 
z
M 2013 -128 
L 4556 -128 
Q 5069 1228 5369 2216 
L 5888 2034 
Q 5656 1372 5088 -128 
L 6144 -128 
L 6144 -591 
L 2013 -591 
L 2013 -128 
z
M 4463 5278 
L 4381 5091 
Q 5113 3859 6319 3203 
Q 6113 2953 5975 2766 
Q 4831 3547 4138 4647 
Q 3438 3572 2250 2709 
Q 2131 2872 1925 3103 
Q 3288 4009 3956 5278 
L 4463 5278 
z
M 1363 678 
Q 1794 722 1638 1591 
Q 1550 2078 1113 2728 
Q 1388 3566 1663 4541 
L 850 4541 
L 850 722 
Q 1125 653 1363 678 
z
M 2663 3003 
L 5538 3003 
L 5538 2553 
L 2663 2553 
L 2663 3003 
z
M 2381 1934 
L 2806 2097 
Q 3131 1253 3400 347 
L 2913 191 
Q 2681 1122 2381 1934 
z
M 3619 2166 
L 4063 2303 
Q 4356 1409 4531 666 
L 4031 534 
Q 3875 1391 3619 2166 
z
" transform="scale(0.015625)"/>
      <path id="MicrosoftYaHei-8bc4" d="M 1750 2028 
L 3775 2028 
L 3775 4447 
L 2088 4447 
L 2088 4916 
L 5975 4916 
L 5975 4447 
L 4281 4447 
L 4281 2028 
L 6319 2028 
L 6319 1553 
L 4281 1553 
L 4281 -797 
L 3775 -797 
L 3775 1553 
L 1750 1553 
L 1750 2028 
z
M 2219 866 
Q 2238 553 2263 328 
Q 1456 -228 963 -628 
L 669 -209 
Q 881 -28 881 303 
L 881 2716 
L 100 2716 
L 100 3166 
L 1363 3166 
L 1363 241 
Q 1775 534 2219 866 
z
M 4725 2697 
Q 5175 3309 5563 4028 
L 6019 3753 
Q 5613 3091 5125 2403 
L 4725 2697 
z
M 2056 3791 
L 2450 4028 
Q 2919 3353 3288 2716 
L 2850 2434 
Q 2431 3209 2056 3791 
z
M 738 5222 
Q 1419 4522 1725 4184 
L 1288 3816 
Q 894 4334 356 4891 
L 738 5222 
z
" transform="scale(0.015625)"/>
      <path id="MicrosoftYaHei-4f30" d="M 2250 2284 
L 3781 2284 
L 3781 3553 
L 1800 3553 
L 1800 4016 
L 3781 4016 
L 3781 5316 
L 4294 5316 
L 4294 4016 
L 6300 4016 
L 6300 3553 
L 4294 3553 
L 4294 2284 
L 5831 2284 
L 5831 -841 
L 5319 -841 
L 5319 -353 
L 2763 -353 
L 2763 -841 
L 2250 -841 
L 2250 2284 
z
M 5319 1822 
L 2763 1822 
L 2763 97 
L 5319 97 
L 5319 1822 
z
M 44 2259 
Q 919 3559 1431 5347 
L 1944 5197 
Q 1713 4494 1456 3878 
L 1456 -853 
L 963 -853 
L 963 2834 
Q 634 2213 269 1716 
Q 175 1984 44 2259 
z
" transform="scale(0.015625)"/>
      <path id="MicrosoftYaHei-ff1a" d="M 1606 3531 
Q 1772 3531 1890 3415 
Q 2009 3300 2009 3138 
Q 2009 2975 1893 2858 
Q 1778 2741 1606 2741 
Q 1434 2741 1318 2858 
Q 1203 2975 1203 3138 
Q 1203 3300 1322 3415 
Q 1441 3531 1606 3531 
z
M 1606 716 
Q 1772 716 1890 600 
Q 2009 484 2009 319 
Q 2009 150 1890 36 
Q 1772 -78 1606 -78 
Q 1441 -78 1322 36 
Q 1203 150 1203 319 
Q 1203 484 1322 600 
Q 1441 716 1606 716 
z
" transform="scale(0.015625)"/>
      <path id="MicrosoftYaHei-6781" d="M 3263 2528 
Q 3163 466 1994 -828 
Q 1813 -641 1613 -478 
Q 2406 391 2638 1409 
Q 2863 2284 2844 4472 
L 2288 4472 
L 2288 4916 
L 5406 4916 
L 5406 4447 
L 4800 3191 
L 5888 3191 
L 5888 2728 
Q 5531 1578 4881 709 
Q 5550 72 6331 -316 
Q 6131 -497 5913 -778 
Q 5169 -316 4556 309 
Q 3919 -391 3063 -872 
Q 2888 -641 2713 -472 
Q 3600 34 4213 691 
Q 3638 1403 3263 2528 
z
M 81 1359 
Q 731 2372 1000 3578 
L 125 3578 
L 125 3997 
L 1006 3997 
L 1006 5234 
L 1438 5234 
L 1438 3997 
L 2250 3997 
L 2250 3578 
L 1438 3578 
L 1438 2659 
L 1638 2859 
Q 2088 2466 2456 2097 
L 2131 1759 
Q 1825 2103 1438 2484 
L 1438 -834 
L 1006 -834 
L 1006 2384 
Q 700 1409 281 809 
Q 200 1078 81 1359 
z
M 4281 3203 
L 4881 4472 
L 3319 4472 
Q 3319 4016 3313 3616 
Q 3800 1978 4538 1084 
Q 5106 1828 5369 2747 
L 4281 2747 
L 4281 3203 
z
" transform="scale(0.015625)"/>
      <path id="MicrosoftYaHei-503c" d="M 1619 -216 
L 2250 -216 
L 2250 3653 
L 3725 3653 
L 3725 4222 
L 1913 4222 
L 1913 4647 
L 3725 4647 
L 3725 5309 
L 4200 5309 
L 4200 4647 
L 6169 4647 
L 6169 4222 
L 4200 4222 
L 4200 3653 
L 5713 3653 
L 5713 -216 
L 6306 -216 
L 6306 -641 
L 1619 -641 
L 1619 -216 
z
M 69 2247 
Q 906 3497 1369 5278 
L 1831 5141 
Q 1581 4334 1288 3628 
L 1288 -816 
L 831 -816 
L 831 2666 
Q 563 2166 263 1734 
Q 175 1997 69 2247 
z
M 2713 -216 
L 5250 -216 
L 5250 353 
L 2713 353 
L 2713 -216 
z
M 5250 3241 
L 2713 3241 
L 2713 2678 
L 5250 2678 
L 5250 3241 
z
M 2713 1716 
L 5250 1716 
L 5250 2278 
L 2713 2278 
L 2713 1716 
z
M 2713 753 
L 5250 753 
L 5250 1316 
L 2713 1316 
L 2713 753 
z
" transform="scale(0.015625)"/>
      <path id="MicrosoftYaHei-5206" d="M 900 2559 
L 5056 2559 
Q 5025 1497 4963 484 
Q 4888 -684 3856 -678 
Q 3350 -684 2788 -647 
Q 2750 -384 2700 -116 
Q 3181 -184 3775 -191 
Q 4400 -203 4463 541 
Q 4513 1216 4538 2097 
L 2616 2097 
Q 2541 1053 2181 416 
Q 1706 -422 588 -878 
Q 425 -666 231 -459 
Q 1269 -72 1725 666 
Q 2053 1225 2103 2097 
L 900 2097 
L 900 2559 
z
M 3488 5159 
L 3938 5353 
Q 4625 3678 6350 2847 
Q 6069 2553 5944 2372 
Q 4225 3366 3488 5159 
z
M 50 2766 
Q 1338 3678 2250 5253 
L 2694 5009 
Q 1744 3347 413 2341 
Q 281 2534 50 2766 
z
" transform="scale(0.015625)"/>
      <path id="MicrosoftYaHei-5e03" d="M 3250 3666 
L 3750 3666 
L 3750 2703 
L 5681 2703 
L 5681 541 
Q 5681 -197 5050 -197 
Q 4888 -197 4119 -191 
Q 4081 16 4019 316 
Q 4644 278 4769 278 
Q 5188 266 5188 666 
L 5188 2253 
L 3750 2253 
L 3750 -828 
L 3250 -828 
L 3250 2253 
L 1844 2253 
L 1844 -353 
L 1350 -353 
L 1350 2113 
Q 928 1553 450 1028 
Q 294 1253 94 1447 
Q 1241 2647 1969 3984 
L 200 3984 
L 200 4434 
L 2200 4434 
Q 2419 4884 2594 5353 
L 3088 5153 
Q 2934 4788 2766 4434 
L 6250 4434 
L 6250 3984 
L 2538 3984 
Q 2188 3325 1772 2703 
L 3250 2703 
L 3250 3666 
z
" transform="scale(0.015625)"/>
      <path id="MicrosoftYaHei-62df" d="M 81 1991 
Q 459 2091 925 2234 
L 925 3647 
L 150 3647 
L 150 4066 
L 925 4066 
L 925 5272 
L 1400 5272 
L 1400 4066 
L 2131 4066 
L 2131 3647 
L 1400 3647 
L 1400 2384 
Q 1756 2500 2156 2634 
Q 2144 2328 2144 2153 
Q 1775 2034 1400 1906 
L 1400 -97 
Q 1400 -722 856 -747 
Q 556 -759 231 -753 
Q 200 -522 150 -234 
Q 456 -272 656 -272 
Q 925 -272 925 9 
L 925 1744 
Q 541 1613 150 1472 
L 81 1991 
z
M 5000 5216 
L 5475 5216 
Q 5463 4141 5444 3341 
Q 5403 1831 5119 1044 
Q 5797 278 6325 -391 
L 5906 -734 
Q 5425 -66 4900 588 
Q 4397 -263 3375 -872 
Q 3219 -659 3031 -478 
Q 4206 184 4644 1184 
Q 4938 1916 4963 3347 
Q 4988 4284 5000 5216 
z
M 3838 1878 
Q 3900 1616 4000 1391 
Q 3444 884 2850 316 
Q 2706 172 2563 -41 
L 2238 372 
Q 2431 597 2431 947 
L 2431 4797 
L 2906 4797 
L 2906 991 
Q 3256 1297 3838 1878 
z
M 3213 5147 
L 3619 5353 
Q 4088 4516 4425 3816 
L 3988 3572 
Q 3563 4497 3213 5147 
z
" transform="scale(0.015625)"/>
      <path id="MicrosoftYaHei-5408" d="M 1025 1909 
L 5381 1909 
L 5381 -866 
L 4881 -866 
L 4881 -447 
L 1525 -447 
L 1525 -878 
L 1025 -878 
L 1025 1909 
z
M 3700 5234 
L 3550 5053 
Q 4594 3697 6319 3009 
Q 6125 2734 5988 2509 
Q 5481 2753 5025 3059 
L 5025 2703 
L 1369 2703 
L 1369 3016 
Q 913 2716 394 2428 
Q 269 2641 81 2897 
Q 2013 3866 3000 5234 
L 3700 5234 
z
M 4881 1453 
L 1525 1453 
L 1525 -3 
L 4881 -3 
L 4881 1453 
z
M 3219 4691 
Q 2581 3872 1550 3147 
L 4894 3147 
Q 3944 3797 3219 4691 
z
" transform="scale(0.015625)"/>
      <path id="MicrosoftYaHei-5386" d="M 1669 3084 
L 3028 3084 
Q 3044 3650 3044 4222 
L 3569 4222 
Q 3563 3650 3547 3084 
L 5800 3084 
Q 5725 1422 5656 341 
Q 5556 -616 4688 -634 
Q 4219 -634 3588 -603 
Q 3556 -366 3494 -41 
Q 4113 -109 4588 -109 
Q 5088 -103 5156 466 
Q 5225 1366 5269 2603 
L 3531 2603 
Q 3478 1334 3138 691 
Q 2681 -166 1513 -847 
Q 1338 -641 1144 -422 
Q 2294 284 2644 947 
Q 2969 1528 3013 2603 
L 1669 2603 
L 1669 3084 
z
M 1325 2766 
Q 1319 1384 1144 647 
Q 963 -116 456 -841 
Q 300 -628 81 -416 
Q 506 197 650 816 
Q 794 1416 794 2653 
L 794 4916 
L 6244 4916 
L 6244 4434 
L 1325 4434 
L 1325 2766 
z
" transform="scale(0.015625)"/>
      <path id="MicrosoftYaHei-53f2" d="M 1331 1953 
Q 1813 1213 2519 750 
Q 2881 1275 2953 2047 
L 725 2047 
L 725 4472 
L 2969 4472 
L 2969 5291 
L 3469 5291 
L 3469 4472 
L 5713 4472 
L 5713 1722 
L 5225 1722 
L 5225 2047 
L 3459 2047 
Q 3394 1144 2969 494 
Q 4241 -119 6313 -228 
Q 6206 -441 6094 -741 
Q 3928 -578 2638 91 
Q 1881 -634 369 -872 
Q 281 -678 113 -416 
Q 1506 -213 2181 369 
Q 1434 888 944 1697 
L 1331 1953 
z
M 5225 4022 
L 3469 4022 
L 3469 2497 
L 5225 2497 
L 5225 4022 
z
M 1213 2497 
L 2969 2497 
L 2969 4022 
L 1213 4022 
L 1213 2497 
z
" transform="scale(0.015625)"/>
      <path id="MicrosoftYaHei-6570" d="M 4175 5303 
L 4675 5228 
Q 4544 4622 4369 4097 
L 6281 4097 
L 6281 3672 
L 5888 3672 
Q 5731 1834 5088 753 
Q 5594 66 6375 -372 
Q 6175 -647 6038 -866 
Q 5275 -372 4769 309 
Q 4194 -403 3400 -928 
Q 3263 -747 3044 -534 
Q 3919 41 4463 772 
Q 3956 1647 3794 2791 
Q 3663 2559 3519 2359 
Q 3394 2541 3206 2759 
Q 3931 3803 4175 5303 
z
M 150 1697 
L 1100 1697 
Q 1238 1934 1369 2184 
L 1819 2041 
Q 1719 1866 1619 1697 
L 3150 1697 
L 3150 1291 
Q 2913 678 2431 216 
Q 2775 53 3131 -109 
L 2856 -541 
Q 2469 -322 2050 -103 
Q 1344 -609 269 -903 
Q 169 -703 56 -466 
Q 969 -259 1600 128 
Q 1063 403 475 691 
Q 675 978 863 1284 
L 150 1284 
L 150 1697 
z
M 219 3847 
L 1656 3847 
L 1656 5247 
L 2119 5247 
L 2119 3847 
L 3319 3847 
L 3319 3434 
L 2119 3434 
L 2119 3053 
L 2306 3266 
Q 2888 2841 3281 2516 
L 2981 2166 
Q 2638 2491 2119 2897 
L 2119 2184 
L 1656 2184 
L 1656 3059 
Q 1088 2466 331 2016 
Q 213 2197 63 2397 
Q 850 2822 1506 3434 
L 219 3434 
L 219 3847 
z
M 5388 3672 
L 4219 3672 
Q 4188 3591 4150 3516 
Q 4263 2191 4775 1247 
Q 5275 2159 5388 3672 
z
M 1088 834 
Q 1531 634 2000 416 
Q 2431 784 2675 1284 
L 1375 1284 
Q 1231 1053 1088 834 
z
M 3038 5091 
L 3425 4834 
Q 3081 4384 2738 4003 
Q 2594 4128 2400 4266 
Q 2725 4647 3038 5091 
z
M 381 4816 
L 738 5059 
Q 1019 4716 1319 4322 
L 931 4047 
Q 656 4453 381 4816 
z
" transform="scale(0.015625)"/>
      <path id="MicrosoftYaHei-636e" d="M 2900 1334 
L 4188 1334 
L 4188 2128 
L 2731 2128 
Q 2663 206 1844 -841 
Q 1694 -647 1506 -447 
Q 2288 516 2288 2509 
L 2288 4947 
L 5975 4947 
L 5975 3134 
L 5525 3134 
L 5525 3328 
L 2738 3328 
L 2738 2553 
L 4188 2553 
L 4188 3209 
L 4638 3209 
L 4638 2553 
L 6288 2553 
L 6288 2128 
L 4638 2128 
L 4638 1334 
L 5938 1334 
L 5938 -778 
L 5488 -778 
L 5488 -416 
L 3350 -416 
L 3350 -778 
L 2900 -778 
L 2900 1334 
z
M 100 1966 
Q 544 2088 963 2213 
L 963 3641 
L 175 3641 
L 175 4091 
L 963 4091 
L 963 5284 
L 1425 5284 
L 1425 4091 
L 2106 4091 
L 2106 3641 
L 1425 3641 
L 1425 2356 
Q 1722 2450 2006 2547 
Q 2013 2266 2044 2059 
Q 1722 1956 1425 1856 
L 1425 -34 
Q 1425 -741 806 -753 
Q 613 -759 231 -747 
Q 206 -497 156 -228 
Q 500 -266 681 -266 
Q 963 -266 963 53 
L 963 1703 
Q 534 1559 163 1428 
L 100 1966 
z
M 5525 4534 
L 2738 4534 
L 2738 3741 
L 5525 3741 
L 5525 4534 
z
M 5488 922 
L 3350 922 
L 3350 -9 
L 5488 -9 
L 5488 922 
z
" transform="scale(0.015625)"/>
     </defs>
     <use xlink:href="#MicrosoftYaHei-2022"/>
     <use xlink:href="#MicrosoftYaHei-20" transform="translate(43.945312 0)"/>
     <use xlink:href="#MicrosoftYaHei-9131" transform="translate(73.535156 0)"/>
     <use xlink:href="#MicrosoftYaHei-9633" transform="translate(173.535156 0)"/>
     <use xlink:href="#MicrosoftYaHei-6e56" transform="translate(273.535156 0)"/>
     <use xlink:href="#MicrosoftYaHei-6d41" transform="translate(373.535156 0)"/>
     <use xlink:href="#MicrosoftYaHei-57df" transform="translate(473.535156 0)"/>
     <use xlink:href="#MicrosoftYaHei-6d2a" transform="translate(573.535156 0)"/>
     <use xlink:href="#MicrosoftYaHei-6c34" transform="translate(673.535156 0)"/>
     <use xlink:href="#MicrosoftYaHei-98ce" transform="translate(773.535156 0)"/>
     <use xlink:href="#MicrosoftYaHei-9669" transform="translate(873.535156 0)"/>
     <use xlink:href="#MicrosoftYaHei-8bc4" transform="translate(973.535156 0)"/>
     <use xlink:href="#MicrosoftYaHei-4f30" transform="translate(1073.535156 0)"/>
     <use xlink:href="#MicrosoftYaHei-ff1a" transform="translate(1173.535156 0)"/>
     <use xlink:href="#MicrosoftYaHei-6781" transform="translate(1273.535156 0)"/>
     <use xlink:href="#MicrosoftYaHei-503c" transform="translate(1373.535156 0)"/>
     <use xlink:href="#MicrosoftYaHei-5206" transform="translate(1473.535156 0)"/>
     <use xlink:href="#MicrosoftYaHei-5e03" transform="translate(1573.535156 0)"/>
     <use xlink:href="#MicrosoftYaHei-62df" transform="translate(1673.535156 0)"/>
     <use xlink:href="#MicrosoftYaHei-5408" transform="translate(1773.535156 0)"/>
     <use xlink:href="#MicrosoftYaHei-5386" transform="translate(1873.535156 0)"/>
     <use xlink:href="#MicrosoftYaHei-53f2" transform="translate(1973.535156 0)"/>
     <use xlink:href="#MicrosoftYaHei-6570" transform="translate(2073.535156 0)"/>
     <use xlink:href="#MicrosoftYaHei-636e" transform="translate(2173.535156 0)"/>
    </g>
   </g>
   <g id="text_3">
    <!-- • 赣江流域防洪工程设计：按重现期确定设计水位 -->
    <g style="fill: #d1d5db" transform="translate(141.12 238.341375) scale(0.24 -0.24)">
     <defs>
      <path id="MicrosoftYaHei-8d63" d="M 3025 2222 
L 4394 2222 
L 4394 2703 
L 3450 2703 
L 3450 3034 
Q 3244 2972 3031 2916 
Q 2956 3072 2869 3222 
L 88 3222 
L 88 3609 
L 925 3609 
Q 750 3847 569 4059 
L 875 4297 
Q 1106 4034 1363 3728 
L 1213 3609 
L 1763 3609 
Q 2013 3959 2194 4278 
L 2600 4047 
Q 2425 3828 2244 3609 
L 3038 3609 
L 3038 3334 
Q 3719 3497 4250 3747 
Q 3956 3966 3681 4272 
Q 3463 4016 3219 3753 
Q 3081 3916 2938 4041 
Q 3531 4616 4000 5341 
L 4394 5203 
Q 4281 5034 4156 4866 
L 5894 4866 
L 5894 4516 
Q 5506 4072 5025 3753 
Q 5544 3528 6319 3409 
Q 6213 3222 6125 3016 
Q 5206 3191 4613 3509 
Q 4131 3253 3506 3053 
L 5750 3053 
L 5750 2703 
L 4819 2703 
L 4819 2222 
L 6219 2222 
L 6219 1872 
L 3025 1872 
L 3025 2222 
z
M 88 409 
L 1400 409 
L 1400 897 
L 813 897 
L 813 709 
L 425 709 
L 425 2866 
L 2713 2866 
L 2713 709 
L 2325 709 
L 2325 897 
L 1813 897 
L 1813 409 
L 3056 409 
L 3056 22 
L 1813 22 
L 1813 -891 
L 1400 -891 
L 1400 22 
L 88 22 
L 88 409 
z
M 3250 1541 
L 5931 1541 
L 5931 66 
L 5506 66 
L 5506 1191 
L 3675 1191 
L 3675 28 
L 3250 28 
L 3250 1541 
z
M 281 4697 
L 1506 4697 
Q 1313 4934 1144 5109 
L 1456 5366 
Q 1688 5128 1931 4853 
L 1744 4697 
L 2850 4697 
L 2850 4309 
L 281 4309 
L 281 4697 
z
M 4825 1034 
Q 4825 397 4744 109 
Q 5469 -134 6294 -459 
L 6113 -866 
Q 5288 -522 4575 -266 
Q 4263 -716 2863 -872 
Q 2775 -641 2656 -441 
Q 4000 -334 4238 -9 
Q 4406 184 4406 1034 
L 4825 1034 
z
M 813 1272 
L 2325 1272 
L 2325 1703 
L 813 1703 
L 813 1272 
z
M 2325 2491 
L 813 2491 
L 813 2066 
L 2325 2066 
L 2325 2491 
z
M 5381 4509 
L 3950 4509 
Q 4275 4172 4638 3947 
Q 5019 4178 5381 4509 
z
" transform="scale(0.015625)"/>
      <path id="MicrosoftYaHei-9632" d="M 2300 4341 
L 4181 4341 
Q 3941 4716 3656 5103 
L 4063 5366 
Q 4369 4978 4675 4528 
L 4375 4341 
L 6325 4341 
L 6325 3878 
L 3744 3878 
Q 3744 3350 3725 2903 
L 5794 2903 
Q 5756 1316 5706 391 
Q 5681 -653 4706 -653 
Q 4244 -653 3763 -641 
Q 3725 -403 3663 -84 
Q 4231 -147 4600 -147 
Q 5194 -147 5219 472 
Q 5263 1116 5288 2441 
L 3697 2441 
Q 3600 141 2025 -872 
Q 1894 -691 1694 -441 
Q 2656 197 2956 1097 
Q 3247 1866 3238 3878 
L 2300 3878 
L 2300 4341 
z
M 2269 1628 
Q 2450 428 1675 278 
Q 1425 228 1056 266 
Q 1006 522 919 791 
Q 1250 709 1494 741 
Q 1938 816 1781 1634 
Q 1694 2134 1231 2734 
Q 1531 3716 1738 4516 
L 869 4516 
L 869 -816 
L 400 -816 
L 400 4953 
L 2250 4953 
L 2250 4522 
L 1725 2816 
Q 2200 2159 2269 1628 
z
" transform="scale(0.015625)"/>
      <path id="MicrosoftYaHei-8bbe" d="M 2231 2116 
L 2231 2547 
L 5638 2547 
L 5638 2116 
Q 5144 1031 4419 416 
Q 5216 -109 6338 -316 
Q 6119 -597 5956 -822 
Q 4841 -500 4013 113 
Q 3163 -463 1863 -872 
Q 1700 -641 1538 -422 
Q 2778 -88 3613 431 
Q 2888 1131 2559 2116 
L 2231 2116 
z
M 4856 4553 
L 3294 4553 
L 3294 4372 
Q 3294 3222 2244 2659 
Q 2075 2866 1881 3047 
Q 2806 3522 2806 4359 
L 2806 5016 
L 5344 5016 
L 5344 3741 
Q 5344 3459 5631 3459 
L 6319 3459 
Q 6288 3203 6269 2997 
L 5444 2997 
Q 4856 2997 4856 3647 
L 4856 4553 
z
M 2250 1028 
Q 2263 734 2294 472 
Q 1438 -84 1019 -422 
L 719 -9 
Q 931 197 931 553 
L 931 2778 
L 138 2778 
L 138 3228 
L 1406 3228 
L 1406 453 
Q 1813 722 2250 1028 
z
M 988 5128 
Q 1469 4653 1906 4166 
L 1469 3803 
Q 1013 4391 613 4803 
L 988 5128 
z
M 3031 2116 
Q 3347 1319 4022 713 
Q 4684 1225 5081 2116 
L 3031 2116 
z
" transform="scale(0.015625)"/>
      <path id="MicrosoftYaHei-8ba1" d="M 2100 3153 
L 3919 3153 
L 3919 5303 
L 4456 5303 
L 4456 3153 
L 6288 3153 
L 6288 2703 
L 4456 2703 
L 4456 -822 
L 3919 -822 
L 3919 2703 
L 2100 2703 
L 2100 3153 
z
M 2675 903 
Q 2694 578 2719 359 
Q 1719 -266 1069 -728 
L 769 -303 
Q 988 -116 988 266 
L 988 2741 
L 100 2741 
L 100 3191 
L 1488 3191 
L 1488 153 
Q 2031 484 2675 903 
z
M 738 5222 
Q 1419 4522 1725 4184 
L 1288 3816 
Q 894 4334 356 4891 
L 738 5222 
z
" transform="scale(0.015625)"/>
      <path id="MicrosoftYaHei-6309" d="M 1763 -366 
Q 3172 -25 3822 450 
Q 3184 791 2444 1147 
Q 2713 1622 2959 2153 
L 2194 2153 
L 2194 2603 
L 3159 2603 
Q 3384 3119 3588 3684 
L 4113 3503 
Q 3919 3069 3700 2603 
L 6263 2603 
L 6263 2153 
L 5444 2153 
Q 5219 1191 4650 547 
Q 5494 100 6238 -353 
L 5938 -828 
Q 5253 -338 4288 197 
Q 3566 -394 2013 -834 
Q 1938 -609 1763 -366 
z
M 88 1966 
Q 503 2094 938 2244 
L 938 3641 
L 175 3641 
L 175 4091 
L 938 4091 
L 938 5253 
L 1413 5253 
L 1413 4091 
L 2100 4091 
L 2100 3641 
L 1413 3641 
L 1413 2413 
Q 1691 2513 1975 2622 
Q 1988 2359 2025 2122 
Q 1722 2016 1413 1900 
L 1413 -78 
Q 1413 -753 763 -759 
Q 569 -766 206 -753 
Q 181 -497 131 -234 
Q 431 -272 681 -272 
Q 938 -272 938 28 
L 938 1722 
Q 550 1575 150 1416 
L 88 1966 
z
M 2300 4384 
L 4056 4384 
Q 3884 4734 3663 5122 
L 4113 5347 
Q 4419 4847 4550 4572 
L 4178 4384 
L 6119 4384 
L 6119 3322 
L 5619 3322 
L 5619 3934 
L 2800 3934 
L 2800 3322 
L 2300 3322 
L 2300 4384 
z
M 3088 1328 
Q 3656 1056 4188 784 
Q 4750 1384 4934 2153 
L 3488 2153 
Q 3297 1753 3088 1328 
z
" transform="scale(0.015625)"/>
      <path id="MicrosoftYaHei-91cd" d="M 113 -203 
L 2975 -203 
L 2975 259 
L 600 259 
L 600 628 
L 2975 628 
L 2975 1153 
L 1288 1153 
L 1288 928 
L 850 928 
L 850 3278 
L 2975 3278 
L 2975 3728 
L 163 3728 
L 163 4116 
L 2975 4116 
L 2975 4606 
Q 1841 4572 625 4547 
Q 588 4747 538 4972 
Q 3706 5009 5669 5141 
L 5744 4716 
Q 4631 4663 3425 4619 
L 3425 4116 
L 6263 4116 
L 6263 3728 
L 3425 3728 
L 3425 3278 
L 5569 3278 
L 5569 934 
L 5131 934 
L 5131 1153 
L 3425 1153 
L 3425 628 
L 5806 628 
L 5806 259 
L 3425 259 
L 3425 -203 
L 6263 -203 
L 6263 -591 
L 113 -591 
L 113 -203 
z
M 3425 1516 
L 5131 1516 
L 5131 2053 
L 3425 2053 
L 3425 1516 
z
M 1288 1516 
L 2975 1516 
L 2975 2053 
L 1288 2053 
L 1288 1516 
z
M 5131 2916 
L 3425 2916 
L 3425 2384 
L 5131 2384 
L 5131 2916 
z
M 1288 2384 
L 2975 2384 
L 2975 2916 
L 1288 2916 
L 1288 2384 
z
" transform="scale(0.015625)"/>
      <path id="MicrosoftYaHei-73b0" d="M 3900 4141 
L 4388 4141 
L 4388 3091 
Q 4388 2288 4250 1678 
L 4663 1678 
L 4663 103 
Q 4663 -228 5025 -228 
L 5325 -228 
Q 5700 -228 5738 109 
Q 5775 397 5800 928 
Q 6013 841 6313 734 
Q 6263 184 6213 -91 
Q 6119 -666 5394 -666 
L 4931 -666 
Q 4188 -666 4188 41 
L 4188 1425 
Q 4059 981 3850 653 
Q 3319 -203 2094 -834 
Q 1931 -603 1756 -422 
Q 2975 166 3450 941 
Q 3900 1641 3900 3053 
L 3900 4141 
z
M 2588 5034 
L 5781 5034 
L 5781 1284 
L 5294 1284 
L 5294 4572 
L 3075 4572 
L 3075 1197 
L 2588 1197 
L 2588 5034 
z
M 81 384 
Q 531 506 1025 647 
L 1025 2466 
L 200 2466 
L 200 2916 
L 1025 2916 
L 1025 4366 
L 150 4366 
L 150 4816 
L 2400 4816 
L 2400 4366 
L 1513 4366 
L 1513 2916 
L 2313 2916 
L 2313 2466 
L 1513 2466 
L 1513 791 
Q 1956 925 2431 1072 
Q 2444 834 2475 603 
Q 1400 272 256 -97 
L 81 384 
z
" transform="scale(0.015625)"/>
      <path id="MicrosoftYaHei-671f" d="M 3769 5066 
L 5981 5066 
L 5981 -3 
Q 5981 -741 5281 -741 
Q 4931 -741 4594 -722 
Q 4569 -516 4519 -241 
Q 4975 -284 5175 -284 
Q 5519 -284 5519 59 
L 5519 1372 
L 4181 1372 
Q 4113 3 3350 -903 
Q 3181 -728 2975 -553 
Q 3481 28 3619 653 
Q 3769 1253 3769 2741 
L 3769 5066 
z
M 125 1141 
L 713 1141 
L 713 4028 
L 200 4028 
L 200 4453 
L 713 4453 
L 713 5216 
L 1175 5216 
L 1175 4453 
L 2475 4453 
L 2475 5241 
L 2938 5241 
L 2938 4453 
L 3444 4453 
L 3444 4028 
L 2938 4028 
L 2938 1141 
L 3438 1141 
L 3438 716 
L 125 716 
L 125 1141 
z
M 4209 1784 
L 5519 1784 
L 5519 3009 
L 4231 3009 
Q 4238 2203 4209 1784 
z
M 5519 4641 
L 4231 4641 
L 4231 3422 
L 5519 3422 
L 5519 4641 
z
M 1175 1141 
L 2475 1141 
L 2475 1841 
L 1175 1841 
L 1175 1141 
z
M 1175 2241 
L 2475 2241 
L 2475 2934 
L 1175 2934 
L 1175 2241 
z
M 1175 3334 
L 2475 3334 
L 2475 4028 
L 1175 4028 
L 1175 3334 
z
M 1175 597 
L 1556 297 
Q 925 -384 406 -847 
Q 275 -697 75 -516 
Q 669 -9 1175 597 
z
M 1994 303 
L 2294 609 
Q 2731 284 3119 -47 
L 2788 -403 
Q 2438 -53 1994 303 
z
" transform="scale(0.015625)"/>
      <path id="MicrosoftYaHei-786e" d="M 2075 3453 
Q 2956 4334 3456 5359 
L 3931 5272 
Q 3781 4991 3619 4722 
L 5438 4722 
L 5438 4328 
L 4909 3666 
L 6063 3666 
L 6063 -53 
Q 6063 -728 5475 -728 
Q 5144 -728 4906 -716 
Q 4869 -497 4813 -259 
Q 5156 -291 5331 -291 
Q 5619 -291 5619 16 
L 5619 734 
L 4588 734 
L 4588 -659 
L 4144 -659 
L 4144 734 
L 3113 734 
Q 2944 -263 2444 -884 
Q 2288 -703 2081 -509 
Q 2756 291 2756 1841 
L 2756 3506 
Q 2597 3316 2431 3134 
Q 2281 3278 2075 3453 
z
M 31 1691 
Q 741 2834 1066 4291 
L 231 4291 
L 231 4716 
L 2469 4716 
L 2469 4291 
L 1509 4291 
Q 1356 3613 1128 2991 
L 2200 2991 
L 2200 128 
L 1150 128 
L 1150 -347 
L 738 -347 
L 738 2059 
Q 559 1691 350 1347 
Q 225 1497 31 1691 
z
M 1788 541 
L 1788 2578 
L 1150 2578 
L 1150 541 
L 1788 541 
z
M 4875 4322 
L 3366 4322 
Q 3138 3981 2884 3666 
L 4384 3666 
L 4875 4322 
z
M 4588 1134 
L 5619 1134 
L 5619 1991 
L 4588 1991 
L 4588 1134 
z
M 5619 3241 
L 4588 3241 
L 4588 2391 
L 5619 2391 
L 5619 3241 
z
M 3166 1134 
L 4144 1134 
L 4144 1991 
L 3200 1991 
Q 3200 1841 3166 1134 
z
M 3200 2391 
L 4144 2391 
L 4144 3241 
L 3200 3241 
L 3200 2391 
z
" transform="scale(0.015625)"/>
      <path id="MicrosoftYaHei-5b9a" d="M 81 -384 
Q 1119 509 1281 2241 
L 1806 2159 
Q 1731 1581 1578 1081 
Q 2063 50 3081 -103 
L 3081 2647 
L 225 2647 
L 225 3116 
L 6163 3116 
L 6163 2647 
L 3600 2647 
L 3600 1634 
L 5775 1634 
L 5775 1172 
L 3600 1172 
L 3600 -138 
Q 4844 -169 6306 -116 
Q 6200 -359 6125 -634 
Q 4594 -653 3450 -616 
Q 2041 -616 1378 528 
Q 1022 -300 413 -872 
Q 269 -628 81 -384 
z
M 450 4566 
L 3116 4566 
Q 2931 4834 2725 5091 
L 3200 5347 
Q 3444 5066 3731 4716 
L 3450 4566 
L 5981 4566 
L 5981 3378 
L 5488 3378 
L 5488 4097 
L 944 4097 
L 944 3384 
L 450 3384 
L 450 4566 
z
" transform="scale(0.015625)"/>
      <path id="MicrosoftYaHei-4f4d" d="M 1788 -59 
L 4228 -59 
Q 4678 1144 5269 3372 
L 5831 3203 
Q 5453 2044 4756 -59 
L 6319 -59 
L 6319 -522 
L 1788 -522 
L 1788 -59 
z
M 81 2291 
Q 975 3641 1431 5322 
L 1963 5191 
Q 1703 4397 1406 3709 
L 1406 -853 
L 938 -853 
L 938 2731 
Q 644 2181 319 1716 
Q 231 1953 81 2291 
z
M 1919 4191 
L 4122 4191 
Q 3844 4659 3506 5059 
L 3931 5353 
Q 4206 5034 4613 4497 
L 4150 4191 
L 6206 4191 
L 6206 3728 
L 1919 3728 
L 1919 4191 
z
M 2769 3309 
Q 3181 2184 3669 584 
L 3150 434 
Q 2725 1966 2294 3147 
L 2769 3309 
z
" transform="scale(0.015625)"/>
     </defs>
     <use xlink:href="#MicrosoftYaHei-2022"/>
     <use xlink:href="#MicrosoftYaHei-20" transform="translate(43.945312 0)"/>
     <use xlink:href="#MicrosoftYaHei-8d63" transform="translate(73.535156 0)"/>
     <use xlink:href="#MicrosoftYaHei-6c5f" transform="translate(173.535156 0)"/>
     <use xlink:href="#MicrosoftYaHei-6d41" transform="translate(273.535156 0)"/>
     <use xlink:href="#MicrosoftYaHei-57df" transform="translate(373.535156 0)"/>
     <use xlink:href="#MicrosoftYaHei-9632" transform="translate(473.535156 0)"/>
     <use xlink:href="#MicrosoftYaHei-6d2a" transform="translate(573.535156 0)"/>
     <use xlink:href="#MicrosoftYaHei-5de5" transform="translate(673.535156 0)"/>
     <use xlink:href="#MicrosoftYaHei-7a0b" transform="translate(773.535156 0)"/>
     <use xlink:href="#MicrosoftYaHei-8bbe" transform="translate(873.535156 0)"/>
     <use xlink:href="#MicrosoftYaHei-8ba1" transform="translate(973.535156 0)"/>
     <use xlink:href="#MicrosoftYaHei-ff1a" transform="translate(1073.535156 0)"/>
     <use xlink:href="#MicrosoftYaHei-6309" transform="translate(1173.535156 0)"/>
     <use xlink:href="#MicrosoftYaHei-91cd" transform="translate(1273.535156 0)"/>
     <use xlink:href="#MicrosoftYaHei-73b0" transform="translate(1373.535156 0)"/>
     <use xlink:href="#MicrosoftYaHei-671f" transform="translate(1473.535156 0)"/>
     <use xlink:href="#MicrosoftYaHei-786e" transform="translate(1573.535156 0)"/>
     <use xlink:href="#MicrosoftYaHei-5b9a" transform="translate(1673.535156 0)"/>
     <use xlink:href="#MicrosoftYaHei-8bbe" transform="translate(1773.535156 0)"/>
     <use xlink:href="#MicrosoftYaHei-8ba1" transform="translate(1873.535156 0)"/>
     <use xlink:href="#MicrosoftYaHei-6c34" transform="translate(1973.535156 0)"/>
     <use xlink:href="#MicrosoftYaHei-4f4d" transform="translate(2073.535156 0)"/>
    </g>
   </g>
   <g id="text_4">
    <!-- • 水库调度优化：基于分布参数进行风险—收益权衡 -->
    <g style="fill: #d1d5db" transform="translate(141.12 288.237375) scale(0.24 -0.24)">
     <defs>
      <path id="MicrosoftYaHei-5e93" d="M 1338 778 
L 3706 778 
L 3706 1441 
L 1800 1441 
L 1800 1897 
Q 2125 2369 2409 2922 
L 1500 2922 
L 1500 3372 
L 2628 3372 
Q 2784 3706 2925 4066 
L 3438 3928 
Q 3309 3641 3178 3372 
L 5913 3372 
L 5913 2922 
L 2953 2922 
Q 2666 2366 2369 1891 
L 3706 1891 
L 3706 2684 
L 4206 2684 
L 4206 1891 
L 5919 1891 
L 5919 1441 
L 4206 1441 
L 4206 778 
L 6225 778 
L 6225 328 
L 4206 328 
L 4206 -828 
L 3706 -828 
L 3706 328 
L 1338 328 
L 1338 778 
z
M 2981 5122 
L 3363 5403 
Q 3663 5116 3919 4778 
L 3653 4584 
L 6238 4584 
L 6238 4134 
L 1206 4134 
L 1206 2353 
Q 1213 203 388 -878 
Q 231 -678 31 -453 
Q 713 441 706 2266 
L 706 4584 
L 3416 4584 
Q 3213 4856 2981 5122 
z
" transform="scale(0.015625)"/>
      <path id="MicrosoftYaHei-8c03" d="M 2600 4509 
L 2600 1941 
Q 2600 109 1606 -841 
Q 1450 -616 1281 -441 
Q 2144 384 2144 1891 
L 2144 4934 
L 5994 4934 
L 5994 -66 
Q 5994 -759 5356 -759 
Q 4988 -759 4369 -741 
Q 4338 -509 4275 -259 
Q 4938 -303 5225 -303 
Q 5538 -303 5538 28 
L 5538 4509 
L 2600 4509 
z
M 3081 1884 
L 4994 1884 
L 4994 291 
L 3519 291 
L 3519 3 
L 3081 3 
L 3081 1884 
z
M 2794 2791 
L 3844 2791 
L 3844 3366 
L 2969 3366 
L 2969 3766 
L 3844 3766 
L 3844 4359 
L 4294 4359 
L 4294 3766 
L 5156 3766 
L 5156 3366 
L 4294 3366 
L 4294 2791 
L 5344 2791 
L 5344 2391 
L 2794 2391 
L 2794 2791 
z
M 1944 1466 
Q 1956 1184 1988 922 
Q 1338 447 863 28 
L 575 434 
Q 781 659 781 997 
L 781 2903 
L 100 2903 
L 100 3341 
L 1238 3341 
L 1238 909 
Q 1569 1153 1944 1466 
z
M 4556 1484 
L 3519 1484 
L 3519 691 
L 4556 691 
L 4556 1484 
z
M 863 5197 
Q 1281 4784 1800 4216 
L 1388 3866 
Q 900 4484 506 4897 
L 863 5197 
z
" transform="scale(0.015625)"/>
      <path id="MicrosoftYaHei-5ea6" d="M 1550 1216 
L 1550 1628 
L 5469 1628 
L 5469 1222 
Q 4903 613 4147 163 
Q 5050 -200 6263 -309 
L 6019 -797 
Q 4625 -603 3644 -109 
Q 2600 -619 1250 -866 
Q 1150 -666 994 -416 
Q 2231 -222 3166 166 
Q 2497 600 2066 1216 
L 1550 1216 
z
M 1363 3541 
L 2294 3541 
L 2294 4066 
L 2769 4066 
L 2769 3541 
L 4538 3541 
L 4538 4072 
L 5013 4072 
L 5013 3541 
L 6150 3541 
L 6150 3128 
L 5013 3128 
L 5013 1928 
L 4538 1928 
L 4538 2147 
L 2769 2147 
L 2769 1922 
L 2294 1922 
L 2294 3128 
L 1363 3128 
L 1363 3541 
z
M 3025 5172 
L 3481 5391 
Q 3694 5056 3909 4634 
L 6213 4634 
L 6213 4197 
L 1225 4197 
L 1225 2316 
Q 1225 178 394 -872 
Q 238 -666 38 -447 
Q 725 397 738 2347 
L 738 4634 
L 3331 4634 
Q 3188 4909 3025 5172 
z
M 2769 2547 
L 4538 2547 
L 4538 3128 
L 2769 3128 
L 2769 2547 
z
M 4819 1216 
L 2588 1216 
Q 3031 728 3656 391 
Q 4334 741 4819 1216 
z
" transform="scale(0.015625)"/>
      <path id="MicrosoftYaHei-4f18" d="M 1825 3609 
L 3184 3609 
Q 3216 4322 3213 5272 
L 3713 5272 
Q 3719 4338 3688 3609 
L 6188 3609 
L 6188 3153 
L 4475 3153 
L 4475 228 
Q 4475 -122 4838 -122 
L 5244 -122 
Q 5656 -122 5700 303 
Q 5750 659 5781 1266 
Q 6031 1166 6294 1066 
Q 6244 528 6175 109 
Q 6100 -291 5900 -447 
Q 5713 -603 5275 -597 
L 4763 -597 
Q 4325 -597 4150 -422 
Q 3969 -259 3969 184 
L 3969 3153 
L 3663 3153 
Q 3600 791 1950 -803 
Q 1775 -597 1575 -397 
Q 3100 1028 3159 3153 
L 1825 3153 
L 1825 3609 
z
M 88 2334 
Q 1056 3641 1556 5291 
L 2063 5122 
Q 1753 4253 1388 3522 
L 1388 -809 
L 913 -809 
L 913 2666 
Q 616 2184 288 1778 
Q 194 2047 88 2334 
z
M 4600 5184 
Q 5269 4759 5713 4391 
Q 5538 4197 5388 3991 
Q 4875 4447 4325 4841 
L 4600 5184 
z
" transform="scale(0.015625)"/>
      <path id="MicrosoftYaHei-5316" d="M 1844 1453 
Q 2663 1834 3375 2331 
L 3375 5197 
L 3913 5197 
L 3913 2734 
Q 4869 3506 5613 4516 
L 6069 4184 
Q 5159 2975 3913 2069 
L 3913 303 
Q 3913 -122 4363 -122 
L 5156 -122 
Q 5581 -122 5650 284 
Q 5738 709 5763 1266 
Q 6025 1166 6313 1084 
Q 6263 559 6181 122 
Q 6063 -597 5281 -597 
L 4225 -597 
Q 3375 -597 3375 241 
L 3375 1703 
Q 2791 1328 2144 1016 
Q 2013 1222 1844 1453 
z
M 88 2222 
Q 1175 3666 1688 5291 
L 2231 5134 
Q 1934 4359 1588 3675 
L 1588 -797 
L 1063 -797 
L 1063 2734 
Q 716 2172 325 1678 
Q 219 1947 88 2222 
z
" transform="scale(0.015625)"/>
      <path id="MicrosoftYaHei-57fa" d="M 6319 697 
Q 6113 441 5981 247 
Q 5406 519 4925 897 
L 4925 553 
L 3431 553 
L 3431 -97 
L 5875 -97 
L 5875 -503 
L 519 -503 
L 519 -97 
L 2963 -97 
L 2963 553 
L 1450 553 
L 1450 894 
Q 953 478 413 172 
Q 294 341 88 566 
Q 1050 1034 1753 1753 
L 156 1753 
L 156 2159 
L 1400 2159 
L 1400 4253 
L 350 4253 
L 350 4659 
L 1400 4659 
L 1400 5334 
L 1869 5334 
L 1869 4659 
L 4550 4659 
L 4550 5334 
L 5019 5334 
L 5019 4659 
L 6069 4659 
L 6069 4253 
L 5019 4253 
L 5019 2159 
L 6244 2159 
L 6244 1753 
L 4600 1753 
Q 5303 1053 6319 697 
z
M 2963 1553 
L 3431 1553 
L 3431 947 
L 4863 947 
Q 4416 1306 4047 1753 
L 2325 1753 
Q 1934 1309 1513 947 
L 2963 947 
L 2963 1553 
z
M 1869 2159 
L 4550 2159 
L 4550 2603 
L 1869 2603 
L 1869 2159 
z
M 1869 2991 
L 4550 2991 
L 4550 3428 
L 1869 3428 
L 1869 2991 
z
M 1869 3816 
L 4550 3816 
L 4550 4253 
L 1869 4253 
L 1869 3816 
z
" transform="scale(0.015625)"/>
      <path id="MicrosoftYaHei-4e8e" d="M 125 2759 
L 3031 2759 
L 3031 4372 
L 625 4372 
L 625 4866 
L 5800 4866 
L 5800 4372 
L 3556 4372 
L 3556 2759 
L 6275 2759 
L 6275 2266 
L 3556 2266 
L 3556 122 
Q 3556 -303 3400 -491 
Q 3225 -709 2744 -722 
Q 2463 -722 1688 -716 
Q 1656 -428 1588 -147 
Q 2294 -197 2569 -197 
Q 2850 -197 2944 -91 
Q 3031 -3 3031 303 
L 3031 2266 
L 125 2266 
L 125 2759 
z
" transform="scale(0.015625)"/>
      <path id="MicrosoftYaHei-53c2" d="M 256 3159 
L 2234 3159 
Q 2428 3391 2600 3641 
Q 2031 3609 1469 3578 
Q 1288 3566 988 3522 
L 825 4003 
Q 1144 4091 1400 4291 
Q 1944 4697 2606 5372 
L 3100 5109 
Q 2394 4497 1738 4034 
Q 2906 4066 4397 4122 
Q 4072 4388 3744 4628 
L 4050 4947 
Q 5006 4278 5606 3772 
L 5256 3397 
Q 5053 3575 4853 3747 
Q 3778 3700 2719 3647 
L 3069 3497 
Q 2944 3322 2813 3159 
L 6144 3159 
L 6144 2741 
L 4353 2741 
Q 5128 1941 6325 1578 
Q 6119 1297 6000 1109 
Q 4644 1697 3828 2741 
L 2453 2741 
Q 1550 1750 363 1116 
Q 231 1328 56 1509 
Q 1091 2009 1841 2741 
L 256 2741 
L 256 3159 
z
M 4969 1016 
L 5313 697 
Q 3525 -509 1019 -891 
Q 906 -666 781 -478 
Q 3331 -59 4969 1016 
z
M 4231 1703 
L 4525 1353 
Q 2813 391 1119 47 
Q 988 341 913 466 
Q 2694 828 4231 1703 
z
M 3556 2453 
L 3863 2128 
Q 2694 1397 1388 1009 
Q 1288 1216 1150 1422 
Q 2344 1734 3556 2453 
z
" transform="scale(0.015625)"/>
      <path id="MicrosoftYaHei-8fdb" d="M 1756 2416 
L 2828 2416 
Q 2838 2903 2838 3741 
L 2050 3741 
L 2050 4191 
L 2838 4191 
L 2838 5291 
L 3338 5291 
L 3338 4191 
L 4575 4191 
L 4575 5291 
L 5075 5291 
L 5075 4191 
L 6000 4191 
L 6000 3741 
L 5075 3741 
L 5075 2416 
L 6244 2416 
L 6244 1966 
L 5075 1966 
L 5075 66 
L 4575 66 
L 4575 1966 
L 3291 1966 
Q 3106 691 2213 66 
Q 2050 247 1831 447 
Q 2597 931 2778 1966 
L 1756 1966 
L 1756 2416 
z
M 2606 -191 
L 4088 -222 
L 6300 -166 
Q 6231 -372 6125 -659 
L 4050 -666 
L 2544 -634 
Q 1513 -616 1081 91 
Q 825 -147 331 -747 
L 75 -228 
Q 628 306 875 538 
L 875 2641 
L 131 2641 
L 131 3103 
L 1356 3103 
L 1356 438 
Q 1744 -175 2606 -191 
z
M 3331 2416 
L 4575 2416 
L 4575 3741 
L 3338 3741 
Q 3338 2666 3331 2416 
z
M 813 5216 
Q 1288 4622 1688 4034 
Q 1425 3866 1225 3722 
Q 881 4322 413 4947 
L 813 5216 
z
" transform="scale(0.015625)"/>
      <path id="MicrosoftYaHei-884c" d="M 2363 2978 
L 6319 2978 
L 6319 2509 
L 5106 2509 
L 5106 66 
Q 5106 -709 4325 -709 
Q 3800 -709 3256 -703 
Q 3219 -453 3163 -141 
Q 3650 -191 4144 -191 
Q 4575 -191 4575 234 
L 4575 2509 
L 2363 2509 
L 2363 2978 
z
M 100 1578 
Q 1069 2372 1863 3809 
L 2300 3541 
Q 1978 2984 1619 2500 
L 1619 -809 
L 1100 -809 
L 1100 1856 
Q 725 1431 319 1072 
Q 219 1334 100 1578 
z
M 2725 4866 
L 5969 4866 
L 5969 4397 
L 2725 4397 
L 2725 4866 
z
M 131 3559 
Q 1125 4328 1731 5347 
L 2181 5072 
Q 1456 3959 381 3078 
Q 269 3316 131 3559 
z
" transform="scale(0.015625)"/>
      <path id="MicrosoftYaHei-2014" d="M 6913 1681 
L 0 1681 
L 0 2153 
L 6913 2153 
L 6913 1681 
z
" transform="scale(0.015625)"/>
      <path id="MicrosoftYaHei-6536" d="M 2244 2659 
Q 3044 4047 3400 5341 
L 3906 5197 
Q 3706 4619 3488 4091 
L 6213 4091 
L 6213 3628 
L 5478 3628 
Q 5384 1819 4550 681 
Q 5184 119 6350 -297 
Q 6156 -541 5994 -797 
Q 4881 -322 4219 300 
Q 3616 -294 2550 -853 
Q 2419 -647 2231 -434 
Q 3297 100 3878 672 
Q 3156 1575 2944 2916 
Q 2769 2575 2581 2259 
Q 2463 2441 2244 2659 
z
M 1681 5291 
L 2156 5291 
L 2156 -816 
L 1681 -816 
L 1681 1113 
Q 1300 900 906 641 
Q 744 522 588 359 
L 231 778 
Q 425 984 425 1316 
L 425 4416 
L 900 4416 
L 900 1216 
Q 1272 1413 1681 1634 
L 1681 5291 
z
M 4984 3628 
L 3322 3628 
Q 3413 2103 4203 1059 
Q 4916 2063 4984 3628 
z
" transform="scale(0.015625)"/>
      <path id="MicrosoftYaHei-76ca" d="M 113 -103 
L 1019 -103 
L 1019 1997 
L 5406 1997 
L 5406 -103 
L 6269 -103 
L 6269 -541 
L 113 -541 
L 113 -103 
z
M 263 4116 
L 3672 4116 
Q 4225 4650 4744 5334 
L 5200 5047 
Q 4775 4553 4331 4116 
L 6175 4116 
L 6175 3678 
L 263 3678 
L 263 4116 
z
M 4956 1572 
L 4081 1572 
L 4081 -103 
L 4956 -103 
L 4956 1572 
z
M 1469 -103 
L 2338 -103 
L 2338 1572 
L 1469 1572 
L 1469 -103 
z
M 2775 -103 
L 3644 -103 
L 3644 1572 
L 2775 1572 
L 2775 -103 
z
M 2338 3484 
L 2644 3078 
Q 1669 2484 456 1872 
Q 331 2116 200 2309 
Q 1369 2872 2338 3484 
z
M 3794 3091 
L 4050 3472 
Q 5300 2884 6213 2384 
L 5938 1922 
Q 4706 2634 3794 3091 
z
M 1238 5016 
L 1563 5341 
Q 2100 4953 2531 4584 
L 2175 4209 
Q 1769 4597 1238 5016 
z
" transform="scale(0.015625)"/>
      <path id="MicrosoftYaHei-6743" d="M 2331 4416 
L 2331 4884 
L 5881 4884 
L 5881 4428 
Q 5588 2253 4556 922 
Q 5231 241 6344 -203 
Q 6075 -497 5925 -722 
Q 4850 -166 4213 516 
Q 3500 -228 2225 -872 
Q 2088 -647 1875 -397 
Q 3194 222 3888 916 
Q 2944 2103 2719 4416 
L 2331 4416 
z
M 63 1347 
Q 700 2322 1019 3528 
L 125 3528 
L 125 3966 
L 1100 3966 
L 1100 5291 
L 1575 5291 
L 1575 3966 
L 2456 3966 
L 2456 3528 
L 1575 3528 
L 1575 2703 
L 1844 2953 
Q 2406 2422 2750 2009 
L 2375 1659 
Q 1956 2191 1575 2591 
L 1575 -853 
L 1100 -853 
L 1100 2572 
Q 763 1522 275 797 
Q 188 1066 63 1347 
z
M 5350 4416 
L 3219 4416 
Q 3406 2397 4225 1309 
Q 5088 2466 5350 4416 
z
" transform="scale(0.015625)"/>
      <path id="MicrosoftYaHei-8861" d="M 1456 3784 
Q 2081 4434 2538 5241 
L 2925 5091 
Q 2847 4959 2766 4828 
L 4063 4828 
L 4063 4491 
L 3703 3966 
L 4375 3966 
L 4375 1491 
L 3988 1491 
L 3988 1647 
L 2238 1647 
L 2238 1453 
L 1850 1453 
L 1850 3603 
Q 1800 3547 1750 3491 
Q 1606 3647 1456 3784 
z
M 1644 1153 
L 2869 1153 
Q 2894 1334 2894 1553 
L 3319 1553 
Q 3319 1338 3300 1153 
L 4450 1153 
L 4450 753 
L 3228 753 
Q 3216 706 3200 659 
Q 3784 309 4300 -9 
L 4038 -391 
Q 3606 -84 3022 306 
Q 2678 -191 1725 -653 
Q 1638 -522 1469 -266 
Q 2563 222 2772 753 
L 1644 753 
L 1644 1153 
z
M 4519 3016 
L 6300 3016 
L 6300 2559 
L 5650 2559 
L 5650 -97 
Q 5650 -778 5006 -791 
Q 4744 -797 4350 -791 
Q 4325 -641 4256 -328 
Q 4613 -366 4881 -366 
Q 5225 -366 5225 -41 
L 5225 2559 
L 4519 2559 
L 4519 3016 
z
M 50 1659 
Q 694 2378 1263 3659 
L 1650 3434 
Q 1409 2953 1181 2553 
L 1181 -834 
L 756 -834 
L 756 1850 
Q 494 1447 250 1159 
Q 163 1403 50 1659 
z
M 44 3616 
Q 788 4341 1275 5341 
L 1675 5084 
Q 1031 3928 275 3166 
Q 175 3391 44 3616 
z
M 4688 4841 
L 6125 4841 
L 6125 4391 
L 4688 4391 
L 4688 4841 
z
M 3513 4428 
L 2494 4428 
Q 2331 4200 2147 3966 
L 3219 3966 
L 3513 4428 
z
M 3988 3572 
L 3294 3572 
L 3294 2984 
L 3988 2984 
L 3988 3572 
z
M 2238 2984 
L 2931 2984 
L 2931 3572 
L 2238 3572 
L 2238 2984 
z
M 2238 2041 
L 2931 2041 
L 2931 2622 
L 2238 2622 
L 2238 2041 
z
M 3294 2041 
L 3988 2041 
L 3988 2622 
L 3294 2622 
L 3294 2041 
z
" transform="scale(0.015625)"/>
     </defs>
     <use xlink:href="#MicrosoftYaHei-2022"/>
     <use xlink:href="#MicrosoftYaHei-20" transform="translate(43.945312 0)"/>
     <use xlink:href="#MicrosoftYaHei-6c34" transform="translate(73.535156 0)"/>
     <use xlink:href="#MicrosoftYaHei-5e93" transform="translate(173.535156 0)"/>
     <use xlink:href="#MicrosoftYaHei-8c03" transform="translate(273.535156 0)"/>
     <use xlink:href="#MicrosoftYaHei-5ea6" transform="translate(373.535156 0)"/>
     <use xlink:href="#MicrosoftYaHei-4f18" transform="translate(473.535156 0)"/>
     <use xlink:href="#MicrosoftYaHei-5316" transform="translate(573.535156 0)"/>
     <use xlink:href="#MicrosoftYaHei-ff1a" transform="translate(673.535156 0)"/>
     <use xlink:href="#MicrosoftYaHei-57fa" transform="translate(773.535156 0)"/>
     <use xlink:href="#MicrosoftYaHei-4e8e" transform="translate(873.535156 0)"/>
     <use xlink:href="#MicrosoftYaHei-5206" transform="translate(973.535156 0)"/>
     <use xlink:href="#MicrosoftYaHei-5e03" transform="translate(1073.535156 0)"/>
     <use xlink:href="#MicrosoftYaHei-53c2" transform="translate(1173.535156 0)"/>
     <use xlink:href="#MicrosoftYaHei-6570" transform="translate(1273.535156 0)"/>
     <use xlink:href="#MicrosoftYaHei-8fdb" transform="translate(1373.535156 0)"/>
     <use xlink:href="#MicrosoftYaHei-884c" transform="translate(1473.535156 0)"/>
     <use xlink:href="#MicrosoftYaHei-98ce" transform="translate(1573.535156 0)"/>
     <use xlink:href="#MicrosoftYaHei-9669" transform="translate(1673.535156 0)"/>
     <use xlink:href="#MicrosoftYaHei-2014" transform="translate(1773.535156 0)"/>
     <use xlink:href="#MicrosoftYaHei-6536" transform="translate(1881.542969 0)"/>
     <use xlink:href="#MicrosoftYaHei-76ca" transform="translate(1981.542969 0)"/>
     <use xlink:href="#MicrosoftYaHei-6743" transform="translate(2081.542969 0)"/>
     <use xlink:href="#MicrosoftYaHei-8861" transform="translate(2181.542969 0)"/>
    </g>
   </g>
   <g id="text_5">
    <!-- • 城市排水系统设计：暴雨强度与重现期分析 -->
    <g style="fill: #d1d5db" transform="translate(141.12 338.133375) scale(0.24 -0.24)">
     <defs>
      <path id="MicrosoftYaHei-57ce" d="M 3331 -391 
Q 4044 113 4597 838 
Q 4378 1778 4294 3741 
L 2675 3741 
L 2675 2766 
L 3938 2766 
Q 3925 1666 3894 859 
Q 3863 91 3138 91 
Q 2894 91 2675 97 
Q 2638 303 2569 584 
Q 2844 553 3063 553 
Q 3425 553 3444 978 
Q 3475 1584 3475 2341 
L 2669 2341 
Q 2647 1219 2488 597 
Q 2294 -141 1756 -841 
Q 1581 -659 1375 -484 
Q 1888 172 2050 803 
Q 2206 1409 2206 2784 
L 2206 4191 
L 4275 4191 
Q 4259 4728 4250 5322 
L 4744 5322 
Q 4738 4722 4750 4191 
L 6294 4191 
L 6294 3741 
L 4766 3741 
Q 4822 2272 4969 1384 
Q 5409 2091 5725 2972 
L 6188 2753 
Q 5703 1597 5106 744 
Q 5222 322 5388 84 
Q 5556 -166 5681 -166 
Q 5800 -166 5831 9 
Q 5881 284 5925 884 
Q 6175 778 6381 716 
Q 6319 103 6269 -166 
Q 6150 -734 5775 -734 
Q 5375 -734 5063 -316 
Q 4888 -84 4759 281 
Q 4253 -334 3675 -759 
Q 3531 -584 3331 -391 
z
M 50 947 
Q 400 1031 819 1141 
L 819 3278 
L 106 3278 
L 106 3728 
L 819 3728 
L 819 5247 
L 1288 5247 
L 1288 3728 
L 1963 3728 
L 1963 3278 
L 1288 3278 
L 1288 1272 
Q 1600 1363 1950 1466 
Q 1950 1178 1963 978 
Q 950 684 138 409 
L 50 947 
z
M 4981 4997 
L 5269 5297 
Q 5663 5003 6044 4666 
L 5725 4322 
Q 5381 4672 4981 4997 
z
" transform="scale(0.015625)"/>
      <path id="MicrosoftYaHei-5e02" d="M 1206 -191 
L 719 -191 
L 719 3041 
L 2950 3041 
L 2950 3903 
L 188 3903 
L 188 4378 
L 3103 4378 
Q 2909 4769 2650 5166 
L 3131 5391 
Q 3400 4997 3625 4584 
L 3213 4378 
L 6238 4378 
L 6238 3903 
L 3450 3903 
L 3450 3041 
L 5719 3041 
L 5719 703 
Q 5719 -84 4975 -84 
Q 4631 -84 4081 -72 
Q 4050 134 3994 428 
Q 4513 397 4825 397 
Q 5231 397 5231 809 
L 5231 2578 
L 3450 2578 
L 3450 -841 
L 2950 -841 
L 2950 2578 
L 1206 2578 
L 1206 -191 
z
" transform="scale(0.015625)"/>
      <path id="MicrosoftYaHei-6392" d="M 4375 5309 
L 4863 5309 
L 4863 4159 
L 6188 4159 
L 6188 3684 
L 4863 3684 
L 4863 2609 
L 6038 2609 
L 6038 2134 
L 4863 2134 
L 4863 1047 
L 6294 1047 
L 6294 572 
L 4863 572 
L 4863 -841 
L 4375 -841 
L 4375 5309 
z
M 1844 1047 
L 3138 1047 
L 3138 2134 
L 2150 2134 
L 2150 2609 
L 3138 2609 
L 3138 3684 
L 2163 3684 
L 2163 4159 
L 3138 4159 
L 3138 5309 
L 3625 5309 
L 3625 -841 
L 3138 -841 
L 3138 572 
L 1844 572 
L 1844 1047 
z
M 131 4166 
L 875 4166 
L 875 5316 
L 1350 5316 
L 1350 4166 
L 1969 4166 
L 1969 3728 
L 1350 3728 
L 1350 2563 
Q 1650 2716 1938 2872 
Q 1956 2603 1988 2372 
Q 1681 2216 1350 2044 
L 1350 -134 
Q 1350 -772 669 -778 
Q 481 -784 156 -778 
Q 131 -528 75 -259 
Q 419 -284 613 -284 
Q 875 -284 875 3 
L 875 1797 
Q 525 1616 150 1416 
L 88 1966 
Q 491 2144 875 2328 
L 875 3728 
L 131 3728 
L 131 4166 
z
" transform="scale(0.015625)"/>
      <path id="MicrosoftYaHei-7cfb" d="M 4494 2747 
Q 5294 2103 6131 1334 
Q 5925 1134 5750 953 
Q 5491 1209 5225 1459 
Q 4391 1425 3519 1378 
L 3519 -28 
Q 3519 -741 2769 -741 
Q 2463 -741 1963 -728 
Q 1931 -497 1881 -216 
Q 2406 -272 2688 -272 
Q 3031 -272 3031 66 
L 3031 1353 
Q 2272 1313 1488 1266 
Q 1131 1247 781 1184 
L 575 1722 
Q 988 1797 1356 1966 
Q 2313 2434 3131 2909 
Q 2044 2825 1306 2759 
Q 981 2728 813 2691 
L 613 3216 
Q 913 3291 1175 3434 
Q 1959 3872 2747 4469 
Q 1675 4403 575 4353 
Q 531 4572 463 4791 
Q 3444 4903 5756 5134 
L 5850 4691 
Q 4494 4578 3097 4488 
L 3350 4309 
Q 2369 3653 1538 3203 
Q 2938 3281 3856 3353 
Q 4481 3753 5013 4159 
L 5419 3828 
Q 3850 2709 1775 1734 
Q 3019 1778 4791 1866 
Q 4478 2153 4163 2428 
L 4494 2747 
z
M 4125 697 
L 4444 1034 
Q 5231 509 6175 -222 
L 5806 -628 
Q 4931 97 4125 697 
z
M 1681 1028 
L 2088 709 
Q 1288 -9 406 -678 
Q 256 -497 63 -297 
Q 875 259 1681 1028 
z
" transform="scale(0.015625)"/>
      <path id="MicrosoftYaHei-7edf" d="M 5100 3641 
Q 5625 2934 6175 2047 
Q 5956 1922 5713 1766 
Q 5556 2031 5413 2275 
Q 5122 2256 4813 2241 
L 4813 122 
Q 4813 -259 5094 -259 
L 5400 -259 
Q 5706 -259 5750 53 
Q 5800 428 5813 866 
Q 6019 778 6313 684 
Q 6263 141 6206 -159 
Q 6119 -703 5550 -703 
L 5013 -703 
Q 4331 -703 4331 78 
L 4331 2213 
Q 3981 2194 3606 2169 
Q 3556 809 3256 272 
Q 2900 -416 1925 -866 
Q 1788 -672 1606 -447 
Q 2513 -78 2819 522 
Q 3100 1000 3122 2138 
Q 2994 2128 2863 2122 
Q 2594 2097 2363 2041 
L 2150 2528 
Q 2419 2641 2581 2828 
Q 3050 3388 3463 4047 
L 2100 4047 
L 2100 4491 
L 4094 4491 
Q 3859 4850 3650 5128 
L 4063 5384 
Q 4300 5091 4594 4684 
L 4297 4491 
L 6200 4491 
L 6200 4047 
L 3663 4047 
L 4006 3897 
Q 3488 3197 2988 2609 
Q 4166 2650 5153 2694 
Q 4916 3075 4700 3391 
L 5100 3641 
z
M 894 1534 
Q 1394 1603 2175 1722 
Q 2138 1472 2113 1259 
Q 1331 1153 325 991 
L 225 1441 
Q 616 1841 1153 2744 
Q 503 2700 219 2678 
L 100 3103 
Q 650 3828 1288 5316 
L 1763 5128 
Q 1156 3941 656 3141 
Q 1066 3147 1394 3159 
Q 1581 3494 1788 3884 
L 2256 3678 
Q 1544 2434 894 1534 
z
M 81 222 
Q 1119 422 2225 672 
Q 2200 347 2200 222 
Q 1069 -28 225 -253 
L 81 222 
z
" transform="scale(0.015625)"/>
      <path id="MicrosoftYaHei-66b4" d="M 306 1909 
L 1988 1909 
L 1988 2359 
L 569 2359 
L 569 2722 
L 1988 2722 
L 1988 3172 
L 1369 3172 
L 1369 3053 
L 931 3053 
L 931 5091 
L 5494 5091 
L 5494 3053 
L 5056 3053 
L 5056 3172 
L 4450 3172 
L 4450 2722 
L 5869 2722 
L 5869 2359 
L 4450 2359 
L 4450 1909 
L 6131 1909 
L 6131 1528 
L 4503 1528 
Q 5163 944 6344 666 
Q 6188 472 6063 247 
Q 5272 503 4688 900 
Q 4306 688 3881 503 
L 3656 834 
Q 4047 1003 4350 1156 
Q 4144 1331 3969 1528 
L 2384 1528 
Q 2222 1350 2041 1191 
Q 2488 1000 2769 859 
L 2550 509 
Q 2138 731 1703 925 
Q 1106 494 331 222 
Q 200 459 75 641 
Q 1175 925 1859 1528 
L 306 1528 
L 306 1909 
z
M 1369 3547 
L 5056 3547 
L 5056 3953 
L 1369 3953 
L 1369 3547 
z
M 5056 4716 
L 1369 4716 
L 1369 4316 
L 5056 4316 
L 5056 4716 
z
M 3025 1266 
L 3475 1266 
L 3475 -84 
Q 3475 -778 2788 -778 
Q 2450 -778 2069 -772 
Q 2038 -566 1988 -297 
Q 2350 -322 2594 -334 
Q 3025 -353 3025 72 
L 3025 1266 
z
M 3694 391 
Q 4675 197 5694 -47 
L 5563 -441 
Q 4425 -147 3594 34 
L 3694 391 
z
M 2725 428 
Q 2750 234 2775 53 
Q 1794 -159 788 -428 
L 681 -3 
Q 1588 153 2725 428 
z
M 2438 1909 
L 4000 1909 
L 4000 2359 
L 2438 2359 
L 2438 1909 
z
M 2438 2722 
L 4000 2722 
L 4000 3172 
L 2438 3172 
L 2438 2722 
z
" transform="scale(0.015625)"/>
      <path id="MicrosoftYaHei-96e8" d="M 163 4997 
L 6238 4997 
L 6238 4541 
L 3413 4541 
L 3413 3741 
L 5856 3741 
L 5856 -28 
Q 5856 -709 5156 -709 
Q 4738 -709 4181 -697 
Q 4150 -478 4094 -209 
Q 4619 -253 5013 -253 
Q 5388 -253 5388 103 
L 5388 3284 
L 3413 3284 
L 3413 -691 
L 2944 -691 
L 2944 3284 
L 1000 3284 
L 1000 -741 
L 531 -741 
L 531 3741 
L 2944 3741 
L 2944 4541 
L 163 4541 
L 163 4997 
z
M 3631 1066 
L 3888 1428 
Q 4600 1016 5081 678 
L 4788 278 
Q 4381 597 3631 1066 
z
M 3694 2422 
L 3956 2778 
Q 4663 2391 5144 2047 
L 4844 1653 
Q 4375 2022 3694 2422 
z
M 1244 1122 
L 1519 1472 
Q 2131 1084 2631 709 
L 2319 328 
Q 1906 666 1244 1122 
z
M 1313 2466 
L 1588 2809 
Q 2225 2434 2681 2091 
L 2369 1703 
Q 1881 2091 1313 2466 
z
" transform="scale(0.015625)"/>
      <path id="MicrosoftYaHei-5f3a" d="M 5250 466 
L 5669 666 
Q 6031 28 6363 -641 
L 5894 -878 
Q 5794 -641 5688 -416 
Q 3750 -547 2219 -653 
L 2150 -134 
Q 3088 -97 3969 -59 
L 3969 866 
L 2894 866 
L 2894 622 
L 2431 622 
L 2431 2616 
L 3969 2616 
L 3969 3297 
L 3144 3297 
L 3144 3047 
L 2681 3047 
L 2681 4972 
L 5731 4972 
L 5731 3047 
L 5269 3047 
L 5269 3297 
L 4444 3297 
L 4444 2616 
L 5988 2616 
L 5988 866 
L 4444 866 
L 4444 -41 
Q 4975 -22 5488 3 
Q 5369 241 5250 466 
z
M 425 3466 
L 1650 3466 
L 1650 4516 
L 238 4516 
L 238 4941 
L 2113 4941 
L 2113 2772 
L 1650 2772 
L 1650 3041 
L 831 3041 
L 719 2072 
L 2056 2072 
Q 1994 741 1944 128 
Q 1888 -722 1100 -722 
Q 819 -722 425 -716 
Q 388 -484 325 -216 
Q 731 -247 1019 -247 
Q 1444 -247 1475 191 
Q 1525 828 1563 1647 
L 225 1647 
L 425 3466 
z
M 5269 4547 
L 3144 4547 
L 3144 3722 
L 5269 3722 
L 5269 4547 
z
M 5525 1291 
L 5525 2191 
L 4444 2191 
L 4444 1291 
L 5525 1291 
z
M 2894 1291 
L 3969 1291 
L 3969 2191 
L 2894 2191 
L 2894 1291 
z
" transform="scale(0.015625)"/>
      <path id="MicrosoftYaHei-4e0e" d="M 1163 2384 
L 1163 2859 
L 1413 5328 
L 1931 5328 
L 1834 4334 
L 6269 4334 
L 6269 3859 
L 1791 3859 
L 1694 2859 
L 5813 2859 
Q 5738 1547 5644 416 
Q 5556 -247 5263 -478 
Q 4981 -703 4322 -703 
Q 3706 -697 2900 -678 
Q 2863 -466 2794 -134 
Q 3744 -203 4213 -209 
Q 5050 -266 5125 447 
Q 5206 1278 5263 2384 
L 1163 2384 
z
M 106 1409 
L 4738 1409 
L 4738 934 
L 106 934 
L 106 1409 
z
" transform="scale(0.015625)"/>
      <path id="MicrosoftYaHei-6790" d="M 2775 4797 
Q 4319 4822 5863 5066 
L 6031 4616 
Q 4713 4422 3256 4359 
L 3256 2966 
L 6306 2966 
L 6306 2509 
L 5131 2509 
L 5131 -816 
L 4650 -816 
L 4650 2509 
L 3256 2509 
L 3256 2272 
Q 3256 241 2225 -853 
Q 2069 -628 1900 -441 
Q 2775 497 2775 2278 
L 2775 4797 
z
M 88 1391 
Q 738 2341 1069 3584 
L 175 3584 
L 175 4016 
L 1081 4016 
L 1081 5259 
L 1538 5259 
L 1538 4016 
L 2400 4016 
L 2400 3584 
L 1538 3584 
L 1538 2872 
L 1769 3053 
Q 2338 2384 2594 1984 
L 2206 1697 
Q 1913 2159 1538 2659 
L 1538 -816 
L 1081 -816 
L 1081 2397 
Q 763 1459 306 834 
Q 231 1053 88 1391 
z
" transform="scale(0.015625)"/>
     </defs>
     <use xlink:href="#MicrosoftYaHei-2022"/>
     <use xlink:href="#MicrosoftYaHei-20" transform="translate(43.945312 0)"/>
     <use xlink:href="#MicrosoftYaHei-57ce" transform="translate(73.535156 0)"/>
     <use xlink:href="#MicrosoftYaHei-5e02" transform="translate(173.535156 0)"/>
     <use xlink:href="#MicrosoftYaHei-6392" transform="translate(273.535156 0)"/>
     <use xlink:href="#MicrosoftYaHei-6c34" transform="translate(373.535156 0)"/>
     <use xlink:href="#MicrosoftYaHei-7cfb" transform="translate(473.535156 0)"/>
     <use xlink:href="#MicrosoftYaHei-7edf" transform="translate(573.535156 0)"/>
     <use xlink:href="#MicrosoftYaHei-8bbe" transform="translate(673.535156 0)"/>
     <use xlink:href="#MicrosoftYaHei-8ba1" transform="translate(773.535156 0)"/>
     <use xlink:href="#MicrosoftYaHei-ff1a" transform="translate(873.535156 0)"/>
     <use xlink:href="#MicrosoftYaHei-66b4" transform="translate(973.535156 0)"/>
     <use xlink:href="#MicrosoftYaHei-96e8" transform="translate(1073.535156 0)"/>
     <use xlink:href="#MicrosoftYaHei-5f3a" transform="translate(1173.535156 0)"/>
     <use xlink:href="#MicrosoftYaHei-5ea6" transform="translate(1273.535156 0)"/>
     <use xlink:href="#MicrosoftYaHei-4e0e" transform="translate(1373.535156 0)"/>
     <use xlink:href="#MicrosoftYaHei-91cd" transform="translate(1473.535156 0)"/>
     <use xlink:href="#MicrosoftYaHei-73b0" transform="translate(1573.535156 0)"/>
     <use xlink:href="#MicrosoftYaHei-671f" transform="translate(1673.535156 0)"/>
     <use xlink:href="#MicrosoftYaHei-5206" transform="translate(1773.535156 0)"/>
     <use xlink:href="#MicrosoftYaHei-6790" transform="translate(1873.535156 0)"/>
    </g>
   </g>
   <g id="text_6">
    <!-- $\text{方法支撑：极值理论 (Gumbel/GEV)、重现期、分位数}$ -->
    <g style="fill: #93c5fd" transform="translate(264.24 402.964425) scale(0.24 -0.24)">
     <defs>
      <path id="STIXGeneral-Regular-a4" d="M 3341 256 
L 3034 -64 
L 2406 563 
Q 2029 301 1606 301 
Q 1171 301 794 563 
L 179 -64 
L -141 256 
L 486 870 
Q 224 1248 224 1677 
Q 224 2118 486 2483 
L -141 3110 
L 179 3418 
L 794 2803 
Q 1184 3053 1606 3053 
Q 2048 3053 2406 2803 
L 3034 3418 
L 3341 3110 
L 2726 2483 
Q 2976 2112 2976 1683 
Q 2976 1261 2726 870 
L 3341 256 
z
M 2541 1690 
Q 2541 2086 2265 2364 
Q 1990 2643 1594 2643 
Q 1210 2643 934 2361 
Q 659 2080 659 1683 
Q 659 1280 937 995 
Q 1216 710 1606 710 
Q 2003 710 2272 995 
Q 2541 1280 2541 1690 
z
" transform="scale(0.015625)"/>
      <path id="Cmr10-20" transform="scale(0.015625)"/>
      <path id="Cmr10-28" d="M 1984 -1588 
Q 1628 -1306 1370 -942 
Q 1113 -578 948 -165 
Q 784 247 703 697 
Q 622 1147 622 1600 
Q 622 2059 703 2509 
Q 784 2959 951 3375 
Q 1119 3791 1378 4153 
Q 1638 4516 1984 4788 
Q 1984 4800 2016 4800 
L 2075 4800 
Q 2094 4800 2109 4783 
Q 2125 4766 2125 4744 
Q 2125 4716 2113 4703 
Q 1800 4397 1592 4047 
Q 1384 3697 1257 3301 
Q 1131 2906 1075 2482 
Q 1019 2059 1019 1600 
Q 1019 -434 2106 -1491 
Q 2125 -1509 2125 -1544 
Q 2125 -1559 2108 -1579 
Q 2091 -1600 2075 -1600 
L 2016 -1600 
Q 1984 -1600 1984 -1588 
z
" transform="scale(0.015625)"/>
      <path id="Cmr10-47" d="M 1472 684 
Q 1703 403 2036 243 
Q 2369 84 2731 84 
Q 3088 84 3378 265 
Q 3669 447 3669 781 
L 3669 1319 
Q 3669 1522 2869 1522 
L 2869 1747 
L 4703 1747 
L 4703 1522 
Q 4500 1522 4381 1487 
Q 4263 1453 4263 1319 
L 4263 56 
Q 4263 34 4245 17 
Q 4228 0 4206 0 
Q 4147 0 4008 140 
Q 3869 281 3788 391 
Q 3631 122 3297 -9 
Q 2963 -141 2597 -141 
Q 1975 -141 1464 179 
Q 953 500 656 1036 
Q 359 1572 359 2188 
Q 359 2641 531 3069 
Q 703 3497 1011 3822 
Q 1319 4147 1728 4330 
Q 2138 4513 2597 4513 
Q 2928 4513 3223 4370 
Q 3519 4228 3750 3969 
L 4122 4494 
Q 4159 4513 4166 4513 
L 4213 4513 
Q 4231 4513 4247 4497 
Q 4263 4481 4263 4459 
L 4263 2731 
Q 4263 2675 4213 2675 
L 4097 2675 
Q 4038 2675 4038 2731 
Q 4038 2916 3964 3144 
Q 3891 3372 3777 3576 
Q 3663 3781 3513 3938 
Q 3153 4288 2688 4288 
Q 2331 4288 2006 4128 
Q 1681 3969 1459 3688 
Q 1225 3388 1134 3005 
Q 1044 2622 1044 2188 
Q 1044 1206 1472 684 
z
" transform="scale(0.015625)"/>
      <path id="Cmr10-75" d="M 691 763 
L 691 2175 
Q 691 2347 639 2423 
Q 588 2500 491 2517 
Q 394 2534 191 2534 
L 191 2759 
L 1159 2828 
L 1159 763 
Q 1159 513 1195 373 
Q 1231 234 1348 165 
Q 1466 97 1722 97 
Q 2066 97 2269 384 
Q 2472 672 2472 1038 
L 2472 2175 
Q 2472 2347 2419 2423 
Q 2366 2500 2270 2517 
Q 2175 2534 1972 2534 
L 1972 2759 
L 2938 2828 
L 2938 581 
Q 2938 413 2989 336 
Q 3041 259 3137 242 
Q 3234 225 3438 225 
L 3438 0 
L 2491 -72 
L 2491 469 
Q 2372 228 2159 78 
Q 1947 -72 1691 -72 
Q 1231 -72 961 123 
Q 691 319 691 763 
z
" transform="scale(0.015625)"/>
      <path id="Cmr10-6d" d="M 191 0 
L 191 225 
Q 409 225 550 259 
Q 691 294 691 428 
L 691 2175 
Q 691 2347 639 2423 
Q 588 2500 491 2517 
Q 394 2534 191 2534 
L 191 2759 
L 1119 2828 
L 1119 2203 
Q 1247 2478 1498 2653 
Q 1750 2828 2047 2828 
Q 2784 2828 2913 2228 
Q 3041 2497 3287 2662 
Q 3534 2828 3828 2828 
Q 4119 2828 4317 2734 
Q 4516 2641 4616 2448 
Q 4716 2256 4716 1966 
L 4716 428 
Q 4716 294 4858 259 
Q 5000 225 5216 225 
L 5216 0 
L 3750 0 
L 3750 225 
Q 3969 225 4109 259 
Q 4250 294 4250 428 
L 4250 1947 
Q 4250 2269 4159 2466 
Q 4069 2663 3788 2663 
Q 3419 2663 3178 2366 
Q 2938 2069 2938 1691 
L 2938 428 
Q 2938 294 3078 259 
Q 3219 225 3438 225 
L 3438 0 
L 1972 0 
L 1972 225 
Q 2191 225 2331 259 
Q 2472 294 2472 428 
L 2472 1947 
Q 2472 2259 2381 2461 
Q 2291 2663 2009 2663 
Q 1638 2663 1398 2366 
Q 1159 2069 1159 1691 
L 1159 428 
Q 1159 294 1300 259 
Q 1441 225 1656 225 
L 1656 0 
L 191 0 
z
" transform="scale(0.015625)"/>
      <path id="Cmr10-62" d="M 666 0 
L 666 3788 
Q 666 3959 614 4036 
Q 563 4113 466 4130 
Q 369 4147 166 4147 
L 166 4372 
L 1113 4441 
L 1113 2438 
Q 1219 2556 1361 2645 
Q 1503 2734 1665 2781 
Q 1828 2828 1997 2828 
Q 2284 2828 2529 2712 
Q 2775 2597 2956 2394 
Q 3138 2191 3239 1927 
Q 3341 1663 3341 1381 
Q 3341 994 3152 659 
Q 2963 325 2636 126 
Q 2309 -72 1919 -72 
Q 1675 -72 1447 53 
Q 1219 178 1069 384 
L 850 0 
L 666 0 
z
M 1131 628 
Q 1238 394 1438 245 
Q 1638 97 1881 97 
Q 2213 97 2417 287 
Q 2622 478 2703 768 
Q 2784 1059 2784 1381 
Q 2784 1922 2644 2203 
Q 2581 2328 2473 2434 
Q 2366 2541 2233 2602 
Q 2100 2663 1953 2663 
Q 1697 2663 1478 2527 
Q 1259 2391 1131 2163 
L 1131 628 
z
" transform="scale(0.015625)"/>
      <path id="Cmr10-65" d="M 1594 -72 
Q 1203 -72 876 133 
Q 550 338 364 680 
Q 178 1022 178 1403 
Q 178 1778 348 2115 
Q 519 2453 823 2661 
Q 1128 2869 1503 2869 
Q 1797 2869 2014 2770 
Q 2231 2672 2372 2497 
Q 2513 2322 2584 2084 
Q 2656 1847 2656 1563 
Q 2656 1478 2591 1478 
L 738 1478 
L 738 1409 
Q 738 878 952 497 
Q 1166 116 1650 116 
Q 1847 116 2014 203 
Q 2181 291 2304 447 
Q 2428 603 2472 781 
Q 2478 803 2495 820 
Q 2513 838 2534 838 
L 2591 838 
Q 2656 838 2656 756 
Q 2566 394 2266 161 
Q 1966 -72 1594 -72 
z
M 744 1638 
L 2203 1638 
Q 2203 1878 2136 2125 
Q 2069 2372 1912 2536 
Q 1756 2700 1503 2700 
Q 1141 2700 942 2361 
Q 744 2022 744 1638 
z
" transform="scale(0.015625)"/>
      <path id="Cmr10-6c" d="M 197 0 
L 197 225 
Q 416 225 556 259 
Q 697 294 697 428 
L 697 3788 
Q 697 3959 645 4036 
Q 594 4113 497 4130 
Q 400 4147 197 4147 
L 197 4372 
L 1147 4441 
L 1147 428 
Q 1147 294 1287 259 
Q 1428 225 1644 225 
L 1644 0 
L 197 0 
z
" transform="scale(0.015625)"/>
      <path id="Cmmi10-3d" d="M 359 -1472 
Q 359 -1453 366 -1447 
L 2591 4722 
Q 2603 4759 2634 4779 
Q 2666 4800 2706 4800 
Q 2763 4800 2798 4765 
Q 2834 4731 2834 4672 
L 2834 4647 
L 609 -1522 
Q 572 -1600 488 -1600 
Q 434 -1600 396 -1562 
Q 359 -1525 359 -1472 
z
" transform="scale(0.015625)"/>
      <path id="Cmr10-45" d="M 197 0 
L 197 225 
Q 856 225 856 428 
L 856 3944 
Q 856 4147 197 4147 
L 197 4372 
L 3816 4372 
L 3994 2906 
L 3809 2906 
Q 3741 3459 3617 3709 
Q 3494 3959 3222 4053 
Q 2950 4147 2406 4147 
L 1778 4147 
Q 1663 4147 1598 4137 
Q 1534 4128 1493 4083 
Q 1453 4038 1453 3944 
L 1453 2381 
L 1925 2381 
Q 2250 2381 2411 2436 
Q 2572 2491 2633 2645 
Q 2694 2800 2694 3128 
L 2881 3128 
L 2881 1409 
L 2694 1409 
Q 2694 1734 2633 1890 
Q 2572 2047 2411 2101 
Q 2250 2156 1925 2156 
L 1453 2156 
L 1453 428 
Q 1453 291 1531 258 
Q 1609 225 1778 225 
L 2456 225 
Q 2900 225 3173 295 
Q 3447 366 3598 530 
Q 3750 694 3833 955 
Q 3916 1216 3988 1678 
L 4172 1678 
L 3903 0 
L 197 0 
z
" transform="scale(0.015625)"/>
      <path id="Cmr10-56" d="M 2253 -72 
L 744 3944 
Q 688 4078 528 4112 
Q 369 4147 122 4147 
L 122 4372 
L 1881 4372 
L 1881 4147 
Q 1350 4147 1350 3981 
Q 1353 3972 1354 3964 
Q 1356 3956 1356 3944 
L 2584 678 
L 3744 3769 
Q 3756 3794 3756 3847 
Q 3756 4003 3612 4075 
Q 3469 4147 3291 4147 
L 3291 4372 
L 4672 4372 
L 4672 4147 
Q 4431 4147 4248 4058 
Q 4066 3969 3988 3769 
L 2541 -72 
Q 2522 -141 2438 -141 
L 2356 -141 
Q 2272 -141 2253 -72 
z
" transform="scale(0.015625)"/>
      <path id="Cmr10-29" d="M 416 -1600 
Q 359 -1600 359 -1544 
Q 359 -1516 372 -1503 
Q 1466 -434 1466 1600 
Q 1466 3634 384 4691 
Q 359 4706 359 4744 
Q 359 4766 376 4783 
Q 394 4800 416 4800 
L 475 4800 
Q 494 4800 506 4788 
Q 966 4425 1272 3906 
Q 1578 3388 1720 2800 
Q 1863 2213 1863 1600 
Q 1863 1147 1786 708 
Q 1709 269 1542 -157 
Q 1375 -584 1119 -945 
Q 863 -1306 506 -1588 
Q 494 -1600 475 -1600 
L 416 -1600 
z
" transform="scale(0.015625)"/>
     </defs>
     <use xlink:href="#STIXGeneral-Regular-a4"/>
     <use xlink:href="#STIXGeneral-Regular-a4" transform="translate(49.999985 0)"/>
     <use xlink:href="#STIXGeneral-Regular-a4" transform="translate(99.999969 0)"/>
     <use xlink:href="#STIXGeneral-Regular-a4" transform="translate(149.999954 0)"/>
     <use xlink:href="#STIXGeneral-Regular-a4" transform="translate(199.999939 0)"/>
     <use xlink:href="#STIXGeneral-Regular-a4" transform="translate(249.999924 0)"/>
     <use xlink:href="#STIXGeneral-Regular-a4" transform="translate(299.999908 0)"/>
     <use xlink:href="#STIXGeneral-Regular-a4" transform="translate(349.999893 0)"/>
     <use xlink:href="#STIXGeneral-Regular-a4" transform="translate(399.999878 0)"/>
     <use xlink:href="#Cmr10-20" transform="translate(449.999863 0)"/>
     <use xlink:href="#Cmr10-28" transform="translate(483.300644 0)"/>
     <use xlink:href="#Cmr10-47" transform="translate(522.119003 0)"/>
     <use xlink:href="#Cmr10-75" transform="translate(600.536972 0)"/>
     <use xlink:href="#Cmr10-6d" transform="translate(656.05455 0)"/>
     <use xlink:href="#Cmr10-62" transform="translate(739.355331 0)"/>
     <use xlink:href="#Cmr10-65" transform="translate(794.87291 0)"/>
     <use xlink:href="#Cmr10-6c" transform="translate(839.257675 0)"/>
     <use xlink:href="#Cmmi10-3d" transform="translate(866.943222 0)"/>
     <use xlink:href="#Cmr10-47" transform="translate(916.943222 0)"/>
     <use xlink:href="#Cmr10-45" transform="translate(995.361191 0)"/>
     <use xlink:href="#Cmr10-56" transform="translate(1063.378769 0)"/>
     <use xlink:href="#Cmr10-29" transform="translate(1138.378769 0)"/>
     <use xlink:href="#STIXGeneral-Regular-a4" transform="translate(1177.197128 0)"/>
     <use xlink:href="#STIXGeneral-Regular-a4" transform="translate(1227.197113 0)"/>
     <use xlink:href="#STIXGeneral-Regular-a4" transform="translate(1277.197098 0)"/>
     <use xlink:href="#STIXGeneral-Regular-a4" transform="translate(1327.197083 0)"/>
     <use xlink:href="#STIXGeneral-Regular-a4" transform="translate(1377.197067 0)"/>
     <use xlink:href="#STIXGeneral-Regular-a4" transform="translate(1427.197052 0)"/>
     <use xlink:href="#STIXGeneral-Regular-a4" transform="translate(1477.197037 0)"/>
     <use xlink:href="#STIXGeneral-Regular-a4" transform="translate(1527.197021 0)"/>
    </g>
   </g>
  </g>
 </g>
</svg>
