<svg xmlns="http://www.w3.org/2000/svg" viewBox="0 0 24 24">
  <defs>
    <linearGradient id="wechatGradient" x1="0%" y1="0%" x2="100%" y2="100%">
      <stop offset="0%" style="stop-color:#07c160;stop-opacity:1" />
      <stop offset="100%" style="stop-color:#00d100;stop-opacity:1" />
    </linearGradient>
  </defs>
  <path fill="url(#wechatGradient)" d="M8.691 2.188C3.891 2.188 0 5.476 0 9.53c0 2.212 1.17 4.203 3.002 5.55a.59.59 0 0 1 .213.665l-.39 1.48c-.019.07-.048.141-.048.213 0 .163.13.295.29.295a.326.326 0 0 0 .167-.054l1.903-1.114a.864.864 0 0 1 .717-.098 10.16 10.16 0 0 0 2.837.403c.276 0 .543-.027.811-.05-.857-2.578.157-4.972 1.932-6.446 1.703-1.415 4.882-1.932 7.621-.55-.302-2.676-2.476-4.81-5.722-6.04C10.85 2.462 9.77 2.188 8.691 2.188zm-2.363 2.58c.55 0 .995.4.995.89 0 .49-.445.89-.995.89s-.996-.4-.996-.89c0-.49.446-.89.996-.89zm4.725 0c.55 0 .996.4.996.89 0 .49-.446.89-.996.89s-.995-.4-.995-.89c0-.49.445-.89.995-.89zm7.618 6.174c-2.836 0-5.148 1.936-5.148 4.32 0 2.383 2.312 4.319 5.148 4.319.4 0 .787-.043 1.164-.115.435.262 1.107.646 1.107.646.024.014.053.02.08.02a.1.1 0 0 0 .099-.1c0-.024-.008-.049-.02-.07l-.199-.751a.216.216 0 0 1 .078-.243c1.078-.946 1.773-2.312 1.773-3.706 0-2.384-2.312-4.32-5.148-4.32h-.934zm-2.019 1.388c.275 0 .498.2.498.447 0 .247-.223.447-.498.447s-.498-.2-.498-.447c0-.247.223-.447.498-.447zm4.038 0c.275 0 .498.2.498.447 0 .247-.223.447-.498.447s-.498-.2-.498-.447c0-.247.223-.447.498-.447z"/>
</svg>